<?xml version="1.0" encoding="utf-8"?>
<!-- Generator: Adobe Illustrator 25.2.3, SVG Export Plug-In . SVG Version: 6.00 Build 0)  -->
<svg version="1.1" id="圖層_1" xmlns="http://www.w3.org/2000/svg" xmlns:xlink="http://www.w3.org/1999/xlink" x="0px" y="0px"
	 viewBox="0 0 451 365.6" style="enable-background:new 0 0 451 365.6;" xml:space="preserve">
<style type="text/css">
	.st0{fill:#4A71BE;}
</style>
<path class="st0" d="M271.4,300.7c22.1-11.2,30.9-38,20-60c20.1-10.2,29.5-33.6,22.2-54.8h91.9c24.5,0,44.9-19.7,45.6-43.9
	c0.7-25.3-19.6-46.4-45-46.4H174.9L193.4,78c17.7-16.9,19-45.2,2.8-63.1C179.1-4,150-5,131.7,12.4l-108,101.3
	C8.6,127.8,0,147.8,0,168.4v122.1c0,41.4,33.6,75,75,75h156C264.2,365.6,286.1,330.5,271.4,300.7z M75,335.6c-24.8,0-45-20.2-45-45
	V168.4c0-12.4,5.2-24.4,14.2-32.8C44.6,135.2,152,34.5,152.4,34.2c6.1-5.8,15.8-5.5,21.5,0.8c5.4,6,4.8,15.5-1.2,21.3l-45.5,43.5
	c-9.8,9.3-3.1,25.8,10.4,25.8H406c8.4,0,15.2,7,15,15.5c-0.2,8.1-7.2,14.7-15.6,14.7c-165.1,0-90.2-0.3-179.4-0.3
	c-8.3,0-15.1,6.8-15,15.1c-0.1,8.4,6.7,15.1,15,15.1h47.9c6.9,1.3,12.1,7.4,12.1,14.7c0,8.3-6.7,15-15,15h-45c-8.3,0-15,6.7-15,15
	s6.7,15,15,15h25c8.3,0,15,6.7,15,15c0,8.3-6.7,15-15,15h-25c-8.3,0-15,6.7-15,15s6.7,15,15,15h5c8.3,0,15,6.7,15,15s-6.7,15-15,15
	H75z"/>
</svg>
