<?xml version="1.0" encoding="UTF-8"?><svg id="a" xmlns="http://www.w3.org/2000/svg" viewBox="0 0 300 300"><defs><style>.b{stroke-width:5px;}.b,.c,.d,.e,.f{stroke:#3e3a39;}.b,.c,.e,.f{stroke-linecap:round;stroke-linejoin:round;}.b,.e{fill:#61a8b8;}.g{fill:#b33b3a;}.h{fill:#4b8195;}.c{fill:#da4741;}.c,.d,.e,.f{stroke-width:6px;}.d{fill:#db5358;stroke-miterlimit:10;}.f{fill:#ed908e;}</style></defs><path class="d" d="M193.37,53.55c-3.16-3.16-7.93-3.5-10.66-.78h-.01l-9.27,9.28c-1.92-1.39-3.94-2.63-6.06-3.71l3.43-11.67c1.09-3.71-1.5-7.73-5.79-8.99-4.29-1.26-8.64,.72-9.73,4.43l-3.37,11.48c-1.88-.23-3.8-.37-5.75-.37-1.04,0-2.07,.05-3.09,.11v-10.53h0c0-3.86-3.62-6.99-8.09-6.99s-8.09,3.13-8.09,6.99h0v14.59c-16.13,7.33-27.35,23.57-27.35,42.44v81.34c11.71-1.53,23.47-2.32,35.25-2.73V99.84c0-6.27,5.09-11.36,11.36-11.36s11.36,5.1,11.36,11.36v78.18c11.77-.08,23.53-.02,35.25-.18V99.84c0-9.71-2.97-18.73-8.06-26.19l9.43-9.43h0c2.73-2.73,2.38-7.5-.77-10.66Z"/><path class="f" d="M210.59,132.65c0,11.2-8.5,20.27-18.98,20.27s-18.98-9.08-18.98-20.27,8.5-20.27,18.98-20.27,18.98,9.08,18.98,20.27Z"/><path class="b" d="M228.68,88.29h-84.49c-6.36,.03-11.52,5.22-11.52,11.58v18.84h96.02c7.26,0,13.15-6.81,13.15-15.21s-5.89-15.21-13.15-15.21Z"/><path class="e" d="M99.47,35.25c-1.17-7.72-8.83-13.68-18.11-13.68s-16.94,5.96-18.11,13.68c-.09,.32-.16,.66-.16,1.01V195.15h36.54V36.26c0-.35-.07-.69-.16-1.01Z"/><path class="c" d="M58.67,190.78v-43.92c0-20.34,16.49-36.82,36.82-36.82h49.22c40.67,0,77.8,32.71,82.93,73.05l8.4,63.15c2.56,20.17-11.71,34.45-31.88,31.88l-72.44-4.42c-40.34-5.14-73.05-42.26-73.05-82.93Z"/><path class="g" d="M139.55,43.54c0,2.18-2.04,3.94-4.56,3.94s-4.56-1.77-4.56-3.94,2.04-3.94,4.56-3.94,4.56,1.77,4.56,3.94Z"/><path class="g" d="M190.92,62.45c-1.54,1.54-4.23,1.34-6.01-.44-1.78-1.78-1.98-4.48-.44-6.01,1.54-1.54,4.23-1.34,6.01,.44,1.78,1.78,1.98,4.47,.44,6.01Z"/><path class="g" d="M167.41,46.41c-.61,2.09-3.07,3.21-5.49,2.5-2.42-.71-3.88-2.98-3.26-5.07,.61-2.09,3.07-3.21,5.49-2.5,2.42,.71,3.88,2.98,3.26,5.07Z"/><path class="g" d="M192.28,224.74c-2.98-1.82-5.97-3.72-8.95-5.67,7.46-.66,15.55-3.82,20.2-12.32,.84-1.54,.28-3.48-1.27-4.32-1.54-.84-3.48-.27-4.32,1.27-2.97,5.43-8.06,8.47-15.13,9.03-4.55,.36-8.57-.44-9.98-.77-10.51-7.41-20.64-15.43-29.42-23.63-.04-.08-.08-.15-.12-.23-.37-.69-.96-1.17-1.64-1.43-1.23-1.17-2.42-2.35-3.59-3.52,3.98,1.05,7.65,1.5,11.03,1.5,20.82,0,30.44-17.15,30.56-17.38,.84-1.55,.27-3.48-1.28-4.32-1.55-.84-3.48-.27-4.32,1.28-.55,1.01-13.82,24.62-45.48,8.4h-.02c-3.4-4.19-6.29-8.35-8.55-12.43-.07-.27-.14-.52-.22-.79-.18-.62-.54-1.14-1-1.53-4.3-8.63-5.6-16.83-2.65-24.03,.67-1.63-.11-3.49-1.74-4.15-1.63-.66-3.49,.11-4.15,1.74-3.8,9.28-2.47,19.83,3.92,31.52,4.84,18.76-5.51,25.3-6.02,25.6-1.51,.88-2.02,2.82-1.15,4.33,.59,1.03,1.66,1.6,2.76,1.6,.54,0,1.08-.14,1.58-.42,.5-.29,9.61-5.74,10.43-19.65,3.01,3.88,6.51,7.88,10.5,11.97,1.95,2,3.96,3.96,6.02,5.89,5.33,10.27,6.59,19.24,3.72,26.67-4.13,10.72-15.69,14.93-15.94,15.02-1.66,.58-2.54,2.38-1.97,4.05,.45,1.32,1.69,2.15,3.01,2.15,.34,0,.69-.06,1.04-.18,.5-.17,10.46-3.7,16.73-12.91,6.4,12.42,16.21,13.08,18.2,13.08,.18,0,.3,0,.34,0,1.76-.1,3.1-1.6,3-3.36-.1-1.76-1.63-3.09-3.36-3-.11,0-9.53,.36-14.49-14.35,1.71-5.51,1.74-11.52,.1-18,7.02,5.85,14.11,11.17,20.52,15.7,.25,.24,.53,.45,.85,.6,7.9,5.55,14.69,9.85,18.9,12.43,18.53,11.36,15.37,20.71,15.18,21.23-.66,1.6,.08,3.44,1.67,4.14,.41,.18,.84,.27,1.27,.27,1.23,0,2.4-.72,2.92-1.91,.26-.59,6.01-14.6-17.71-29.14Z"/><path class="h" d="M94.65,38.03c0,6.32-5.95,11.44-13.29,11.44s-13.29-5.12-13.29-11.44,5.95-11.44,13.29-11.44,13.29,5.12,13.29,11.44Z"/><path class="h" d="M227.59,114.76c-5.38,0-9.73-5.04-9.73-11.26s4.36-11.26,9.73-11.26,9.73,5.04,9.73,11.26-4.36,11.26-9.73,11.26Z"/></svg>