<?xml version="1.0" encoding="UTF-8"?><svg id="a" xmlns="http://www.w3.org/2000/svg" viewBox="0 0 300 300"><defs><style>.b{fill:#b33b3a;}.c{fill:#db5358;}.d{fill:#3e3a39;}</style></defs><g><path class="c" d="M173.32,296.92c-16.35,0-18.79-9.08-18.79-14.49,0-1.07,.09-2.15,.28-3.23V72.74c0-7.23-5.88-13.1-13.1-13.1s-13.1,5.88-13.1,13.1v33.08c.09,.6,.14,1.2,.14,1.78,0,8.21-8.43,14.9-18.79,14.9s-18.79-6.68-18.79-14.9c0-.69,.06-1.39,.18-2.07v-33.1c0-22.37,14.52-41.77,35.67-48.18l-1.92-7.6c-.71-2.82-.28-5.75,1.21-8.25,1.49-2.5,3.87-4.27,6.69-4.98,.87-.22,1.77-.33,2.67-.33,5,0,9.34,3.39,10.56,8.24l2.84,11.28c.35,.05,.69,.11,1.04,.17l2.42-8.55c1.32-4.67,5.63-7.93,10.48-7.93,1,0,2,.14,2.97,.41,5.78,1.64,9.15,7.67,7.51,13.45l-3.09,10.89,.24,.17,8.29-8.07c2.05-1.99,4.74-3.09,7.6-3.09s5.74,1.17,7.81,3.29c2.03,2.08,3.13,4.84,3.09,7.75-.04,2.91-1.21,5.63-3.29,7.66l-8.79,8.55c4.4,7.63,6.71,16.26,6.71,25.12v208.91c.02,.36,.04,.72,.04,1.09,0,5.41-2.44,14.49-18.79,14.49Z"/><path class="d" d="M135.67,6.08c3.53,0,6.75,2.39,7.65,5.97l3.34,13.26c1.9,.2,3.76,.52,5.58,.93l3.18-11.21c.98-3.48,4.15-5.75,7.59-5.74,.71,0,1.44,.1,2.16,.3,4.19,1.19,6.63,5.55,5.44,9.75l-3.68,13c1.38,.87,2.71,1.81,3.99,2.81l10.13-9.86c1.53-1.49,3.52-2.24,5.51-2.24s4.11,.8,5.66,2.39c3.04,3.12,2.97,8.12-.15,11.16l-10.5,10.22c4.75,7.38,7.52,16.16,7.52,25.6v209c.02,.33,.03,.67,.03,1,0,8.72-7.07,11.49-15.79,11.49s-15.79-2.77-15.79-11.49c0-1.01,.1-2,.28-2.96V72.74c0-8.89-7.21-16.1-16.1-16.1s-16.1,7.21-16.1,16.1v33.32c.09,.51,.14,1.02,.14,1.54,0,6.57-7.07,11.9-15.79,11.9s-15.79-5.33-15.79-11.9c0-.61,.06-1.21,.18-1.79v-33.38c0-22.35,15.48-41.07,36.3-46.05l-2.64-10.46c-1.07-4.23,1.5-8.52,5.73-9.58,.65-.16,1.3-.24,1.93-.24m0-6h0c-1.14,0-2.29,.14-3.4,.42-7.43,1.87-11.95,9.44-10.08,16.87l1.24,4.91c-9.14,3.34-17.31,9.19-23.43,16.85-7.52,9.4-11.66,21.22-11.66,33.28v32.86c-.12,.77-.18,1.54-.18,2.32,0,10.04,9.57,17.9,21.79,17.9s21.79-7.86,21.79-17.9c0-.65-.05-1.32-.14-2v-32.87c0-5.57,4.53-10.1,10.1-10.1s10.1,4.53,10.1,10.1v206.21c-.19,1.16-.28,2.32-.28,3.48,0,4.31,1.29,10.26,7.45,14.11,3.6,2.25,8.43,3.39,14.34,3.39s10.74-1.14,14.34-3.39c3.4-2.12,7.45-6.29,7.45-14.11,0-.37-.01-.76-.03-1.18V72.42c0-8.6-2.06-16.99-5.99-24.56l7.15-6.96c2.66-2.59,4.15-6.06,4.2-9.77s-1.35-7.22-3.94-9.88c-2.64-2.71-6.17-4.2-9.96-4.2s-7.08,1.4-9.69,3.94l-.66,.64,.19-.67c1.01-3.57,.57-7.32-1.24-10.56-1.81-3.24-4.77-5.58-8.34-6.59-1.24-.35-2.51-.53-3.79-.53-6.06,0-11.45,3.99-13.26,9.74l-.62-2.44c-1.56-6.18-7.1-10.5-13.47-10.5h0Z"/></g><path class="b" d="M167.1,17.58c-.51,1.81-2.63,2.8-4.72,2.2s-3.38-2.54-2.86-4.35,2.63-2.8,4.72-2.2,3.38,2.54,2.86,4.35Z"/><path class="b" d="M189.89,33.38c-1.35,1.31-3.67,1.11-5.19-.45s-1.66-3.89-.31-5.2,3.67-1.11,5.19,.45,1.66,3.89,.31,5.2Z"/><path class="b" d="M131.76,14.26c.46,1.82,2.54,2.87,4.66,2.34s3.45-2.44,2.99-4.27-2.54-2.87-4.65-2.34c-2.11,.53-3.45,2.44-2.99,4.27Z"/></svg>