<?xml version="1.0" encoding="UTF-8"?><svg id="a" xmlns="http://www.w3.org/2000/svg" viewBox="0 0 300 300"><defs><style>.b{fill:#b33b3a;}.c{fill:#4b8195;}.d{fill:#fff;stroke:#fff;}.d,.e,.f{stroke-miterlimit:10;}.e{stroke:#db5358;}.e,.f{fill:#db5358;}.g{fill:#da4741;}.g,.f,.h,.i{stroke:#3e3a39;stroke-width:6px;}.g,.h,.i{stroke-linecap:round;stroke-linejoin:round;}.h{fill:#61a8b8;}.i{fill:#ed908e;}</style></defs><path class="e" d="M297.96,184.67h-7.12c-.14-.03-.28-.04-.43-.04h-22.79c-.94,0-1.77,.63-2.03,1.53l-3.97,13.96-8.45-38.01c-.2-.9-.95-1.56-1.87-1.64-.92-.09-1.78,.43-2.14,1.28l-9.71,22.87-19.96-.31c-.87-.02-1.71,.55-2.02,1.39l-7.22,19.95-8.68-39.06c-.2-.92-.99-1.59-1.93-1.65-.93-.05-1.8,.52-2.12,1.41l-6.34,17.96h-21.3c-.22,0-.43,.04-.63,.1h-8.93c-.94,0-1.77,.63-2.03,1.53l-3.97,13.96-8.45-38.01c-.2-.9-.95-1.56-1.87-1.64-.92-.08-1.78,.43-2.14,1.28l-9.71,22.87-19.96-.31c-.89-.02-1.71,.55-2.02,1.39l-7.22,19.95-8.68-39.06c-.2-.92-.99-1.59-1.93-1.65-.94-.05-1.81,.52-2.12,1.41l-6.34,17.96h-5.63c-.14-.03-.28-.04-.43-.04h-22.79c-.94,0-1.77,.63-2.03,1.53l-3.97,13.96-8.45-38.01c-.2-.9-.95-1.56-1.87-1.64-.92-.09-1.78,.43-2.14,1.28l-9.71,22.87-19.96-.31c-.9-.03-1.71,.55-2.02,1.39l-7.21,19.95-8.68-39.06c-.2-.92-.99-1.59-1.93-1.65-.94-.06-1.81,.52-2.12,1.41l-6.34,17.96h-21.3c-1.17,0-2.11,.95-2.11,2.11s.95,2.11,2.11,2.11H-19.89c.9,0,1.69-.56,1.99-1.41l4.38-12.42,8.66,38.96c.2,.92,.99,1.59,1.93,1.65,.05,0,.09,0,.14,0,.88,0,1.68-.55,1.99-1.39l9.17-25.36,19.88,.31c.86,.03,1.64-.5,1.98-1.29l7.69-18.11,8.83,39.72c.21,.94,1.03,1.62,2,1.65,.94,.03,1.83-.6,2.09-1.53l5.82-20.44h5.52c.14,.03,.28,.04,.43,.04h22.79c.9,0,1.69-.56,1.99-1.41l4.38-12.42,8.66,38.96c.2,.92,.99,1.59,1.93,1.65,.05,0,.09,0,.14,0,.88,0,1.68-.55,1.99-1.39l9.17-25.36,19.88,.31c.86,.01,1.64-.5,1.98-1.29l7.69-18.11,8.83,39.72c.21,.94,1.03,1.62,2,1.65,.96,.04,1.83-.6,2.09-1.53l5.82-20.44h21.2c.22,0,.43-.04,.63-.1h8.93c.9,0,1.69-.56,1.99-1.41l4.38-12.42,8.66,38.96c.2,.92,.99,1.59,1.93,1.65,.05,0,.09,0,.14,0,.88,0,1.68-.55,1.99-1.39l9.17-25.36,19.88,.31c.86,.03,1.64-.5,1.98-1.29l7.69-18.11,8.83,39.72c.21,.94,1.03,1.62,2,1.65,.95,.04,1.83-.6,2.09-1.53l5.82-20.44h5.52c.14,.03,.28,.04,.43,.04h22.79c1.17,0,2.11-.95,2.11-2.11s-.95-2.11-2.11-2.11Z"/><path class="f" d="M198.55,59.64c-3.04-3.04-7.64-3.38-10.27-.75h-.01l-8.93,8.94c-1.85-1.34-3.8-2.53-5.84-3.58l3.3-11.24c1.05-3.57-1.45-7.44-5.57-8.66-4.13-1.21-8.32,.7-9.37,4.27l-3.25,11.06c-1.82-.22-3.66-.35-5.54-.35-1,0-1.99,.04-2.97,.11v-10.15h0c0-3.72-3.49-6.73-7.79-6.73s-7.79,3.02-7.79,6.73h0v14.05c-15.54,7.06-26.35,22.7-26.35,40.88v78.35c11.28-1.47,22.61-2.23,33.96-2.63V104.23c0-6.03,4.91-10.94,10.94-10.94s10.94,4.91,10.94,10.94v75.31c11.34-.08,22.66-.02,33.96-.17V104.22c0-9.36-2.86-18.04-7.76-25.23l9.09-9.09h0c2.63-2.63,2.3-7.23-.75-10.27Z"/><path class="i" d="M215.13,135.83c0,10.79-8.18,19.53-18.28,19.53s-18.28-8.74-18.28-19.53,8.18-19.53,18.28-19.53,18.28,8.74,18.28,19.53Z"/><path class="h" d="M232.55,93.1h-81.39c-6.13,.03-11.1,5.02-11.1,11.16v18.15h92.49c7,0,12.67-6.56,12.67-14.65s-5.67-14.65-12.67-14.65Z"/><path class="h" d="M108.09,42.01c-1.12-7.43-8.5-13.18-17.44-13.18s-16.32,5.74-17.44,13.18c-.09,.31-.15,.63-.15,.97V196.03h35.2V42.98c0-.34-.06-.66-.15-.97Z"/><path class="g" d="M68.79,191.83v-42.3c0-19.59,15.88-35.47,35.47-35.47h47.41c39.18,0,74.94,31.51,79.88,70.37l8.09,60.83c2.47,19.43-11.28,33.18-30.71,30.71l-69.78-4.25c-38.86-4.95-70.37-40.71-70.37-79.88Z"/><path class="b" d="M146.7,49.99c0,2.1-1.97,3.8-4.39,3.8s-4.39-1.7-4.39-3.8,1.97-3.8,4.39-3.8,4.39,1.7,4.39,3.8Z"/><path class="b" d="M196.19,68.21c-1.48,1.48-4.08,1.29-5.79-.42-1.72-1.72-1.9-4.31-.42-5.79,1.48-1.48,4.08-1.29,5.79,.42,1.72,1.72,1.91,4.31,.42,5.79Z"/><path class="b" d="M173.54,52.76c-.59,2.01-2.96,3.09-5.29,2.41-2.33-.68-3.74-2.87-3.14-4.88,.59-2.01,2.96-3.09,5.29-2.41,2.33,.68,3.74,2.87,3.14,4.88Z"/><path class="c" d="M103.45,44.69c0,6.09-5.73,11.02-12.8,11.02s-12.8-4.93-12.8-11.02,5.73-11.02,12.8-11.02,12.8,4.94,12.8,11.02Z"/><path class="c" d="M231.5,118.6c-5.18,0-9.38-4.85-9.38-10.84s4.2-10.84,9.38-10.84,9.37,4.85,9.37,10.84-4.2,10.84-9.37,10.84Z"/><path class="d" d="M232.12,188.66l-.56-4.23h0l-12.06-.19c-.87-.02-1.71,.55-2.02,1.39l-7.22,19.95-8.68-39.06c-.2-.92-.99-1.59-1.93-1.65-.93-.05-1.8,.52-2.12,1.41l-6.34,17.96h-21.3c-.22,0-.43,.04-.63,.1h-8.93c-.94,0-1.77,.63-2.03,1.53l-3.97,13.96-8.45-38.01c-.2-.9-.95-1.56-1.87-1.64-.92-.08-1.78,.43-2.14,1.28l-9.71,22.87-19.96-.31c-.89-.02-1.71,.55-2.02,1.39l-7.22,19.95-8.68-39.06c-.2-.92-.99-1.59-1.93-1.65-.94-.05-1.81,.52-2.12,1.41l-6.34,17.96h-5.63c-.14-.03-.28-.04-.43-.04h-9.05v4.27h16.6c.9,0,1.69-.56,1.99-1.41l4.38-12.42,8.66,38.96c.2,.92,.99,1.59,1.93,1.65,.05,0,.09,0,.14,0,.88,0,1.68-.55,1.99-1.39l9.17-25.36,19.88,.31c.86,.01,1.64-.5,1.98-1.29l7.69-18.11,8.83,39.72c.21,.94,1.03,1.62,2,1.65,.96,.04,1.83-.6,2.09-1.53l5.82-20.44h21.2c.22,0,.43-.04,.63-.1h8.93c.9,0,1.69-.56,1.99-1.41l4.38-12.42,8.66,38.96c.2,.92,.99,1.59,1.93,1.65,.05,0,.09,0,.14,0,.88,0,1.68-.55,1.99-1.39l9.17-25.36,11.19,.17Z"/></svg>