<?xml version="1.0" encoding="UTF-8"?><svg id="a" xmlns="http://www.w3.org/2000/svg" viewBox="0 0 300 300"><defs><style>.b{fill:#53493b;}.c{fill:#e2d4b9;stroke-linecap:round;stroke-linejoin:round;}.c,.d{stroke:#3e3a39;stroke-width:6px;}.d{fill:#db5358;stroke-miterlimit:10;}</style></defs><path class="d" d="M271.04,148.82c0,68.93-54.75,124.8-122.29,124.8S26.45,217.74,26.45,148.82,81.21,24.02,148.75,24.02s122.29,55.88,122.29,124.8Z"/><path class="b" d="M172.68,138.79c0,11.65-10.33,21.09-23.06,21.09s-23.06-9.44-23.06-21.09,10.33-21.09,23.06-21.09,23.06,9.44,23.06,21.09Z"/><path class="c" d="M148.59,47.27s-4.31,86.88,12.99,101.55c17.3,14.67,75.23,48.97,75.23,48.97,0,0,31.47-54.15-6.88-108.82,0,0-28.59-41.41-81.34-41.7Z"/><path class="c" d="M149.47,47.27s4.35,86.88-13.13,101.55c-17.48,14.67-76.02,48.97-76.02,48.97,0,0-31.8-54.15,6.95-108.82,0,0,28.89-41.41,82.19-41.7Z"/><path class="c" d="M62.28,198.94s71.39-66.43,115.49-37.82c44.1,28.61,59.11,37.82,59.11,37.82,0,0-34.87,56.41-86.73,52.58-51.86-3.83-69.44-29.81-87.87-52.58Z"/></svg>