<?xml version="1.0" encoding="UTF-8"?><svg id="a" xmlns="http://www.w3.org/2000/svg" viewBox="0 0 510.24 510.24"><defs><style>.b{fill:#f0908a;}.c{fill:#fff;}.d{fill:#6aa5a2;}.e{fill:#d2cfdf;}.f{fill:#703753;}.g{fill:#79bdba;}</style></defs><path class="b" d="M57.44,269.81c0-111.5,92.32-201.4,204.71-197.43,107.07,3.78,190.41,95.01,190.41,202.15v142.29c0,9.52-7.72,17.25-17.25,17.25H74.69c-9.52,0-17.25-7.72-17.25-17.25v-147.01h0Z"/><circle class="c" cx="255" cy="259.98" r="107.5"/><rect class="d" x="120.29" y="369.91" width="269.44" height="64.15"/><path class="g" d="M389.72,369.91l-56.79-85.45c-4.8-7.21-12.88-11.55-21.54-11.55h-112.78c-8.66,0-16.75,4.34-21.54,11.55l-56.79,85.45H389.72Z"/><path class="e" d="M309.5,265.95c0,7.11-2.84,13.51-7.46,18.13-4.74,4.62-11.14,7.46-18.13,7.46h-57.82c-14.1,0-25.59-11.5-25.59-25.59,0-7.11,2.84-13.51,7.46-18.13,4.74-4.62,11.14-7.46,18.13-7.46h57.82c14.1,0,25.59,11.49,25.59,25.59Z"/><g><path class="f" d="M215.51,118.19c0,7.33-5.95,13.28-13.28,13.28s-13.36-5.95-13.36-13.28,5.95-13.28,13.36-13.28c7.33,0,13.28,5.95,13.28,13.28Z"/><path class="f" d="M321.13,118.19c0,7.33-5.95,13.28-13.36,13.28s-13.28-5.95-13.28-13.28,5.95-13.28,13.28-13.28c7.42,0,13.36,5.95,13.36,13.28Z"/><circle class="f" cx="255" cy="118.19" r="13.28" transform="translate(-25.82 106.58) rotate(-22.5)"/></g><path class="f" d="M506.31,437.98H3.92c-2.17,0-3.92-1.76-3.92-3.92s1.76-3.92,3.92-3.92H506.31c2.17,0,3.92,1.76,3.92,3.92,0,2.17-1.76,3.92-3.92,3.92Z"/><path class="f" d="M416.32,208.53h-31.06c-2.17,0-3.92-1.76-3.92-3.92s1.76-3.92,3.92-3.92h31.07c2.17,0,3.92,1.76,3.92,3.92,0,2.17-1.76,3.92-3.93,3.92Z"/><path class="f" d="M416.32,229.77h-31.06c-2.17,0-3.92-1.76-3.92-3.92s1.76-3.92,3.92-3.92h31.07c2.17,0,3.92,1.76,3.92,3.92s-1.76,3.92-3.93,3.92Z"/><path class="f" d="M416.32,251.01h-31.06c-2.17,0-3.92-1.76-3.92-3.92s1.76-3.92,3.92-3.92h31.07c2.17,0,3.92,1.76,3.92,3.92s-1.76,3.92-3.93,3.92Z"/><path class="f" d="M416.32,272.26h-31.06c-2.17,0-3.92-1.76-3.92-3.92s1.76-3.92,3.92-3.92h31.07c2.17,0,3.92,1.76,3.92,3.92,0,2.17-1.76,3.92-3.93,3.92Z"/><path class="f" d="M123.68,208.53h-31.07c-2.17,0-3.92-1.76-3.92-3.92s1.76-3.92,3.92-3.92h31.07c2.17,0,3.92,1.76,3.92,3.92s-1.76,3.92-3.92,3.92Z"/><path class="f" d="M123.68,229.77h-31.07c-2.17,0-3.92-1.76-3.92-3.92s1.76-3.92,3.92-3.92h31.07c2.17,0,3.92,1.76,3.92,3.92s-1.76,3.92-3.92,3.92Z"/><path class="f" d="M123.68,251.01h-31.07c-2.17,0-3.92-1.76-3.92-3.92s1.76-3.92,3.92-3.92h31.07c2.17,0,3.92,1.76,3.92,3.92s-1.76,3.92-3.92,3.92Z"/><path class="f" d="M123.68,272.26h-31.07c-2.17,0-3.92-1.76-3.92-3.92s1.76-3.92,3.92-3.92h31.07c2.17,0,3.92,1.76,3.92,3.92s-1.76,3.92-3.92,3.92Z"/></svg>