<svg xmlns="http://www.w3.org/2000/svg" xmlns:xlink="http://www.w3.org/1999/xlink" width="38.72" height="38.72" viewBox="0 0 38.72 38.72">
  <defs>
    <clipPath id="clip-path">
      <path id="Path_135" data-name="Path 135" d="M0-341.5H38.72v-38.72H0Z" transform="translate(0 380.217)" fill="none"/>
    </clipPath>
  </defs>
  <g id="icon" transform="translate(0 0)">
    <g id="Group_252" data-name="Group 252" clip-path="url(#clip-path)">
      <g id="Group_249" data-name="Group 249" transform="translate(11.518 0)">
        <path id="Path_132" data-name="Path 132" d="M-69.161,0a7.843,7.843,0,0,0-5.545,2.3A7.842,7.842,0,0,0-77,7.842v3.676h11.6A4.085,4.085,0,0,1-61.319,15.6V27.2h3.676A7.841,7.841,0,0,0-52.1,24.9a7.842,7.842,0,0,0,2.3-5.545,7.842,7.842,0,0,0-2.3-5.545,7.842,7.842,0,0,0-5.545-2.3h-3.109a.567.567,0,0,1-.567-.567V7.842a7.842,7.842,0,0,0-2.3-5.545A7.843,7.843,0,0,0-69.161,0" transform="translate(77.003)" fill="#ff4d53"/>
      </g>
      <g id="Group_250" data-name="Group 250" transform="translate(0 11.518)">
        <path id="Path_133" data-name="Path 133" d="M-101.585-102.3v-11.6h-3.676a7.841,7.841,0,0,0-5.545,2.3,7.841,7.841,0,0,0-2.3,5.545,7.841,7.841,0,0,0,2.3,5.545,7.841,7.841,0,0,0,5.545,2.3h3.109a.567.567,0,0,1,.567.568v3.109a7.841,7.841,0,0,0,2.3,5.545,7.841,7.841,0,0,0,5.545,2.3,7.841,7.841,0,0,0,5.545-2.3,7.843,7.843,0,0,0,2.3-5.545v-3.676H-97.5a4.085,4.085,0,0,1-4.085-4.085" transform="translate(113.103 113.896)" fill="#4bcaca"/>
      </g>
      <g id="Group_251" data-name="Group 251" transform="translate(11.518 11.518)">
        <path id="Path_134" data-name="Path 134" d="M-102.3,0h-11.6V11.6a4.085,4.085,0,0,0,4.085,4.085h11.6V4.085A4.085,4.085,0,0,0-102.3,0" transform="translate(113.897)" fill="#a73e41"/>
      </g>
    </g>
  </g>
</svg>
