<svg id="Group_843" data-name="Group 843" xmlns="http://www.w3.org/2000/svg" xmlns:xlink="http://www.w3.org/1999/xlink" width="45.344" height="45.344" viewBox="0 0 45.344 45.344">
  <defs>
    <clipPath id="clip-path">
      <path id="Path_135" data-name="Path 135" d="M0-334.873H45.344v-45.345H0Z" transform="translate(0 380.217)" fill="#e8bcb9"/>
    </clipPath>
  </defs>
  <g id="Group_252" data-name="Group 252" clip-path="url(#clip-path)">
    <g id="Group_249" data-name="Group 249" transform="translate(13.489 0)">
      <path id="Path_132" data-name="Path 132" d="M-67.82,0a9.184,9.184,0,0,0-6.494,2.69A9.184,9.184,0,0,0-77,9.184v4.3H-63.42a4.784,4.784,0,0,1,4.784,4.784V31.856h4.3a9.183,9.183,0,0,0,6.494-2.69,9.184,9.184,0,0,0,2.69-6.494,9.184,9.184,0,0,0-2.69-6.494,9.184,9.184,0,0,0-6.494-2.69h-3.641a.664.664,0,0,1-.664-.664V9.183a9.184,9.184,0,0,0-2.69-6.493A9.185,9.185,0,0,0-67.82,0" transform="translate(77.003)" fill="#ffe7e5"/>
    </g>
    <g id="Group_250" data-name="Group 250" transform="translate(0 13.489)">
      <path id="Path_133" data-name="Path 133" d="M-99.614-100.313V-113.9h-4.305a9.183,9.183,0,0,0-6.494,2.69,9.183,9.183,0,0,0-2.69,6.494,9.183,9.183,0,0,0,2.69,6.494,9.182,9.182,0,0,0,6.494,2.69h3.641a.664.664,0,0,1,.664.665v3.641a9.183,9.183,0,0,0,2.69,6.494,9.183,9.183,0,0,0,6.494,2.69,9.183,9.183,0,0,0,6.494-2.69,9.185,9.185,0,0,0,2.69-6.494v-4.3H-94.83a4.784,4.784,0,0,1-4.784-4.784" transform="translate(113.103 113.896)" fill="#e2847e"/>
    </g>
    <g id="Group_251" data-name="Group 251" transform="translate(13.489 13.489)">
      <path id="Path_134" data-name="Path 134" d="M-100.314,0H-113.9V13.583a4.784,4.784,0,0,0,4.784,4.784H-95.53V4.784A4.784,4.784,0,0,0-100.314,0" transform="translate(113.897)" fill="#ffe7e5"/>
    </g>
  </g>
</svg>
