<?xml version="1.0" encoding="UTF-8"?><svg id="a" xmlns="http://www.w3.org/2000/svg" viewBox="0 0 510.24 510.24"><defs><style>.b{fill:#f0908a;}.c{fill:#fff;}.d{fill:#e2e2e2;}.e{fill:#6aa5a2;}.f{fill:#e0e9ed;}.g{fill:#703753;}.h{fill:#5e7588;}.i{fill:#79bdba;}.j{fill:none;stroke:#fff;stroke-miterlimit:10;stroke-width:25.41px;}.k{opacity:.3;}</style></defs><g><rect class="d" x="401.07" y="295.05" width="44.6" height="33.45" transform="translate(-96.46 390.68) rotate(-45)"/><rect class="d" x="445.51" y="273" width="16.42" height="16.86" transform="translate(-66.11 403.26) rotate(-45)"/><path class="b" d="M370.91,340.58c-2.1,2.1-2.1,5.52,0,7.62l16.03,16.03c2.1,2.1,5.52,2.1,7.62,0l24.86-24.86-23.65-23.65-24.86,24.86Z"/><path class="d" d="M367.22,357.98c-1.05,1.05-1.05,2.76,0,3.81l6.13,6.13c1.05,1.05,2.76,1.05,3.81,0l6.74-6.74-9.94-9.94-6.74,6.74Z"/><path class="i" d="M423.76,271.86c-2.42,2.42-2.42,6.36,0,8.78l30.74,30.74c2.42,2.42,6.36,2.42,8.78,0,2.42-2.42,2.42-6.36,0-8.78l-30.74-30.74c-2.42-2.42-6.36-2.42-8.78,0Z"/><path class="i" d="M449.82,257.13c-2.42,2.42-2.42,6.36,0,8.78l19.41,19.41c2.42,2.42,6.36,2.42,8.78,0,2.42-2.42,2.42-6.36,0-8.78l-19.41-19.41c-2.42-2.42-6.36-2.42-8.78,0Z"/><g class="k"><path class="d" d="M458.6,257.13c-2.42-2.42-6.36-2.42-8.78,0-.05,.05-.09,.11-.14,.17,.28,.99,.78,1.93,1.56,2.71l19.41,19.41c2.42,2.42,6.36,2.42,8.78,0,.05-.05,.09-.11,.14-.17-.28-.99-.78-1.93-1.56-2.71l-19.41-19.41Z"/></g><g><path class="h" d="M380.05,331.44l-2.32,2.32,5.16,5.16c.32,.32,.74,.48,1.16,.48s.84-.16,1.16-.48c.64-.64,.64-1.68,0-2.32l-5.16-5.16Z"/><path class="h" d="M388.49,323l-2.32,2.32,5.16,5.16c.32,.32,.74,.48,1.16,.48s.84-.16,1.16-.48c.64-.64,.64-1.68,0-2.32l-5.16-5.16Z"/><path class="h" d="M405.37,306.12l-2.32,2.32,5.16,5.16c.32,.32,.74,.48,1.16,.48s.84-.16,1.16-.48c.64-.64,.64-1.68,0-2.32l-5.16-5.16Z"/><path class="h" d="M418.97,302.84l-5.16-5.16-2.32,2.32,5.16,5.16c.32,.32,.74,.48,1.16,.48s.84-.16,1.16-.48c.64-.64,.64-1.68,0-2.32Z"/></g></g><circle class="g" cx="85.01" cy="55.67" r="27.72"/><circle class="b" cx="85.01" cy="55.67" r="10.08"/><path class="c" d="M85.3,115.14c-2.78,0-5.04-2.26-5.04-5.04V56.36c0-2.78,2.26-5.04,5.04-5.04s5.04,2.26,5.04,5.04v53.74c0,2.78-2.26,5.04-5.04,5.04Z"/><path class="c" d="M281.44,386l-11.94-11.94c-19.16-19.16-34.14-41.58-44.51-66.61-10.37-25.04-15.63-51.48-15.63-78.58v-48.22c0-26.13-21.26-47.39-47.39-47.39h-19.04v-8.58h19.04c30.86,0,55.97,25.11,55.97,55.97v48.22c0,52.56,20.47,101.97,57.63,139.13l11.94,11.94-6.06,6.06Z"/><g><rect class="f" x="341.12" y="376.9" width="15.28" height="19.8" transform="translate(321.87 906.93) rotate(-135)"/><path class="c" d="M285.26,374.99l19.31,17.37-10.3,10.3-17.37-19.31c-2.1-2.34-2.01-5.92,.22-8.14h0c2.22-2.22,5.8-2.32,8.14-.22Z"/><rect class="f" x="343.46" y="444.14" width="21.34" height="16.15" transform="translate(284.78 1022.39) rotate(-135)"/><path class="c" d="M287.88,410.46h66.78c3.71,0,6.72,3.01,6.72,6.72v6.67c0,3.71-3.01,6.72-6.72,6.72h-66.78c-2.42,0-4.39-1.97-4.39-4.39v-11.33c0-2.42,1.97-4.39,4.39-4.39Z" transform="translate(253.08 945.86) rotate(-135)"/><path class="c" d="M370.07,452.07h0c.97,.97,.97,2.55,0,3.53l-12.55,12.55c-.97,.97-2.55,.97-3.53,0h0c-.97-.97-.97-2.55,0-3.53l12.55-12.55c.97-.97,2.55-.97,3.53,0Z"/><path class="c" d="M324.63,384.14h19.8v26.28c0,4.15-3.37,7.52-7.52,7.52h-4.77c-4.15,0-7.52-3.37-7.52-7.52v-26.28h0Z" transform="translate(287.51 921.16) rotate(-135)"/><rect class="i" x="302.39" y="400.47" width="32.71" height="32.71" rx="9.73" ry="9.73" transform="translate(637.48 833.65) rotate(180)"/><circle class="e" cx="318.74" cy="416.82" r="7.58"/><path class="i" d="M291.45,382.76l22,22-6.77,6.77-22-22c-1.87-1.87-1.87-4.9,0-6.77h0c1.87-1.87,4.9-1.87,6.77,0Z"/><path class="c" d="M357.41,356.76h12.24c5.47,0,9.92,4.44,9.92,9.92v5.22c0,8.51-6.91,15.42-15.42,15.42h-1.22c-8.51,0-15.42-6.91-15.42-15.42v-5.22c0-5.47,4.44-9.92,9.92-9.92Z" transform="translate(357.51 892.16) rotate(-135)"/></g><line class="j" x1="85.3" y1="417.69" x2="85.3" y2="99.66"/><g><path class="i" d="M81.11,74.21h26.82v38.36h-26.82c-10.18,0-18.45-8.27-18.45-18.45v-1.46c0-10.18,8.27-18.45,18.45-18.45Z" transform="translate(178.68 8.08) rotate(90)"/><path class="i" d="M118.77,97.47c0-5.97-4.84-10.82-10.82-10.82h-11.93v21.63h11.93c5.97,0,10.82-4.84,10.82-10.82Zm-11.76,0c0-2.1,1.7-3.81,3.81-3.81s3.81,1.7,3.81,3.81-1.7,3.81-3.81,3.81-3.81-1.7-3.81-3.81Z"/><path class="c" d="M57.68,148.29v6.66h55.24v-6.66c0-2.18-.93-4.25-2.55-5.71l-2.72-2.44c-2.02-1.82-3.18-4.41-3.18-7.13v-16.99h-38.36v16.99c0,2.72-1.15,5.31-3.18,7.13l-2.72,2.44c-1.62,1.46-2.55,3.53-2.55,5.71Z"/><path class="c" d="M146.32,129.11h0c0-4.63-3.75-8.38-8.38-8.38h-39.29v16.76h39.29c4.63,0,8.38-3.75,8.38-8.38Z"/><rect class="i" x="75.14" y="127.41" width="20.32" height="55.24" rx="9.77" ry="9.77" transform="translate(240.33 69.72) rotate(90)"/></g><path class="i" d="M63.64,482.94c-.09-2.28,1.74-4.16,4.01-4.15,1.5,0,2.72-1.23,2.72-2.73v-17.87c0-1.51-1.22-2.73-2.73-2.73h-1.1c-4.49,0-7.9-4.02-7.18-8.45l8.53-51.88c.25-1.51,.98-2.9,2.06-3.99,1.35-1.36,2.1-3.2,2.1-5.12v-15c0-1.93,.77-3.78,2.13-5.14l1-1c1.36-1.36,2.13-3.21,2.13-5.14v-2.98c0-2.15,1.74-3.89,3.89-3.89h8.23c2.15,0,3.89,1.74,3.89,3.89v2.98c0,1.93,.77,3.78,2.13,5.14l1,1c1.36,1.36,2.13,3.21,2.13,5.14v15c0,1.89,.7,3.75,2.06,5.07,1.12,1.09,1.86,2.5,2.11,4.03l8.53,51.88c.73,4.43-2.69,8.45-7.17,8.45h-1.1c-1.51,0-2.73,1.22-2.73,2.73v17.87c0,1.5,1.21,2.74,2.72,2.73,2.27,0,4.1,1.87,4.01,4.15-.08,2.17-1.99,3.84-4.17,3.84h-34.99c-2.18,0-4.09-1.66-4.17-3.84Z"/></svg>