<?xml version="1.0" encoding="UTF-8"?><svg id="a" xmlns="http://www.w3.org/2000/svg" viewBox="0 0 510.24 510.24"><defs><style>.b{fill:#f6f0f5;}.c{fill:#f0908a;}.d{fill:#e2e2e2;}.e{fill:#6aa5a2;}.f{fill:#703753;}.g{fill:#5e7588;}.h{fill:#79bdba;}.i{fill:#4e6575;}.j{fill:none;stroke:#000;stroke-linecap:round;stroke-linejoin:round;stroke-width:5px;}.k{opacity:.3;}</style></defs><g><path class="b" d="M210.3,325.06c-25.71,0-49.87-10.01-68.05-28.19-37.52-37.52-37.52-98.58,0-136.1,18.18-18.18,42.34-28.19,68.05-28.19s49.87,10.01,68.05,28.19c37.52,37.52,37.52,98.58,0,136.1-18.18,18.18-42.34,28.19-68.05,28.19Z"/><path class="f" d="M335.08,331.15l-19.1-19.1c-3.26,4.12-6.7,8.14-10.51,11.95-3.81,3.81-7.82,7.25-11.95,10.51l19.1,19.1c-2.16,9.64,.43,20.12,7.93,27.62l85.92,85.92c11.64,11.64,30.5,11.63,42.14,0,11.64-11.64,11.64-30.5,0-42.14l-85.92-85.92c-7.5-7.5-17.98-10.09-27.62-7.93Z"/><path class="e" d="M210.3,94.21c-74.34,0-134.61,60.27-134.61,134.61s60.27,134.61,134.61,134.61,134.61-60.27,134.61-134.61-60.27-134.61-134.61-134.61Zm68.05,202.66c-18.18,18.18-42.34,28.19-68.05,28.19s-49.87-10.01-68.05-28.19c-37.52-37.52-37.52-98.58,0-136.1,18.18-18.18,42.34-28.19,68.05-28.19s49.87,10.01,68.05,28.19c37.52,37.52,37.52,98.58,0,136.1Z"/><g><path class="j" d="M185.49,180.99h-9.5c-7.31,0-13.23,5.93-13.23,13.23v9.5"/><path class="j" d="M260.18,203.72v-9.5c0-7.31-5.93-13.23-13.23-13.23h-9.5"/><path class="j" d="M237.45,278.41h9.5c7.31,0,13.23-5.93,13.23-13.23v-9.5"/><path class="j" d="M162.76,255.68v9.5c0,7.31,5.93,13.23,13.23,13.23h9.5"/></g></g><g><rect class="d" x="278.3" y="93.23" width="72.05" height="54.04" transform="translate(7.03 257.48) rotate(-45)"/><rect class="d" x="350.1" y="57.59" width="26.52" height="27.23" transform="translate(56.07 277.79) rotate(-45)"/><path class="c" d="M229.59,166.78c-3.4,3.4-3.4,8.91,0,12.31l25.9,25.9c3.4,3.4,8.91,3.4,12.31,0l40.16-40.16-38.21-38.21-40.16,40.16Z"/><path class="d" d="M223.62,194.89c-1.7,1.7-1.7,4.45,0,6.15l9.91,9.91c1.7,1.7,4.45,1.7,6.15,0l10.89-10.89-16.06-16.06-10.89,10.89Z"/><path class="h" d="M314.97,55.76c-3.92,3.92-3.92,10.27,0,14.19l49.66,49.66c3.92,3.92,10.27,3.92,14.19,0s3.92-10.27,0-14.19l-49.66-49.66c-3.92-3.92-10.27-3.92-14.19,0Z"/><path class="h" d="M357.06,31.97c-3.92,3.92-3.92,10.27,0,14.19l31.36,31.36c3.92,3.92,10.27,3.92,14.19,0,3.92-3.92,3.92-10.27,0-14.19l-31.36-31.36c-3.92-3.92-10.27-3.92-14.19,0Z"/><g class="k"><path class="d" d="M371.25,31.97c-3.92-3.92-10.27-3.92-14.19,0-.08,.08-.14,.18-.22,.27,.45,1.6,1.26,3.12,2.52,4.37l31.36,31.36c3.92,3.92,10.27,3.92,14.19,0,.08-.08,.14-.18,.22-.27-.45-1.6-1.26-3.12-2.52-4.37l-31.36-31.36Z"/></g><g><path class="i" d="M226.7,204.13l-42.07,42.07c-1.04,1.04-1.04,2.71,0,3.75,.52,.52,1.19,.78,1.87,.78s1.36-.26,1.87-.78l42.07-42.07-3.75-3.75Z"/><g><path class="g" d="M244.35,152.01l-3.75,3.75,8.33,8.33c.52,.52,1.19,.78,1.87,.78s1.36-.26,1.87-.78c1.04-1.04,1.04-2.71,0-3.75l-8.33-8.33Z"/><path class="g" d="M257.98,138.38l-3.75,3.75,8.33,8.33c.52,.52,1.19,.78,1.87,.78s1.36-.26,1.87-.78c1.04-1.04,1.04-2.71,0-3.75l-8.33-8.33Z"/><path class="g" d="M285.25,111.11l-3.75,3.75,8.33,8.33c.52,.52,1.19,.78,1.87,.78s1.36-.26,1.87-.78c1.04-1.04,1.04-2.71,0-3.75l-8.33-8.33Z"/><path class="g" d="M307.22,105.8l-8.33-8.33-3.75,3.75,8.33,8.33c.52,.52,1.19,.78,1.87,.78s1.36-.26,1.87-.78c1.04-1.04,1.04-2.71,0-3.75Z"/></g></g></g></svg>