<?xml version="1.0" encoding="utf-8"?>
<!-- Generator: Adobe Illustrator 23.0.3, SVG Export Plug-In . SVG Version: 6.00 Build 0)  -->
<svg version="1.1" id="圖層_1" xmlns="http://www.w3.org/2000/svg" xmlns:xlink="http://www.w3.org/1999/xlink" x="0px" y="0px"
	 viewBox="0 0 328.8 157.4" style="enable-background:new 0 0 328.8 157.4;" xml:space="preserve">
<style type="text/css">
	.st0{fill:#009844;}
</style>
<g>
	<g>
		<g>
			<g>
				<path class="st0" d="M75.3,9.4c0,0,0.2-0.6,0.7-1.2c0.8-0.9,0.4-1.7,0.4-1.7s1.3-1.2,1.7-2c0.4-0.8,1.7-1.9,1.9-2.2
					c0.1-0.4-0.1-0.6,0.2-0.7c0.3-0.1,0.5-0.2,1.7-0.4c1.2-0.3,2.5-0.4,3.1-0.6c0.6-0.2,1.2,0.2,1.4,0c0.2-0.2,0.9-0.2,1.2-0.4
					c0.2-0.1,1.2,0.2,1.5,0.4c0.4,0.1,1.4,0.3,1.6,0.2c0.2-0.1,0.4-0.2,0.4-0.2s0.2,0.4,0.4,0.2c0.3-0.2,0.6,0.2,0.9,0.1
					c0.3-0.2,0.3,0.4,0.7,0.3c0.4-0.1,1.2,0.1,1.2,0.1l0.4,0.3l0.4-0.2l0.3,0.5l0.3-0.2c0,0-0.2,0.1,0.6,0.5
					c0.8,0.4,1.3,0.4,1.3,0.4l0.3,0.4l0.5,0.1c0,0,0,0.1,0.5,0.2c0.5,0.1,0.7,0.3,0.7,0.3l0.1,0.3c0,0,0.5,0,1,0.1
					c0.4,0.1,0.4,0.6,0.4,0.6s0.4,0,0.5,0.3c0.1,0.3,0.2,0.4,0.2,0.4s0.7-0.1,1,0.2c0.2,0.3,0.4,0.8,0.4,0.8s0.2,0.4,0.6,0.6
					c0.4,0.2,0.7,0.4,0.7,0.4s0.3,0.1,0.3,0.5c0,0.4,0.2,0.6,0.2,0.6s0.5,0.4,0.7,0.7c0.2,0.4,0.4,0.4,0.4,0.4l0.4,0.4
					c0,0-0.1,0.2,0.2,0.4c0.3,0.2,0.5,0.4,0.5,0.4s-0.4,0.1-0.3,0.3c0.1,0.2,0.3,0.4,0.3,0.4s-0.2,0.3,0.1,0.4
					c0.3,0.1,0.2,0.2,0.4,0.4c0.2,0.2,0.5,0.4,0.5,0.7c0,0.2-0.4,0.2-0.1,0.5c0.3,0.3,0.5,0.1,0.5,0.1s-0.1,0.5,0,1
					c0.1,0.5,0.2,0.4,0.1,1c-0.1,0.6-0.3,0.6,0,0.9c0.3,0.3,0.3,0.4,0.3,0.7c0,0.3-0.4,0.4-0.4,0.8c0.1,0.4-0.3,0.9-0.1,1.4
					c0.2,0.5-0.1,0.7,0.1,1c0.1,0.2,0,0.5,0.1,0.9c0.1,0.4-0.1,0.9-0.1,1.2c0,0.2-0.4,0.2-0.3,0.5c0.2,0.2,0.2,0.6,0.2,0.9
					c0,0.3-0.5,0.2-0.4,0.6c0.1,0.3,0.3,0.5,0.2,0.7c-0.1,0.2-0.6,0.1-0.6,0.5c0,0.4-0.3,0.7-0.5,1.1c-0.2,0.3-0.5,0.4-0.7,0.7
					c-0.2,0.4-0.3,0.2-0.3,0.6c0,0.4-0.2,0.7-0.2,0.7s-0.1-0.4-0.4,0c-0.3,0.4,0.1,0.4-0.6,0.6c-0.7,0.2-0.8,0.2-1,0.5
					c-0.2,0.3-0.7,0.2-1.1,0c-0.4-0.1,0,0.3-0.3,0.3c-0.3,0-0.4,0-1-0.1c-0.6-0.1-0.5,0-1.2-0.1c-0.7-0.1-1.4-0.2-1.7-0.1
					c-0.4,0.1-0.2,0.1-0.7-0.1c-0.6-0.1-0.4-0.2-1.1-0.2c-0.7,0-0.6-0.2-1.1-0.2c-0.5,0.1-0.5-0.1-1-0.2c-0.4-0.1-0.2-0.4-0.6-0.4
					c-0.4,0-0.5-0.2-0.9-0.2c-0.4-0.1-0.9,0.2-1.2,0c-0.3-0.2-0.6-0.6-0.9-0.6c-0.3,0.1-0.1-0.3-0.4-0.3c-0.3,0-0.7-0.1-0.9-0.3
					c-0.3-0.1-0.5-0.3-0.9-0.3c-0.4,0-0.2-0.5-0.7-0.6c-0.4-0.1-0.7,0.2-1.1,0.1c-0.3-0.2,0-0.6-0.4-0.7c-0.4-0.1-0.7-0.6-1.1-0.7
					c-0.4-0.1-0.6-0.3-0.6-0.3s0.2-0.1-0.1-0.3c-0.3-0.2-0.5-0.8-1.1-0.8c-0.6,0-1-0.1-1-0.1v-0.4L82,23.1c0,0,0.2-0.3,0-0.4
					c-0.2-0.1-0.6,0-0.6,0S81.3,22.1,81,22c-0.3-0.1-1.1-0.3-1.1-0.3s0.3-0.4,0.2-0.6C80,20.8,80,20.5,80,20.5s-0.7-0.2-0.9-0.2
					c-0.2,0-0.1-0.6-0.5-0.8c-0.4-0.2-1.2-1.4-1.2-1.4l0.1-0.4h-0.6c0,0,0.1-0.6-0.4-0.7c-0.4-0.1-0.3-0.8-0.3-0.8l0.2-0.3L76,15.5
					l0.2-0.3L75.6,15l0-0.4c0,0-0.4-0.2-0.3-0.4c0.1-0.2-0.1-1.1-0.1-1.1h0.2L75,12.4l0.1-0.7l-0.3-0.3c0,0,0.1-0.2,0.3-0.4
					c0.2-0.2,0.3-0.8,0.3-0.8L75.3,9.4z"/>
				<path class="st0" d="M75.6,107.7l-0.1-0.3c-0.1-0.2,0-0.5,0-0.7c-0.1-0.2-0.2-0.3-0.3-0.5c-0.1-0.3-0.1-0.7-0.2-1
					c0-0.1-0.1-0.2-0.3-0.2l-0.2-0.5c-0.2-0.2-0.4-0.1-0.6-0.3c-0.3-0.3-0.4-0.3-0.7-0.5c-0.3-0.2-0.7-0.4-1.1-0.6
					c-0.1-0.1-0.2,0-0.4-0.1l-0.1-0.2c-0.2-0.1-0.5,0-0.7-0.1l-0.2-0.2c-0.1-0.1-0.3,0-0.4-0.1l-0.3-0.1c-0.1,0-0.3-0.1-0.4-0.1
					c-0.3,0-0.3-0.1-0.5-0.2c-0.2-0.1-0.5,0.1-0.8,0.1l-0.2-0.3H68c-0.2,0-0.3-0.2-0.4-0.3l-0.1-0.2l-0.3-0.1c-0.2-0.1-0.4,0-0.6,0
					l-0.2-0.2c-0.7,0-1-0.1-1.4-0.2c-0.7,0-0.6,0.1-1.4,0.2c0,0-0.1-0.2-0.4-0.2c-0.3-0.1-0.2-0.1-0.4,0l-0.1,0.1
					c-0.2,0.1-0.4,0-0.6,0.1l-0.1,0.1c-0.4,0.1-0.6,0.3-1,0.5c-0.2,0.1-0.5,0.1-0.7,0.2l-0.1,0.1c0,0.1,0,0.3-0.1,0.3l-0.3,0.1
					l-0.1,0.2l-0.2,0.1c-0.2,0.2-0.3,0.6-0.6,0.7c-0.1,0-0.2,0.2-0.3,0.3c-0.1,0.2,0,0.4-0.1,0.6c-0.1,0.3-0.4,0.5-0.5,0.8
					c-0.2,0.7,0,1.4-0.2,2.1c0,0.2-0.1,0.4-0.1,0.6l0.1,0.5c0,0.8,0.3,1,0.7,1.6c0.1,0.2,0,0.3,0,0.6l0.2,0.3c0.1,0,0.2,0.1,0.2,0.2
					c0.1,0.3,0.1,0.5,0.3,0.6c0.2,0.1,0.2,0.2,0.4,0.3c0.1,0.1,0.3,0.1,0.5,0.2l0.2,0.2c0.2,0.1,0.2,0,0.4,0.2l0.1,0.3l0.3,0
					c0.1,0.1,0.1,0.3,0.2,0.4l0.3,0.2c0,0,0.3,0,0.5,0l0.1,0.2h0.1l0.1,0.3c0.2,0.1,0.4,0,0.7,0.1l0.2,0.1c0.4,0.1,0.8-0.2,1.1-0.1
					l0.2,0.1c0.1,0,0.2,0.1,0.3,0.1h0.2c0.1,0.1,0.3,0.2,0.4,0.2c0.7,0.1,1.4,0.1,2,0.2l0.1,0.1l0.3,0l0.6,0c0.4,0,0,0,0.4-0.1
					l0.3-0.1c0.3-0.2,0.7,0,0.9-0.4c0.3,0,0.7,0.1,0.9,0c0.2-0.1,0.5-0.1,0.7-0.3c0.2-0.2,0.4-0.4,0.6-0.5c0.2-0.1,0.5-0.2,0.6-0.4
					c0-0.1,0.1-0.3,0.1-0.4c0-0.1,0.2-0.1,0.3-0.2l0.1-0.3c0.1-0.2,0.3-0.1,0.4-0.3c0-0.1,0.1-0.2,0.1-0.3c0.1-0.2,0.4-0.3,0.5-0.5
					l0-0.3c0.3-0.3,0.3-0.6,0.5-1c0.1-0.2,0-0.4,0-0.6c0.1-0.1,0.1-0.2,0.2-0.3C75.6,108.5,75.6,108.1,75.6,107.7"/>
				<path class="st0" d="M49.7,132.7l0.3-0.3c0.1-0.3,0.3-0.4,0.6-0.5c0.2-0.1,0.4,0,0.6-0.1c0.2-0.1,0.4-0.3,0.6-0.2
					c0.2,0.1,0.4,0.3,0.6,0.2l0.2-0.1c0.3-0.1,0.5,0,0.7,0c0.2-0.1,0.3-0.2,0.5-0.3c0.3-0.1,0.6,0,0.8-0.1c0.2-0.1,0.4-0.1,0.6-0.2
					c0.2-0.1,0.3-0.2,0.5-0.3l0.2-0.2c0.2-0.1,0.5,0,0.8,0c0.1,0,0.2-0.2,0.3-0.2c0.1-0.1,0.4,0,0.5-0.1c0.2-0.1,0.2-0.4,0.3-0.4
					c0.1-0.1,0.3,0,0.5-0.1l0.3,0c0.1,0,0.2-0.2,0.2-0.4l0.2-0.2c0.3-0.2,0.6-0.3,0.9-0.5c0.1,0,0.2-0.2,0.3-0.3
					c0.1-0.2,0.3-0.2,0.5-0.3l0.3-0.1l0.2-0.2c0.1-0.1,0.3-0.2,0.4-0.2c0.4-0.1,0.3-0.3,0.6-0.5c0.1-0.1,0.3,0,0.5-0.1
					c0.2-0.1,0.5-0.1,0.8-0.2c0.2-0.1,0.3-0.2,0.5-0.3c0.1-0.1,0.3-0.2,0.4-0.2c0.3-0.1,0.6-0.2,0.8-0.3c0.4-0.1,0.8,0,1.1-0.1
					c0.4-0.1,0.4-0.1,0.8,0c0.1,0.1,0.6,0.1,0.8,0.1c0.1,0.1,0.3,0.1,0.4,0.2c0.2,0.2,0.5,0.2,0.7,0.5c0.3,0.5,0.6,0.8,0.9,1.2
					c0.2,0.4,0.6,0.6,0.8,1c0.2,0.3,0.1,0.6,0.2,0.9l0.2,0.3v0.2l0.1,0.2c0.2,0,0.3,0.1,0.3,0.2c0.1,0.2,0,0.5,0.1,0.7l0.1,0.1
					c0.2,0.2,0,0.5,0.1,0.7c0.1,0.2,0.2,0.3,0.2,0.6c0.1,0.2,0.3,0.2,0.4,0.4c0.1,0.1,0,0.3,0,0.5c0.2,0.3,0.4,0.7,0.5,1.1l0.1,0.1
					v0.2c0.2,0.4,0.5,0.7,0.5,1.1l0.1,0.1c0,0.6,0.2,1.1,0.1,1.7c0,0.2-0.3,0.3-0.3,0.4c-0.2,0.4-0.4,0.7-0.6,1.1
					c-0.3,0.6-0.8,1.1-1.4,1.4c-0.1,0.1-0.3,0.2-0.5,0.2l-0.1,0.1c0.1,0.4-0.3,0.6-0.6,0.9c-0.1,0.2-0.5,0.2-0.6,0.4
					c-0.1,0.2-0.3,0.4-0.6,0.6c-0.2,0.1-0.4,0.1-0.6,0.3l-0.5,0.3c-0.3,0.2-0.6,0.4-0.9,0.6c-0.2,0.1-0.3,0-0.5,0
					c-0.2,0.1-0.2,0.3-0.4,0.4c-0.1,0.1-0.4,0-0.6,0c-0.1,0.3-0.5,0.3-0.6,0.6l-0.1,0.2c-0.2,0.1-0.4,0-0.6,0l-0.3,0.2
					c-0.2,0-0.2-0.1-0.3-0.1l-0.3,0.3c0.1-0.1-0.1,0.2-0.4,0.2c-0.3,0-0.3,0.1-0.5-0.1c-0.1-0.1,0-0.2-0.1-0.1l-0.3,0.1
					c-0.4,0.1-0.7,0.1-1.1,0c-0.3-0.1-0.6,0-0.9-0.1l-0.1-0.1c-0.4,0-0.7,0-1-0.1c-0.2-0.1-0.4-0.1-0.6,0c-0.2,0.1-0.5,0.1-0.7,0
					c-0.2-0.1-0.6,0.1-0.8-0.1c-0.2-0.1-0.2-0.4-0.4-0.4c-0.4-0.1-0.8,0-1.2-0.1c-0.3-0.1-0.6,0-0.8,0c-0.2-0.1-0.5-0.2-0.7-0.3
					c-0.5-0.3-1-0.3-1.4-0.6c-0.2-0.1-0.5-0.3-0.7-0.5c-0.2-0.2-0.3-0.3-0.4-0.5c-0.1-0.2-0.4-0.5-0.8-0.5c-0.3-0.3-0.6-0.5-0.9-0.9
					l-0.1-0.3c-0.1-0.1-0.3-0.3-0.3-0.4c-0.1-0.4-0.2-0.7-0.5-1c-0.1-0.1,0-0.3-0.1-0.5c0-0.1-0.2-0.1-0.2-0.2
					c-0.1-0.4-0.1-0.8-0.2-1.2c-0.1-0.4-0.1-0.9,0-1.3c0.1-0.5,0.1-0.9,0.3-1.3c0.2-0.3,0.5-0.6,0.6-0.9c0.2-0.3,0.4-0.7,0.5-1
					c0.1-0.1,0-0.3,0.1-0.5l0.3-0.2C49.4,133.2,49.6,132.7,49.7,132.7"/>
				<path class="st0" d="M127.1,99.7c0.3-0.2,0.6-0.2,0.9-0.2l0.1-0.1h0.1l0.2-0.1c0.3-0.1,0.6-0.1,0.9,0v0.1
					c0.2,0.1,0.4,0.1,0.6,0.1l0.1,0.2c0.2,0.1,0.2,0.1,0.5,0.2c0.2,0,0.5-0.1,0.7,0l0.4,0.3c0.2,0.2,0.3-0.1,0.6-0.1l0.3,0.2
					l0.1,0.2c0.2,0.1,0.4,0,0.6,0c0.1,0.1,0.3,0,0.4,0.2c0.2,0.2,0.2,0.5,0.5,0.6c0.2,0,0.5,0,0.8,0l0.3,0.3
					c0.2,0.3,0.5,0.3,0.9,0.3c0.1,0.4,0.1,0.2,0.3,0.3l0.2,0.1l0.3,0c0.2,0.1,0.1,0.4,0.3,0.5c0.1,0.1,0.3,0,0.4,0.1
					c0.1,0.2,0.3,0.3,0.4,0.4c0.2,0.1,0.1,0.3,0.2,0.5c0.1,0.1,0.2,0.1,0.3,0.2l0.4,0.2c0.3,0.2,0.2,0.5,0.3,0.8
					c0.1,0.2,0.4,0.3,0.5,0.4c0.2,0.2,0.2,0.4,0.2,0.7c0,0.2-0.1,0.5,0,0.6c0.2,0.3,0.2,0.7,0.2,1c0,0.1-0.2,0.2-0.1,0.3h0.1
					c0,0.2,0,0.3,0,0.5c0.1,0.2,0.1,0.4,0,0.6c-0.1,0.1-0.2,0.2-0.2,0.4c0.2,0.4,0.2,0.9,0.1,1.4l-0.2,0.3c-0.1,0.2-0.3,0.2-0.5,0.4
					c-0.2,0.2-0.2,0.6-0.5,0.7c-0.2,0.1-0.4,0-0.5,0.2c-0.2,0.2-0.3,0.6-0.6,0.7c-0.2,0.1-0.4,0.4-0.6,0.5h-0.3
					c-0.1,0-0.2,0.3-0.3,0.3c-0.3,0.1-0.4,0.2-0.7,0.2c-0.5,0.1-1.1,0.1-1.6,0c-0.5-0.1-1,0.1-1.4-0.1c-0.3-0.1-0.7,0-1.1,0
					c-0.1-0.2-0.3-0.3-0.5-0.2c-0.3,0.1-0.5-0.1-0.8-0.2c-0.3-0.1-0.5,0.1-0.8,0c-0.1-0.1-0.3-0.1-0.4-0.2c-0.2-0.2-0.3,0-0.5-0.1
					l-0.2-0.1c-0.1-0.1-0.2-0.1-0.3-0.1c0-0.2-0.2-0.3-0.3-0.3c-0.5-0.1-0.8-0.1-1.3-0.2c0-0.1-0.2-0.3-0.2-0.3
					c-0.2-0.2-0.4-0.4-0.6-0.5c-0.2-0.1-0.4-0.1-0.6-0.2c-0.2,0-0.2-0.2-0.3-0.3c-0.1-0.3-0.2-0.3-0.3-0.6l-0.4-0.1
					c-0.2-0.1-0.2-0.4-0.4-0.6v-0.2l-0.1-0.2c-0.1-0.2-0.3-0.4-0.3-0.6c-0.1-0.1,0-0.3,0-0.5c0-0.2-0.2-0.3-0.3-0.4l-0.2-0.4
					c-0.2-0.2-0.2,0-0.3-0.3c0-0.4-0.1-0.5,0-0.9c0-0.1,0.1-0.3,0.2-0.5v-0.5c0.1-0.2,0.2-0.3,0.2-0.4c0.1-0.3-0.1-0.6,0.1-0.9
					c0.2-0.2,0.5-0.3,0.4-0.6c0.3-0.2,0.4-0.5,0.5-0.8h0.1c0.3-0.3,0.6-0.6,0.9-0.9c0.4-0.4,0.8-0.8,1.2-1.2
					C126.7,100.3,126.8,99.9,127.1,99.7"/>
				<path class="st0" d="M129.8,128.4c0.2,0,0.3,0.1,0.5,0c0.4-0.2,0.8,0,1.1,0.2c0.1,0.1,0.3,0,0.4,0l0,0.1c0.3,0,0.6,0.1,0.9-0.1
					c0.3-0.1,0.5,0.2,0.7,0.4c0.1,0.1,0.3,0.1,0.4,0.1c0.2,0.1,0.3,0,0.5,0.1c0.2,0.2,0.4,0.3,0.7,0.4c0.2,0.1,0.4,0,0.7,0.1
					c0.1,0.1,0.2,0.3,0.3,0.3c0.2,0.1,0.4,0.2,0.6,0.2c0.2,0.1,0.2,0.1,0.5,0.2c0.2,0.1,0.4,0.3,0.5,0.4c0.1,0.1,0.4,0,0.6,0.2
					c0.2,0.1,0.3,0.3,0.5,0.3c0.1,0.1,0.2,0.2,0.3,0.3l0.2,0.1c0.1,0.1,0.2,0.2,0.3,0.4l0.3,0c0.2-0.1,0.3,0.1,0.4,0.3
					c0,0.1,0.2,0,0.3,0c0.2,0.1,0.1,0.2,0.2,0.3c0,0.1,0.2,0.2,0.3,0.2c0.2,0,0.3,0,0.4,0.1l0.1,0.2l0.1,0.3
					c0.2,0.1,0.4,0.2,0.6,0.3c0.2,0.2,0.4,0.4,0.6,0.5l0.3,0.1c0.2,0.1,0.3,0.2,0.4,0.4c0.1,0.2,0,0.4,0.1,0.5
					c0.1,0.2,0.1,0.5,0.2,0.6l0.3,0.2c0.1,0.1,0,0.3,0.1,0.4c0.1,0.1,0.4,0,0.5,0.1c0.1,0.2,0,0.4,0.1,0.6c0.1,0.2,0.2,0.3,0.3,0.5
					c0.1,0.2,0,0.3,0.1,0.4l0.2,0.1c0,0.5,0.2,1.1,0,1.6c0,0.1-0.2,0.2-0.2,0.3c-0.1,0.6,0,1.3-0.1,1.9c-0.1,0.4-0.3,0.8-0.5,1.2
					c-0.2,0.7-0.3,1.4-0.7,2l-0.1,0.1c-0.1,0.2,0,0.5-0.2,0.6c-0.1,0.2-0.4,0.2-0.5,0.4l-0.3,0.2c-0.1,0.2-0.1,0.3-0.2,0.4
					c-0.1,0.1-0.2,0-0.3,0c0,0.2,0,0.4-0.1,0.4c-0.2,0.1-0.6-0.1-0.8,0.1c-0.2,0.2,0,0.5-0.1,0.7c-0.1,0.3-0.5,0.4-0.7,0.6
					c-0.3,0.2-0.5,0.5-0.8,0.6c-0.3,0.1-0.7,0-1,0.1c-0.1,0.4-0.6,0.1-0.8,0.2l-0.1,0.1c-0.5,0-1-0.1-1.5-0.2
					c-0.4-0.1-0.8-0.2-1.2-0.4c-0.2-0.1-0.5-0.2-0.7-0.3c-0.3-0.1-0.6,0-0.9,0c-0.3-0.6-1.1-0.5-1.6-0.5l-0.2-0.1
					c-0.1-0.2-0.2-0.4-0.4-0.4c-0.2-0.1-0.5-0.1-0.8-0.2c-0.4-0.1-0.7-0.3-1-0.6L129,147c-0.1,0-0.2,0-0.4,0
					c-0.3-0.1-0.6-0.2-0.9-0.3c-0.3-0.1-0.5-0.1-0.8-0.2c-0.3-0.1-0.6-0.3-0.9-0.5c-0.3-0.2-0.6-0.3-0.9-0.5l-0.2,0
					c-0.1-0.2-0.2-0.3-0.2-0.6h-0.2l0,0.1c-0.4,0.1-0.5-0.3-0.8-0.4c-0.3-0.2-0.6-0.4-0.9-0.5l-0.2-0.1c-0.4-0.3-0.6-0.8-0.7-1.3
					c0-0.2-0.3-0.2-0.4-0.3c-0.3-0.4-0.6-0.9-0.8-1.4c-0.1-0.2-0.2-0.2-0.4-0.4c-0.2-0.2-0.3-0.4-0.5-0.6c-0.2-0.1-0.4-0.2-0.6-0.4
					c-0.2-0.3-0.5-0.4-0.6-0.7c-0.2-0.4-0.6-0.5-0.8-0.8l-0.1-0.3c-0.1-0.1-0.2-0.2-0.3-0.3c-0.2-0.2-0.1-0.5-0.2-0.7
					c-0.1-0.2-0.3-0.3-0.3-0.5c-0.1-0.3,0-0.6,0.1-0.9c0.2-0.7,0.1-1.4,0.2-2c0-0.2,0.2-0.2,0.2-0.3c0.1-0.3,0.2-0.6,0.2-1
					c0-0.2,0.3-0.4,0.3-0.6c0.1-0.2,0.1-0.5,0.2-0.7l0.2-0.1c0.2-0.1,0.6,0,0.8-0.1c0.1-0.1,0.2-0.2,0.2-0.3c0.1-0.1,0.3,0,0.4-0.1
					c0.1,0,0.2-0.2,0.3-0.3h0.2c0.2-0.2,0.4-0.3,0.6-0.5c0.2-0.1,0.5,0,0.7-0.1c0.1-0.4,0.6-0.3,0.8-0.6c0.7,0,1.5,0,2.3,0l0.2-0.1
					c1,0,2,0,3.1,0c0.1,0,0.3,0.1,0.4,0c0.3-0.3,0.7-0.2,1.1,0.1C129.5,128.7,129.6,128.5,129.8,128.4L129.8,128.4z"/>
				<path class="st0" d="M179.3,92.3l0.2-0.2c0.1,0,0.3,0,0.4-0.1l0.3-0.3c0.2-0.2,0.5-0.3,0.7-0.4l0.3-0.1c0.2-0.1,0.4-0.1,0.5-0.2
					h0.2c0.3-0.3,0.6-0.7,0.9-1.1c0.2-0.2,0.4-0.3,0.6-0.4c0.2-0.1,0.4,0,0.6,0c0.2-0.1,0.4-0.3,0.6-0.4c0.2-0.1,0.2-0.4,0.4-0.6
					l0.3-0.1c0.3-0.1,0.5-0.4,0.7-0.7l0.1-0.1l0.2-0.1l0.2-0.3h0.3c0.1-0.1,0.2-0.2,0.3-0.3l0.1,0c0-0.1,0.1-0.2,0.2-0.3l0.1-0.1
					c0-0.1,0.1-0.1,0.2-0.2c0.1-0.1,0.2-0.1,0.4-0.1l0.3-0.2l0.2-0.1c0.2-0.2,0.3-0.5,0.5-0.7h0.1c0.3-0.3,0.7-0.4,1-0.8
					c0.1-0.1,0.2-0.3,0.4-0.4c0.3-0.3,0.4-0.6,0.6-0.9c0.1-0.2,0.2-0.3,0.4-0.4c0.1-0.2,0.2-0.4,0.3-0.6l0.2-0.1
					c0.1,0,0.2-0.1,0.3-0.2l0.1-0.3c0.1-0.1,0.3-0.1,0.4-0.2c0.1-0.1,0.2-0.2,0.2-0.3l0.2-0.1l0.1-0.3c0.1-0.1,0.2-0.2,0.3-0.3
					c0.1-0.1,0.2-0.2,0.2-0.4l0.1-0.1c0-0.1,0.1-0.2,0.1-0.4c0-0.2,0.1-0.3,0.3-0.4c0.1-0.1,0.1-0.2,0.2-0.4c0-0.1,0.2-0.1,0.2-0.2
					c0.1-0.2,0.1-0.4,0.2-0.5c0.1-0.2,0.4-0.4,0.3-0.7c0.2-0.1,0.3-0.3,0.5-0.4c0,0,0.1-0.2,0.1-0.3l0.2-0.1c0.1-0.2,0-0.4,0.1-0.6
					c0.1-0.1,0.3-0.1,0.4-0.2c0.1-0.1,0.3-0.2,0.3-0.3c0.1-0.5,0.1-0.9,0.1-1.4c0.1-0.3,0-0.6,0.1-0.9c0.2-0.2,0.3-0.5,0.4-0.7
					c0-0.5-0.1-0.9,0.1-1.4c0.1-0.2,0.2-0.6,0.2-0.8c0-0.2,0.2-0.3,0.2-0.4c0.1-0.4,0.1-0.8,0.2-1.1c0.1-0.4,0.1-0.8,0.1-1.2
					c0-0.4,0-0.8,0-1.2l-0.1,0c-0.1-0.3,0-0.7,0-1l-0.1-0.1c0-0.2,0-0.5,0-0.8h-0.1c-0.1-0.2-0.1-0.4-0.2-0.6c0-0.1,0-0.3,0-0.4
					l-0.2-0.1c-0.1-0.1-0.1-0.4-0.2-0.5c-0.2-0.2-0.5-0.2-0.8-0.2c-0.1-0.5-0.7-0.4-1.1-0.3c-0.2,0-0.3,0.2-0.5,0.3
					c-0.2,0.1-0.5,0-0.7,0.1c-0.1,0-0.2,0.1-0.3,0.1l-0.3,0.1c-0.2,0.2-0.5,0.3-0.6,0.6c-0.1,0.1-0.1,0.3-0.2,0.5
					c-0.1,0.1-0.2,0.2-0.4,0.2c-0.2,0.1-0.5,0-0.8,0c0.3,0,0.5,0,0.8,0v0.1c-0.6,0-1.2-0.2-1.6,0.2c-0.1,0.1-0.2,0.2-0.2,0.4
					l-0.2,0.2c-0.1,0.1-0.1,0.2-0.1,0.3c-0.1,0.2-0.3,0.2-0.4,0.3c-0.1,0.2-0.2,0.4-0.4,0.6v0.2c-0.2,0.1-0.2,0.3-0.3,0.4l-0.2,0
					c-0.1,0.1-0.2,0.3-0.3,0.4l-0.3,0.1c-0.2,0.2-0.3,0.4-0.4,0.6l-0.2,0.2c-0.2,0.1-0.5,0-0.6,0.1l-0.1,0.2l-0.2,0
					c-0.1,0.2-0.1,0.4-0.2,0.6c-0.1,0.1-0.3,0-0.4,0.1l-0.1,0.2c-0.1,0-0.2,0-0.3,0.1c-0.1,0.1-0.2,0.2-0.3,0.2
					c-0.1,0.1,0,0.2-0.2,0.3l-0.3,0l-0.1,0.2l-0.2,0l-0.1,0.2c-0.2,0.2-0.5,0.3-0.4,0.6l-0.1,0.1h-0.3c-0.2,0-0.1,0.3-0.2,0.3
					c-0.2,0.2-0.5,0.3-0.7,0.6h-0.1l-0.1,0.2c-0.1,0.2-0.2,0.3-0.5,0.2l0-0.1c-0.2-0.1-0.3,0.1-0.4,0.3c-0.1,0.1-0.2,0-0.4,0
					l-0.2,0.2l-0.2,0c-0.1,0.1,0,0.4-0.1,0.4c-0.2,0-0.3,0.2-0.5,0.4l-0.3,0.1l-0.1,0.2v0.2l-0.1,0.1c-0.2,0-0.5-0.1-0.6,0.1
					c-0.2,0.4-0.6,0.4-0.9,0.6c-0.1,0-0.2,0.1-0.3,0.2c0,0.1-0.1,0.3-0.1,0.3c-0.2,0.1-0.3,0-0.5,0.1c-0.2,0.1-0.3,0.3-0.4,0.3
					c-0.1,0-0.3,0-0.5,0.1c-0.4,0.3-0.7,0.6-1.2,0.7c-0.3,0.1-0.5,0-0.7,0.1l-0.3,0.2h-0.2c-0.1,0-0.2,0-0.4,0.1
					c-0.1,0.1-0.1,0.3-0.3,0.3c-0.2,0.1-0.4,0-0.5,0.1c-0.1,0-0.1,0.2-0.1,0.4l-0.1,0.1l-0.4,0.1c-0.4,0.2-0.6,0.4-1,0.6
					c-0.1,0-0.3,0.1-0.4,0.2c-0.1,0-0.2,0.2-0.3,0.3c-0.1,0-0.3,0.1-0.4,0.1c-0.2,0.1-0.4,0.2-0.5,0.4l-0.2,0.1c-0.2,0-0.4,0-0.5,0
					l-0.2,0.2c-0.2,0-0.3,0-0.5,0l-0.1,0.1c-0.1,0-0.3,0-0.4,0c-0.3,0.1-0.4,0.4-0.6,0.5c-0.1,0.1-0.3,0-0.4,0v0.1
					c-0.2,0-0.4,0-0.7-0.1l-0.2,0c-0.2,0.2-0.3,0.3-0.6,0.3c-0.1,0-0.2,0.3-0.2,0.3c-0.4,0.1-0.8,0-1.1,0.1l-0.2,0.3
					c-0.3,0-0.6-0.1-0.8,0.1c-0.2,0.1-0.2,0.4-0.4,0.5c-0.2,0.1-0.4,0-0.6,0.1l-0.1,0.2L162,83c-0.2,0.1-0.3,0.2-0.5,0.3
					c-0.2,0.1-0.2,0.3-0.2,0.5c0,0.1-0.2,0.1-0.4,0.1c-0.2,0.1-0.5,0.2-0.6,0.4c-0.1,0.2-0.2,0.4-0.3,0.6l-0.1,0.1
					c-0.2,0.4,0.2,1-0.2,1.2c0,0.7,0.1,1.4,0,2.1c0,0.2,0,0.5-0.1,0.6l-0.3,0.2v0.2c0.4,0.2,0.1,0.7,0.3,1c0.1,0.2,0.3,0.2,0.5,0.3
					c-0.1,0-0.2,0.3-0.3,0.5c-0.1,0.1-0.1,0.2,0,0.3l0.1,0c0.1,0.1,0.2,0.2,0.2,0.3c0,0.7,0.1,1.4,0.2,2.1l0.1,0.2
					c0.1,0.2,0,0.4,0.1,0.6l0.2,0.2l0.1,0.2c0,0.1,0,0.2,0,0.4c0.1,0.1,0.2,0.1,0.3,0.2l0,0.2c0.2,0.1,0.3,0.2,0.5,0.4h0.1
					c0.1,0.2,0.3,0.1,0.4,0.2l0,0.2h0.3l0.1,0.1c0.2,0,0.5,0.1,0.7,0c0.1-0.1,0.1-0.3,0.2-0.3c0.2-0.1,0.2,0.1,0.3,0.2h0.1v0v0h0.1
					l0.1-0.2c0.5,0,1-0.1,1.5,0.1l0.1,0.1c0.1,0,0.2-0.1,0.3-0.1c0.2-0.1,0.4,0,0.6-0.1l0-0.2c0.2-0.1,0.5,0,0.7,0
					c0-0.3,0.4-0.2,0.7-0.2v-0.2c0.1-0.1,0.3-0.1,0.4-0.1c0.2-0.1,0.5-0.2,0.8-0.3l0.2-0.2l0.3-0.1c0.3-0.1,0.7-0.1,1-0.3h0.2
					c0.1-0.1,0.2-0.2,0.3-0.3c0.2-0.2,0.5,0,0.6-0.1c0.2-0.1,0.5-0.2,0.7-0.1c0.2,0,0.4,0.1,0.5,0c0.2-0.1,0.3-0.3,0.4-0.5
					c0.1-0.1,0.2,0,0.4,0l0.1-0.2c0.3-0.2,0.5,0,0.8-0.1c0.2-0.1,0.3-0.3,0.5-0.3c0.3-0.2,0.6-0.2,0.9-0.3h0.2l0.2-0.2
					c0.2-0.2,0.5-0.1,0.8-0.2v-0.2c0.5-0.1,0.9,0.1,1.3,0l0.1-0.1c0.2,0,0.4-0.1,0.6-0.1l0.2-0.1H179.3L179.3,92.3"/>
				<path class="st0" d="M108.4,72.2c0.2-0.1,0.4-0.1,0.7-0.2c0,0.2,0.2,0.4,0.1,0.6c-0.3,0.2-0.5,0.5-0.6,0.8
					c-0.1,0.2-0.3,0-0.5,0.1l0,0.1c-0.2,0-0.3,0.1-0.5,0v-0.2l0.2-0.3c0-0.3,0.2-0.6,0.1-0.9l-0.1,0V72c0.1-0.1,0.3-0.1,0.4-0.1
					C108.2,72,108.3,72.2,108.4,72.2 M109.2,62c0.2-0.1,0-0.5,0.1-0.7c0.1-0.2,0.1-0.3,0.1-0.5c0-0.4,0.2-0.7,0.2-1.1
					c-0.3-0.3-0.1-0.8,0-1.3l0.1-0.2c0.1-0.3,0.2-0.6,0.3-0.9l0-0.2c0.5-0.5,1.2-0.5,1.8-0.8c0.2-0.1,0.4-0.1,0.5-0.3
					c0.2-0.1,0.3-0.1,0.4-0.2h0.2c0.5-0.2,0.9-0.3,1.4-0.5c0.5-0.2,1.1-0.2,1.6-0.2c0.3-0.3,0.8-0.3,1.2-0.4c0.2,0,0.4,0,0.5-0.1
					c0.2-0.1,0.4-0.3,0.6-0.3c1.3-0.3,2.5-0.4,3.8-0.3c0.3,0,0.6,0,0.9,0c0.5-0.1,1-0.1,1.4,0c0.2,0,0.5,0.1,0.7,0.1
					c0.5,0.1,0.9,0.1,1.4,0.2c0.4,0.1,0.7,0.1,1.1,0.2c0.5,0.1,0.8,0.2,1.3,0.3c0.4,0.1,0.7,0.2,1.1,0.4c0.4,0.3,0.9,0.3,1.3,0.6
					c0.1,0.1,0.7,0.4,0.8,0.5c1,0.7,1.1,1.1,1.5,1.5c0.8,1,1.4,2,2,3.1c0.1,0.1,0.1,0.2,0.1,0.3c0.1,0.2,0.1,0.3,0.2,0.4
					c0.2,0.4,0.5,0.8,0.5,1.3c0.5,0.9,0.8,1.9,1,2.8c0.1,0.2,0.1,0.5,0.1,0.7c0.1,1.1,0.1,2.1,0.2,3.1c0,0.4,0.1,0.8,0,1.3l-0.1,0.3
					c-0.2,0.9-0.1,1.7-0.3,2.6c0,0,0,0.1-0.1,0.2c0,0.2,0,0.4,0,0.7c-0.1,0.6-0.3,1.1-0.5,1.6c-0.1,0.2,0,0.5-0.1,0.7
					c-0.1,0.3-0.1,0.5-0.3,0.8l-0.2,0.3c-0.1,0.3-0.1,0.5-0.1,0.8c-0.2,0.6-0.4,1.3-0.6,1.9c-0.2,0.4-0.4,0.8-0.6,1.2V82h-0.1
					c-0.1,0.1-0.1,0.2-0.1,0.4c-0.1,0.3-0.2,0.5-0.3,0.7l-0.1,0.3c-0.3,0.7-0.7,1.3-1.2,1.9v0.2h-0.1l-0.1,0.2
					c-0.1,0.1-0.2,0.2-0.3,0.4c-0.2,0.4-0.5,0.8-0.8,1.2c-0.7,1-1.4,1.8-2.1,2.7c-0.2,0.2-0.5,0.2-0.6,0.4l-0.1,0.2
					c-0.1,0.2-0.2,0.4-0.3,0.6c-0.2,0.2-0.4,0.3-0.6,0.4c-0.3,0.3-0.5,0.6-0.9,0.6c-0.5,0.5-0.9,1.2-1.7,1.2c-0.1,0-0.3,0.2-0.4,0.3
					c-0.2,0.1-0.3,0.1-0.5,0c-0.3-0.1-0.7,0-0.9-0.3c-0.2-0.4-0.6-0.6-0.9-0.9c-0.1-0.1-0.2-0.1-0.2-0.1l-0.2-0.3l-0.1,0
					c0-0.3,0.1-0.6,0-1c-0.2,0-0.3-0.1-0.4-0.1c-0.2-0.3,0-0.7-0.1-1.1c-0.1-0.3-0.2-0.5-0.4-0.6c0-0.5,0.1-0.8-0.2-1.2
					c-0.1-0.1-0.2-0.2-0.3-0.3l0,0l-0.1,0l-0.1,0l0,0l-0.1-0.1l-0.2-0.1c-0.3-0.4-0.7-0.3-0.9-0.8c-0.1-0.3-0.3-0.1-0.6-0.2
					c-0.1,0-0.1-0.3-0.2-0.3c-0.2,0-0.3-0.1-0.5,0c-0.1,0-0.3,0.2-0.4,0.1l-0.3-0.3c-0.1,0-0.4,0-0.5,0c-0.2-0.1-0.4-0.1-0.7,0
					c-0.1,0-0.2,0.1-0.4,0.2c-0.1,0.1-0.3,0.1-0.4,0c-0.1-0.1-0.5-0.1-0.4-0.3c0.2-0.3-0.2-0.4-0.3-0.4c-0.2-0.1-0.3-0.2-0.5-0.1
					c-0.2,0.1-0.3,0.1-0.5,0.2l-0.3,0c0,0.1-0.1,0.2-0.1,0.3l-0.2,0.1c-0.1,0.2,0,0.4,0.1,0.6c0.1,0.1,0.1,0.4-0.1,0.5
					c-0.2,0.1-0.5,0.1-0.8,0.2c-0.3,0.1-0.6-0.1-0.9,0.1c-0.2,0.1-0.4,0.4-0.6,0.4c-0.5-0.1-0.7,0-1.2,0c-0.2,0-0.6,0-0.8,0.2
					c-0.1,0.1-0.3,0-0.4,0c-0.4-0.1-1,0.3-1.4-0.1l0-0.6c-0.1-0.7-0.1-1.3-0.1-2c0.3-0.5,0.1-1.2,0.2-1.7l0.1-0.3
					c0.1-0.4,0-0.8,0.2-1.1c0.1-0.2,0.3-0.4,0.5-0.6c0.3-0.3,0.5-0.4,0.9-0.9c0.2-0.3,0.2-0.5,0.4-0.6c0.2-0.1,0.8-0.4,1-0.6
					c0.4-0.2,0.6-0.3,0.9-0.7c0.2-0.3,0.5-0.4,0.8-0.6c0.2-0.2,0.3-0.4,0.5-0.5c0.2-0.2,0.5-0.4,0.6-0.6c0.2-0.3,0.6-0.5,0.9-0.7
					c0.4-0.3,0.3-0.5,0.8-0.7c0.3-0.1,0.5-0.2,0.7-0.4l0.2-0.4c0.3-0.2,0.4,0,0.6-0.3l0.5-0.3l0.1-0.2c0.1,0,0.2,0,0.4,0
					c0.4-0.2,0.6-0.5,0.9-0.7c0.2-0.1,0.4-0.1,0.6-0.3c0.1-0.1,0.1-0.3,0.2-0.5c0.2-0.2,0.2-0.4,0.4-0.5c0.2-0.2,0.4-0.3,0.6-0.5
					c0.1-0.1,0.1-0.3,0.2-0.5c0.1-0.2,0.1-0.5,0.1-0.7c0.1-0.5,0.3-0.9,0.4-1.3c0.1-0.6,0.1-1.1,0-1.7c-0.1-0.1-0.3-0.3-0.4-0.4
					c-0.1-0.1-0.3-0.2-0.5-0.2c-0.2-0.2-0.3-0.5-0.6-0.7l-0.2,0c-0.2-0.1-0.3-0.2-0.5-0.3c-0.1-0.1-0.4,0-0.6,0
					c-0.2-0.1-0.4-0.2-0.5-0.4c-0.5,0-1,0-1.5-0.1l0-0.1c-0.3,0-0.7,0-1-0.1c0-0.2-0.2-0.1-0.3-0.2c-0.3-0.1-0.6-0.1-0.9-0.1
					c-0.2,0-0.5,0.1-0.8,0.1l-0.2-0.1c-0.4-0.1-0.8,0.1-1.2,0l-0.1,0c-0.3-0.1-0.7,0.2-0.8,0.1c-0.1-0.1-0.3-0.2-0.4-0.4
					c-0.1-0.2-0.1-0.4-0.1-0.7c0-0.1-0.1-0.1-0.3-0.1l-0.1-0.1c0-0.1,0-0.3,0-0.4l0.1-0.2l-0.1,0c0-0.2-0.1-0.4-0.2-0.6
					C108.9,62.2,109.1,62.1,109.2,62 M145.4,25.9c-0.4-0.2-0.8-0.1-1.2-0.3c-0.6-0.2-1.1-0.4-1.7-0.5c-0.6-0.1-1.1,0-1.6,0.1
					c-0.2,0-0.4,0.2-0.7,0.2c-0.4,0.1-0.8,0-1.3,0.1c-0.2,0.1-0.5,0.1-0.8,0.1l-0.2,0.1c-0.4,0-0.8,0-1.1,0.1c-0.5,0.1-1,0-1.4,0.1
					c-0.1,0-0.2,0.1-0.3,0.1c-0.7,0.1-1.3,0-2,0.1c-0.1,0-0.1,0.2-0.3,0.3c-0.2,0.1-0.5,0-0.7,0c-0.3,0-0.6,0-0.9,0.3
					c-0.6,0-1.2,0-1.8,0.2l-0.2,0.2c-0.2,0.1-0.4,0-0.5,0.1c-0.1,0.1-0.3,0.2-0.4,0.2c-0.4,0.1-0.7,0-1.1,0.1
					c-0.3,0-0.5,0.4-0.8,0.5c-0.5,0.1-0.9,0.1-1.4,0.1c-0.2,0-0.4,0.1-0.6,0.2c-0.1,0.1-0.3,0.1-0.4,0.1c-0.5,0.2-1.1,0.4-1.6,0.6
					c-0.2,0.1-0.3,0.2-0.5,0.3c-0.4,0.1-0.7,0.2-1,0.4c-0.1,0.1-0.3,0-0.4,0c-0.5,0.1-1,0.3-1.5,0.5c-0.2,0.1-0.3,0.3-0.5,0.4
					c-0.3,0.1-0.7-0.1-1,0.1c-0.3,0.2-0.6,0-0.9,0.2l-0.3,0.2l-0.2,0.1c-0.1,0-0.2,0-0.3,0c-0.5,0.2-0.9,0.4-1.4,0.5
					c-0.1,0-0.2,0.2-0.4,0.2c-0.2,0.1-0.4,0-0.6,0.1c-0.3,0.1-0.6,0.3-0.9,0.4l-0.2,0c-0.2,0-0.3,0-0.4,0.1
					c-0.3,0.1-0.6,0.2-0.9,0.4c-0.2,0.1-0.3,0.2-0.5,0.3h-0.3c-0.6,0.2-1.1,0.4-1.7,0.7c-0.2,0.1-0.5,0.1-0.7,0.2l-0.1,0.1
					c-0.2,0.1-0.3,0-0.5,0.1c-0.1,0-0.2,0.2-0.3,0.2c-0.2,0.1-0.5,0-0.6,0.1c-0.1,0.1-0.2,0.2-0.3,0.3l0,0l-0.1,0
					c-0.5,0.1-1.1,0.2-1.5,0.3c-0.6,0.1-0.9,0.6-1.4,0.7c-0.4,0.2-0.7,0.2-1.1,0.2c-0.7,0.1-1.3,0.4-1.9,0.7
					c-0.6,0.2-1.1,0.2-1.7,0.3c-0.2,0.1-0.4,0.1-0.6,0.2c-0.5,0.2-1,0.3-1.5,0.4c-0.2,0.1-0.4,0-0.6,0.1c-0.8,0.6-1.6,0.9-2.6,0.9
					l-0.3,0.2c-0.7,0.1-1.4,0.2-2,0.6c-0.2,0.1-0.4,0.1-0.7,0.1c-0.4,0-0.9,0.2-1.2,0.5c-0.7,0.6-1.7,0-2.6,0.4
					c-0.1,0-0.1,0.2-0.2,0.2c-0.8,0.4-1.7,0.6-2.6,0.8c-1,0.2-1.9,0.4-2.8,0.8c-0.5,0.2-1.1,0.1-1.5,0.2c-0.2,0.1-0.4,0.3-0.7,0.4
					c-0.4,0.1-0.8,0.1-1.2,0.2c-0.4,0.2-1-0.1-1.4,0.3c-0.1,0.1-0.2,0.2-0.3,0.2c-0.2,0.1-0.6-0.1-0.8,0c-0.4,0.2-1,0.1-1.4,0.4
					c-0.2,0.1-0.6,0.1-0.7,0.2c-0.4,0.1-0.5,0.2-0.8,0.4c-0.7,0.3-1.4,0.1-2,0.4c-0.6,0.2-0.6,0.6-1.7,0.6c-1.1,0-1.5,0.4-2.4,0.6
					c-0.3,0-0.9,0.2-1.2,0.2c-0.8,0.2-1.6,0.1-2.5,0.2c-0.2,0-0.2,0.2-0.4,0.2c-5.4,0.4-6.4-0.1-7.9,0.3c-0.1,0-0.9-0.4-1-0.4
					c-0.2-0.3-0.7,0-1-0.2c-0.2-0.2-0.4-0.4-0.7-0.4c-0.9-0.1-2.1,0.1-2.7-0.6c-0.3-0.4-0.4-0.9-0.1-1.3c0.2-0.3,0.5-0.6,0.6-1.1
					c0.1-0.1,0.3-0.1,0.4-0.1v-0.2c0.2-0.2,0.4-0.4,0.5-0.8h0.1c0-0.4,0.2-0.8,0-1.2c-0.2-0.5,0.1-1-0.1-1.4l-0.2-0.2
					c-0.1-0.1,0.1-0.3-0.1-0.4c-0.4-0.3-0.7-0.6-1.1-0.7c-1.4-0.3-2.4-0.6-3.6-0.3c-0.7,0.2-1.4,0.7-2.1,0.8
					c-0.4,0.1-0.6-0.1-0.9,0.1c-0.1,0.1-0.3,0.2-0.4,0.4c-0.2,0.1-0.4-0.1-0.6,0.1l-0.2,0.2c-0.6,0.3-1.2,0.4-1.5,1v0.2
					c-0.1,0.3-0.6,0.2-0.7,0.4c-0.6,0.8-1.5,1.4-1.8,2.5h-0.3c-0.1,0.2,0,0.6-0.1,0.6c-0.2,0.2-0.4,0.3-0.4,0.5
					c-0.3,1.1-0.3,2.2-0.4,3.2l0.1,0.1V48c0,0.4,0.3,0.4,0.4,0.9c0.2,0.9,0.3,1.3,0.7,1.9c0.1,0.1,0.3,0,0.4,0.1
					c0.1,0.2-0.1,0.5,0.1,0.7c0.1,0.2,0.3,0.4,0.6,0.3c0.5,0.9,0.2,0.8,0.4,1.2c0,0.1,0.4-0.1,0.5,0c0.2,0.2,0.4,0.5,0.5,0.9
					c0,0.1,0.3,0,0.4,0.1c0.2,0.2,0.3,0.4,0.5,0.5c0.3,0.2,0.6,0.3,0.9,0.5c0.1,0.1,0.3-0.1,0.4,0c0.1,0.1,0.1,0.3,0.1,0.4
					c0.2,0,0.4-0.1,0.5,0.1c0.4,0.8,1.3,0.7,2.1,0.9c0.4,0.7,1.4,0.6,2.1,0.7c0.2,0.1,0.4,0,0.6,0.2c0.1,0.1,0.2,0.2,0.3,0.2
					c1.1-0.1,2,0.4,3,0.4c3.1,0.2,5.1,0.4,7.9,0c0.6-0.1,1.7-0.2,2.3-0.4c0.8-0.2,1.1-0.4,1.9-0.5c0.7-0.1,1.3-0.2,1.9-0.3
					c0.6-0.1,1.4-0.3,2-0.4c0.7-0.2,1.3-0.6,2-0.7c-0.1,0.1,0,0.3-0.1,0.4l-0.2,0.3c-0.1,0.1-0.2,0.2-0.3,0.3
					c-0.2,0.2-0.3,0.4-0.5,0.7c-0.2,0.2-0.2,0.6-0.5,0.7c-0.1,0.1-0.3,0.1-0.3,0.2c-0.1,0.3-0.1,0.6-0.3,0.8l-0.3,0.4
					c-0.2,0.1-0.2,0.1-0.3,0.4L65,59.8c-0.1,0.2-0.1,0.5-0.2,0.6c-0.1,0.1-0.2,0.3-0.3,0.4c-0.4,0.6-0.4,0.8-0.7,1.1
					c-0.1,0.1-0.1,0.4-0.2,0.6c-0.2,0.3-0.4,0.7-0.6,0.9L62.6,64c-0.1,0.2,0,0.3-0.1,0.5c-0.1,0.2-0.3,0.4-0.4,0.5
					c-0.1,0.2-0.3,0.3-0.5,0.4c-0.2,0.2-0.1,0.4-0.3,0.6c-0.2,0.4-0.4,0.8-0.8,1.1c-0.1,0.1-0.3,0.3-0.3,0.4
					c-0.1,0.3-0.2,0.4-0.3,0.7c-0.1,0.1-0.2,0.5-0.3,0.6c-0.1,0.1-0.2,0.2-0.3,0.3c-0.2,0.4-0.3,0.7-0.6,1.1
					c-0.1,0.2-0.2,0.3-0.3,0.4c-0.1,0.1-0.2,0.3-0.3,0.4c-0.1,0.2-0.2,0.3-0.3,0.5l-0.2,0.3c-0.1,0.3,0,0.5-0.2,0.7
					c-0.1,0.1-0.2,0.3-0.3,0.5c0,0.2-0.4,0.4-0.4,0.6c0,0.2-0.4,0.7-0.4,0.8L55.8,75c-0.1,0.6-0.4,0.5-0.6,1c-0.1,0.2,0.1,0.5,0,0.7
					l-0.2,0c-0.2,0.1-0.3,0.2-0.4,0.3c-0.2,0.2-0.4,0.5-0.5,0.7c-0.1,0.2-0.2,0.5-0.3,0.6l-0.3,0.1l-0.1,0.2
					c0.1,0.3-0.2,0.5-0.3,0.8l0,0.2c-0.1,0.2-0.4,0.2-0.4,0.4c-0.1,0.2-0.2,0.4-0.3,0.6c-0.1,0.1,0,0.4-0.1,0.5
					c-0.1,0.1-0.1,0.4-0.2,0.5l-0.2-0.1c0,0.3-0.3,0.4-0.5,0.6c-0.2,0.1-0.2,0.4-0.4,0.6c-0.1,0.1-0.3,0.2-0.5,0.3
					c-0.3,0.2-0.4,0.5-0.6,0.7c-0.1,0.1-0.4,0.4-0.3,0.5c0.1,0.3-0.1,0.4-0.2,0.7c0,0.2-0.2,0.4-0.4,0.5c-0.3,0.2-0.5,0.4-0.7,0.7
					l-0.2,0.2c-0.1,0.1-0.2,0.2-0.2,0.3c0,0.3-0.4,0.7-0.4,0.4l-0.1,0.2c-0.1,0.2-0.3,0.2-0.5,0.3c-0.1,0.1,0,0.3-0.1,0.4
					c-0.2,0.4-0.4,0-0.7,0.3l-0.2,0.4c-0.1,0.1-0.2,0-0.3,0.1l-0.2,0.2c-0.2,0.1,0,0.2-0.2,0.4c-0.2,0.1-0.5,0.2-0.6,0.3
					c-0.1,0.1-0.1,0.4-0.2,0.5c-0.3,0-0.5,0-0.7,0.2c-0.1,0.1-0.2,0.4-0.4,0.5c-0.1,0.1-0.2,0.2-0.3,0.2c-0.1,0.1,0,0.3-0.2,0.4
					c-0.1,0.1-0.4,0.2-0.6,0.3c-0.3,0.3-0.5,0.3-0.7,0.6c-0.6,0.2-0.9,0.8-1.3,1.2c-0.1,0.1-0.3,0.1-0.4,0.2l-0.1,0.2
					c-0.1,0.1-0.2,0.1-0.4,0.2l-0.1,0.1c-0.5,0.5-1,0.8-1.5,1.3c-0.1,0.1-0.2,0.3-0.3,0.4c-0.4,0.4-1,0.7-1.3,1.3
					c-0.1,0.3-0.5,0.2-0.7,0.3c-0.3,0.2-0.4,0.4-0.6,0.7c-0.1,0.1-0.3,0.1-0.5,0.3C34.4,99,34.2,99,34.1,99c-0.2,0-0.1,0.3-0.2,0.4
					c-0.1,0.1-0.2,0-0.3,0.1l-0.1,0.3l-0.1,0.1c-0.2,0.2-0.5,0-0.7,0.3c-0.1,0.1-0.1,0.3-0.2,0.4l-0.2,0.2c-0.6,0.6-1.2,1.1-1.8,1.7
					c-0.2,0.5-0.7,0.6-1.1,1c-0.1,0-0.1,0.2-0.3,0.3c-0.3,0-0.4,0.3-0.6,0.4l-0.2,0.1c-0.1,0-0.2,0.1-0.3,0.2l0,0.1
					c-0.2,0.2-0.5,0.4-0.7,0.6c-0.5,0.3-0.7,0.7-1.1,1l-0.2,0.2l-0.2,0.2l-0.1,0.2c-0.1,0.2-0.1,0.5-0.3,0.5c-0.2,0.1-0.5,0-0.6,0.2
					c-0.2,0.4-0.6,0.5-0.8,0.8l-0.2,0.1c-0.2,0.1-0.3,0.3-0.5,0.4c-0.1,0.1-0.4,0.1-0.5,0.2c-0.3,0.3-0.7,0.7-1.1,0.9
					c-0.5,0.4-0.8,0.8-1.3,1.2l-0.2,0c-0.3,0.3-0.6,0.5-1,0.6l-0.2,0.2c-0.1,0.2-0.2,0.4-0.4,0.5l-0.3,0.1c-0.2,0.1-0.1,0.4-0.1,0.6
					c-0.6,0-1,0.5-1.4,0.8c-0.2,0.2-0.4,0.5-0.7,0.6l-0.3,0.1c-0.2,0-0.2,0.2-0.2,0.3l0,0.2l-0.1,0.1c-0.4,0.2-0.7,0.4-1.1,0.7
					c-0.2,0.1-0.4,0.2-0.6,0.3c-0.4,0.2-0.6,0.5-1,0.8c-0.3,0.2-0.6,0.4-0.9,0.6l-0.3,0.1c-0.2,0.1-0.2-0.1-0.3-0.1l-0.3,0.2
					l-0.2,0.5c-0.2,0.3-0.3,0.3-0.6,0.6c-0.2,0.1-0.1,0.1-0.3,0.2L9.4,119l-0.1,0.3l-0.1,0.1c-0.2,0.1-0.4,0.2-0.6,0.3
					c-0.2,0.1-0.3,0-0.4,0.2c-0.1,0.1,0,0.3-0.1,0.4c-0.1,0.1-0.2,0.2-0.3,0.3c-0.2,0.1-0.3,0.3-0.4,0.4c-0.3,0.5-0.6,0.8-1.2,0.9
					l-0.2,0.2l-0.3,0.1c-0.3,0.1-0.6,0-0.8,0.1c-0.4,0.2-0.6,0.5-0.9,0.7l-0.3,0.2c-0.2,0.1-0.5-0.1-0.7,0c-0.2,0.1-0.2,0.4-0.3,0.5
					c-0.1,0.2-0.5,0-0.7,0.1l-0.1,0.2c-0.1,0.1-0.4,0-0.5,0.1l-0.1,0.1c0,0.2-0.1,0.4-0.1,0.7c-0.1,0.4-0.1,0.8,0,1.2
					c0.1,0.3,0.5,0.1,0.8,0.2l0.2,0.1c0.1,0.1,0.1,0.3,0.3,0.4c0.1,0.1,0.1,0.3,0.2,0.4c0.2,0.1,0.5-0.1,0.6,0.2
					c0.1,0.1,0,0.4,0.1,0.6c0.1,0.2,0.3,0.3,0.6,0.4l0.1,0.1c0.1,0.4-0.1,0.9,0.2,1.3c0.1,0.1,0.3,0.1,0.4,0.1l0.2,0.1
					c0.2,0,0.3-0.1,0.4,0.1c0.4,0.5,1,0.3,1.5,0.3c0.2,0,0.2-0.3,0.4-0.4c0.1-0.1,0.2-0.1,0.4-0.2c0.2-0.1,0.4-0.1,0.4-0.2
					c0.1-0.2,0.1-0.3,0.2-0.5c0.2-0.2,0.3-0.1,0.5-0.2l0.2-0.3H9c0.2-0.3,0.4-0.7,0.8-0.9l0.3-0.2c0.4-0.4,0.8-0.7,1.2-1
					c0.1-0.1,0.2-0.2,0.3-0.2c0.3,0,0.2,0.3,0.7,0.1l0.2-0.4c0.1-0.1,0.2-0.1,0.3-0.2c0.1-0.1,0.2,0,0.3-0.1l0-0.3
					c0.1-0.1,0.3-0.3,0.3-0.3c0.1,0,0,0,0.2,0l0.3,0.1l0.3-0.2c0.2-0.3,0.3-0.2,0.6-0.3c0.5-0.1,0.9-0.1,1.4-0.2
					c0.2-0.1,0.3-0.3,0.5-0.4c0.2-0.1,0.3,0,0.5,0c0.1,0,0-0.1,0.1-0.2l0.3-0.2c0.1-0.1,0.2,0,0.3-0.1c0.1-0.1,0.2-0.2,0.4-0.2
					c0.1-0.1,0.2,0,0.4-0.1c0.1-0.1,0.2-0.2,0.3-0.3c0.1-0.1,0.2-0.1,0.2-0.2c0.1-0.1,0.2-0.3,0.2-0.4c0.1-0.1,0.2,0,0.4,0l0.2-0.3
					c0.1-0.1,0.2-0.2,0.3-0.3c0.1,0,0.2-0.3,0.3-0.3l0,0c0.2-0.1,0.4-0.1,0.5-0.1c0.2-0.1,0.4-0.1,0.6-0.2c0.2-0.1,0.3-0.2,0.5-0.4
					c0.1,0,0-0.2,0-0.3l0.1-0.1c0.2-0.1,0.4,0,0.6-0.1c0.3-0.1,0.7-0.3,1-0.6c0.1-0.1-0.1-0.5,0.1-0.6c0.3-0.4,0.8-0.3,1.2-0.4
					c0.2,0,0.3-0.3,0.6-0.4c0.4-0.3,0.5-0.7,0.8-0.9c0.1-0.1,0.3,0,0.4-0.1l0.2-0.2c0.1-0.1,0.3,0,0.5-0.2c0.1-0.1,0.2-0.2,0.3-0.3
					c0.3-0.4,0.7-0.4,1-0.7c0.1-0.2,0.2-0.3,0.3-0.5c0.2-0.2,0.5-0.3,0.7-0.4c0.3-0.2,0.5-0.6,0.7-0.7c0.4-0.2,0.6-0.6,1-0.9
					c0.1-0.1,0.3,0,0.4-0.1c0.1-0.4,0.4-0.7,0.7-0.9c0.1-0.1,0.3-0.1,0.4-0.2c0.2-0.2,0.3-0.2,0.5-0.3c0.2-0.1,0.2-0.4,0.4-0.4
					c0.1-0.1,0.2-0.2,0.2-0.3l0.3-0.2v-0.1c0.2-0.1,0.3-0.2,0.4-0.3c0.1-0.2,0.1-0.3,0.3-0.4v-0.1c0.3,0.1,0.5-0.1,0.7-0.2
					c0.1-0.1,0.2-0.2,0.2-0.3l0.2,0c0.1-0.2,0.2-0.2,0.2-0.3c0.4-0.4,0.8-0.6,1.2-0.9h0.2c0.1-0.4,0.4-0.7,0.8-0.8l0.1-0.2
					c0.2-0.4,0.6-0.6,1-0.9c0.3-0.2,0.5-0.6,0.8-0.7l0.3-0.1c0.2-0.1,0.1-0.3,0.3-0.4l0.3-0.1c0.1-0.1,0.2-0.3,0.3-0.4
					c0.7-0.3,1.1-0.8,1.5-1.4c0.5,0,0.8-0.5,1.2-0.8c0.1-0.1,0.3,0,0.4-0.1c0.3-0.3,0.7-0.5,1-0.7l0.2-0.2l0.2,0
					c0.1-0.3,0.3-0.3,0.5-0.5c-0.1-0.4,0.5-0.5,0.8-0.6l0.2-0.1c0-0.2,0-0.3,0.2-0.4h0.3c0.2-0.1,0.4-0.4,0.7-0.5l0.2-0.2
					c0-0.2,0-0.3,0.1-0.4c0-0.1,0.2-0.1,0.3-0.1c0.2-0.2,0.3-0.5,0.6-0.6c0.2-0.1,0.4-0.1,0.6-0.1l0.1-0.1c0.1-0.6,1-0.7,1.1-1.2
					c0-0.2,0.1-0.4,0.2-0.6c0.3-0.4,0.7-0.8,1.1-1.1c0-0.4,0.2-0.7,0.6-0.8c0.1-0.3,0.3-0.5,0.5-0.6l0-0.2c0-0.1,0.2-0.2,0.2-0.3
					c0.1-0.1,0.2-0.2,0.2-0.4c0.1-0.2,0.2-0.4,0.3-0.5c0.1-0.1,0.1-0.3,0.2-0.3c0.2-0.1,0.3-0.4,0.4-0.7c0.1-0.2,0.1-0.3,0.2-0.5
					l0.1-0.2c0-0.6,0.3-1,0.7-1.5c0.1-0.1,0-0.2-0.1-0.3c0-0.2,0-0.3,0.1-0.4c0-0.1,0-0.2,0-0.3c0.1-0.1,0.2-0.3,0.3-0.4
					c0.2-0.3,0.1-0.6,0.3-0.8l0.1-0.1c-0.1-0.5,0.1-0.9,0.2-1.3c0.1-0.2,0.3-0.4,0.4-0.6c0.1-0.1,0.2-0.3,0.2-0.5
					c0.1-0.3,0.4-0.5,0.5-0.8c0.1-0.2,0-0.5,0.1-0.7c0.2-0.2,0.3-0.5,0.4-0.7c0.2-0.4,0.4-0.7,0.6-1.1c0-0.1,0-0.2,0.1-0.3
					c0.2-0.2,0.3-0.4,0.4-0.6c0.5-0.7,0.7-1.6,1.3-2.3c0.1-0.2,0.2-0.3,0.4-0.4c0.1-0.2,0-0.4,0.1-0.5c0.2-0.2,0.3-0.4,0.5-0.7
					l0.1-0.2c0.2-0.2,0.3-0.4,0.4-0.6c0.1-0.5,0.5-0.8,0.7-1.2c0.1-0.3,0.4-0.5,0.6-0.8c0.2-0.3,0.3-0.5,0.4-0.8
					c0.1-0.4,0.3-0.8,0.6-1.2c0.2-0.2,0.4-0.4,0.6-0.6c0.3-0.3,0.3-0.7,0.6-1l0.1-0.2c0.2-0.2,0.1-0.5,0.2-0.6
					c0.3-0.3,0.4-0.2,0.6-0.6c0-0.1,0.1-0.2,0.2-0.3c0.3-0.3,0.3-0.6,0.6-0.9c0.1-0.1,0.1-0.3,0.1-0.4c0.2-0.4,0.3-0.8,0.6-1.1
					c0.2-0.3,0.5-0.5,0.5-0.9c0.3-0.2,0.4-0.5,0.5-0.8c0.1-0.2,0.1-0.5,0.2-0.7l0.1-0.2c0.1-0.2,0.2-0.2,0.4-0.3
					c0.1-0.1,0.2-0.2,0.2-0.4c0-0.1,0.1-0.2,0.2-0.4c0.1-0.2,0.4-0.2,0.5-0.5c0.1-0.2,0-0.4,0.1-0.5c0.1-0.2,0.4-0.5,0.5-0.7
					l0.1-0.2c0.2-0.3,0.5-0.5,0.7-0.7c0.2-0.2,0.5-0.3,0.6-0.5c0.1-0.3,0.3-0.6,0.5-0.9l0.2-0.1c0.1-0.2,0.2-0.2,0.4-0.4L75,57
					c0.3-0.3,0.6-0.6,0.9-0.9c0.2-0.2,0.5-0.3,0.6-0.5c0.1-0.1,0.1-0.3,0.3-0.4c0.6-0.3,1-0.7,1.6-1.1c0.1-0.1,0.3-0.1,0.5-0.2
					c0.1-0.1,0.1-0.2,0.3-0.3l0.3-0.1l0.1-0.2l0.1-0.1c0.4-0.1,0.7-0.2,1-0.4c0.1-0.1,0-0.3,0.2-0.3c0.1-0.1,0.3-0.1,0.4-0.2
					c0.2-0.2,0.3-0.4,0.5-0.5c0.3-0.1,0.4-0.4,0.7-0.4c0.2,0,0.3-0.1,0.4-0.2c0.1-0.1,0.3-0.2,0.3-0.4c0.1-0.3,0.3-0.5,0.6-0.6
					l0.1-0.1l0.2,0c0.2-0.1,0.3-0.3,0.5-0.4c0.1,0,0.2,0,0.4,0l0.2-0.1c0.1-0.1,0.2-0.2,0.3-0.3c0.1-0.1,0.4,0,0.5,0l0.1-0.1
					c0.3-0.1,0.7,0.1,1-0.1c0.2-0.1,0.3-0.1,0.5-0.3c0.2-0.1,0.3-0.2,0.5-0.2h0.2l0.2-0.1c0.3-0.2,0.7-0.1,1.1-0.2
					c0.1,0,0.2-0.2,0.3-0.2c0.4-0.1,0.8,0,1.2-0.1c0.4-0.1,0.9-0.1,1.2,0c0.3,0.1,0.5,0,0.7-0.1c0.2-0.1,0.4,0,0.5,0.1
					c0.2,0.1,0.5,0.2,0.8,0c0.2,0,0.4-0.1,0.6-0.2c0.7-0.1,1.3,0,2-0.1c0.1,0,0.1-0.2,0.2-0.3c0.3-0.2,0.6-0.3,1-0.4l0.1-0.1
					c0.1,0,0.2-0.1,0.3-0.2c0.2-0.1,0.4,0,0.6,0c0.2-0.1,0.3-0.2,0.5-0.2c0.1,0,0.2,0,0.4,0l0.2-0.1c0.2,0,0.3-0.1,0.4-0.2
					c0.1-0.1,0.2-0.1,0.4-0.2c0.1-0.1,0.5-0.1,0.6-0.1c0.1,0.2,0,0.7-0.3,0.8c0,0.3,0,0.5,0,0.9c0,0.2-0.2,0.3-0.3,0.5
					c-0.1,0.4,0,0.7-0.1,1.1c-0.1,0.1-0.2,0.2-0.2,0.4c0,0.2,0,0.7-0.1,0.9c-0.3,0.4-0.2,0.6-0.4,1.1c-0.1,0.2-0.2,0.2-0.3,0.5
					c0,0.1-0.3,0.2-0.3,0.3l-0.1,0.1l-0.2,0.2h-0.3c-0.1,0.1-0.1,0.2-0.2,0.2c-0.3,0.1-0.4,0-0.7,0.1l-0.5,0.4
					c-0.1,0.2-0.2,0.1-0.4,0.2c-0.2,0-0.3,0.1-0.4,0.1C96.4,53.8,96,54,95.6,54c-0.2,0-0.3,0.1-0.4,0.2l-0.2,0.2l-0.3,0h-0.3
					c-0.2,0.1-0.4,0.3-0.6,0.4c-0.1,0.1-0.3,0-0.4,0L93.3,55c-0.1,0.1-0.4,0-0.5,0.2c-0.2,0.2-0.5,0-0.7,0.1
					c-0.2,0.1-0.3,0.3-0.5,0.5l-0.3,0.1c-0.3,0-0.5,0.2-0.6,0.5l-0.2-0.1c-0.3,0-0.4,0.2-0.6,0.4l-0.1,0c-0.2,0-0.3,0-0.5,0
					l-0.3,0.3c-0.2,0.1-0.4,0.1-0.6,0.1c-0.1,0.1-0.2,0.3-0.3,0.3c-0.4,0.1-0.9-0.1-1.2,0.4c0,0.1-0.2,0.2-0.3,0.2
					c-0.2,0.1-0.5,0-0.6,0.1c-0.1,0.1-0.2,0.2-0.3,0.2c-0.2,0.1-0.3,0.2-0.4,0.3c-0.1,0.1-0.4,0-0.5,0.1c-0.2,0.1-0.2,0.4-0.5,0.5
					c-0.1,0.1-0.2,0-0.4,0.1c-0.2,0.1-0.4,0-0.6,0.2c-0.1,0.1-0.1,0.3-0.2,0.4L83,60.2c-0.1,0.1-0.3,0.1-0.5,0.1L82,60.6
					c-0.1,0.1-0.2,0.2-0.4,0.3c-0.1,0.1-0.1,0.3-0.2,0.4c-0.2,0.1-0.2-0.1-0.4,0c-0.2,0-0.4,0.2-0.5,0.3c-0.2,0.1-0.3,0.4-0.5,0.5
					c-0.1,0.1-0.3,0.1-0.4,0.2c-0.1,0.1-0.1,0.4-0.2,0.4c-0.2,0.1-0.4,0.1-0.5,0.2c-0.2,0.1-0.5-0.1-0.7,0.1
					c-0.2,0.1-0.4,0.3-0.5,0.5c-0.2,0.2-0.3,0.3-0.6,0.5c-0.2,0.1-0.2,0.2-0.4,0.4h-0.1c-0.1,0.1-0.2,0.1-0.2,0.2
					c0,0.2,0,0.3-0.1,0.5c0,0.1-0.2,0.2-0.2,0.3c0,0.1,0,0.3-0.1,0.4l-0.1,0.1c0,0.1,0,0.2,0,0.4c0.1,0.2,0.1,0.3,0.2,0.5
					c0.1,0.4,0,0.8,0,1.2c0.4,0.2,0.4,0.7,0.6,1.1c0.1,0.2,0.4,0.2,0.5,0.3c0.1,0.3,0.3,0.5,0.5,0.7c0.1,0.1,0.2,0.3,0.4,0.4h0.1
					l0.1,0.2c0.2,0.1,0.4,0,0.6,0.1l0.2,0.2c0.2,0.1,0.3,0.1,0.5,0.2l0.2,0.2c0.3,0.1,0.6,0,0.9,0.1l0.2,0.1
					c0.3,0.1,0.6-0.1,0.8,0.1c0.3,0.2,0.6,0.1,0.9,0.1l0.2-0.1c0.3-0.1,0.5,0,0.8-0.3c0.1-0.1,0.3,0,0.5-0.1c0.1,0,0.2-0.2,0.4-0.3
					c0.2,0,0.5,0.1,0.7-0.1c0.1-0.1,0.1-0.3,0.2-0.4l0.1-0.1c0.1-0.1,0.3-0.1,0.4-0.2c0.2-0.1,0.4-0.1,0.6-0.3
					c0.1-0.1,0.3,0,0.4-0.1c0.1-0.1,0-0.3,0.1-0.4l0.2-0.3c0.3-0.2,0.5-0.3,0.8-0.4c0.3-0.2,0.4-0.5,0.7-0.7l0.3-0.1l0.1-0.2
					c0.2-0.2,0.6,0.1,0.7-0.1c0.1-0.1,0-0.3,0.1-0.4l0.4-0.1c0.2-0.1,0.3-0.3,0.4-0.3c0.2-0.1,0.5-0.1,0.7-0.2l0.1-0.1
					c0.1-0.2,0-0.4,0.2-0.5c0.2-0.1,0.4,0.1,0.6,0l0.2-0.3c0.1-0.1,0.3,0,0.4,0c0.1-0.1,0.2-0.1,0.3-0.2l0.2-0.2
					c0.3,0,0.7-0.1,0.9-0.2c0.2-0.1,0.1-0.3,0.3-0.4c0.1,0,0.3,0,0.4,0l0.2-0.2l0.3-0.1c0.2-0.2,0.2-0.4,0.4-0.6
					c0.2-0.2,0.4-0.1,0.6-0.2c0.1,0,0.2-0.1,0.2-0.3l0.2-0.1l0.1-0.1c0.1,0,0.3,0,0.3,0.1l0.1,0.3l0,0.3l-0.2,0.1v0.3
					c-0.1,0.1-0.1,0.4,0,0.5c0.1,0.2,0,0.7-0.1,0.8c-0.1,0.4,0,0.8-0.1,1.3c0,0.2-0.2,0.1-0.3,0.3c-0.1,0.2,0.1,0.7-0.1,0.8
					c-0.4,0.3-0.5,0.5-0.9,0.7c-0.2,0.1-0.6,0.2-0.7,0.3c-0.3,0.1-0.4,0.4-0.7,0.5c-0.3,0.2-0.6,0.3-0.8,0.6
					c-0.1,0.1-0.2-0.2-0.4-0.1c-0.1,0.1-0.3,0.1-0.4,0.1c-0.2,0-0.1,0.3-0.2,0.5c-0.1,0.1-0.3-0.1-0.5,0l-0.1,0.2
					c-0.1,0.1-0.3,0-0.4,0.1c-0.3,0.3-0.5,0.5-0.8,0.6c-0.2,0.1-0.4,0.3-0.6,0.4c-0.2,0.1-0.4,0-0.6,0.1L89,72.1
					c-0.4,0.2-0.9,0.2-1.1,0.6l-0.2,0.2c-0.3,0.1-0.5,0-0.8,0.1c-0.2,0.1-0.3,0.2-0.4,0.4l-0.2,0.1c-0.1,0-0.3,0-0.4,0
					c-0.2,0.2-0.4,0.3-0.6,0.4c-0.2,0.1-0.6,0.1-0.6,0.1l0,0.2c-0.2,0.2-0.3,0.4-0.5,0.5c-0.1,0.1-0.3,0-0.5,0.1
					c-0.2,0.2-0.4,0.4-0.7,0.5c-0.2,0.1-0.2,0.3-0.4,0.4c-0.5,0.2-0.9,0.5-1.4,0.7c0,0.5-0.5,0.7-0.8,1c-0.4,0.4-0.9,0.7-1,1.3h-0.2
					c-0.1,0.3,0.1,0.7-0.2,0.9c0.1,0.2,0,0.5,0.1,0.7l0.2,0.2c0.1,0.1,0.2,0.2,0.3,0.3c0,0.2-0.1,0.3,0,0.5c0.1,0.2,0.3,0.3,0.4,0.5
					c0.1,0.1,0,0.3,0.1,0.4l0.1,0.2c0.2,0.1,0.3,0.2,0.5,0.3c0.2,0.1,0.3,0,0.5,0l0.1,0.1h0.1c0.2,0.2,0.6,0.1,0.9,0.2
					c0.6,0.1,1.2,0,1.8,0c0.1,0,0.3-0.1,0.5-0.1c0.3-0.1,0.5,0,0.7-0.1l0.2-0.2h0.3c0.1,0,0.2-0.1,0.3-0.2c0.1-0.1,0.1-0.3,0.2-0.3
					c0.2-0.1,0.5-0.1,0.7-0.2c0.2-0.1,0.4-0.3,0.7-0.4c0.3-0.1,0.6-0.1,0.8-0.3l0.2-0.3c0.4-0.3,0.8-0.4,1.1-0.7
					c0.1-0.2,0.2-0.4,0.3-0.5c0.3-0.2,0.8,0,0.9-0.4c0.3-0.6,0.9-0.8,1.4-0.9c0.3-0.1,0.5-0.4,0.8-0.5c0.3-0.1,0.6-0.1,0.8-0.2
					l0.2-0.2c0.2-0.1,0.3-0.2,0.4-0.3c0.2-0.1,0.3-0.3,0.5-0.4c0.2-0.1,0.4,0,0.5,0.1c0.2,0.5-0.2,1-0.2,1.5c0,0.3,0,0.5-0.2,0.7
					c-0.2,0.3-0.2,0.6-0.3,0.9l-0.1,0.1c-0.2,0.2,0,0.3-0.1,0.6c-0.1,0.3-0.1,0.5-0.2,0.8c-0.1,0.2-0.1,0.6-0.3,0.7
					c-0.1,0.1-0.2,0.2-0.3,0.3c0,0.2-0.2,0.3-0.3,0.5c-0.1,0.1-0.1,0.1-0.2,0.1l0,0.2c-0.1,0.1-0.2,0.2-0.2,0.3
					C93.1,84,92.8,84,92.6,84c-0.2,0.1-0.2,0.6-0.3,0.7c-0.3,0.1-0.4,0-0.7,0.2l-0.3,0.4c-0.2,0.2-0.6,0.5-0.8,0.7
					c-0.3,0.2-0.5,0.4-0.8,0.4c-0.2,0.4-0.7,0.4-1.1,0.4c-0.1,0-0.2,0.1-0.3,0.2C88,87,87.7,87,87.4,87.1c-0.1,0-0.1,0.2-0.2,0.2
					c-0.3,0-0.5,0.2-0.7,0.3c-0.2,0.1-0.3,0-0.4,0.1c-0.2,0.1-0.4,0.3-0.6,0.3c-0.2,0.1-0.5,0.1-0.6,0.2c-0.3,0.2-0.3,0.4-0.6,0.5
					c-0.2,0.1-0.6,0.2-0.7,0.3c-0.2,0.1-0.3,0.3-0.6,0.4l-0.2,0.1v0.3c-0.3,0.5-0.6,0.8-0.9,1.2c-0.2,0.3-0.1,0.6-0.3,1l-0.2,0.2
					c-0.1,0.4,0.1,0.1,0.1,0.5l-0.2,0.8c-0.1,0.3-0.1,0.6-0.1,0.9l-0.2,0.2L81,95c0.1,0.6-0.1,1.3,0.2,1.8c0.1,0.1,0.1,0.3,0,0.5
					c-0.1,0.2,0,0.4,0.1,0.6c0.5,0.2,0.2,0.9,0.5,1.2c0.2,0.2,0.3,0.6,0.6,0.8c0.2,0.1,0.4,0.2,0.6,0.4l0.4,0.2
					c0.2,0.2,0.2,0.2,0.5,0.2c0,0.3,0.3,0.3,0.6,0.5c0.1,0.1,0.5,0.2,0.7,0.3c0.3,0.1,0.1,0.4,0.5,0.5c0.3,0,0.6,0.1,1,0.2
					c0.1,0.1,0.2,0.1,0.3,0.2c0.2,0.1,0.4,0.1,0.6,0c0.4-0.2,0.8-0.1,1.1,0.2c0.9,0,1.8-0.1,2.6-0.1l0.2,0.1
					c0.2,0.2,0.3-0.1,0.5-0.1c0.2,0,0.3-0.1,0.5-0.1c0.2-0.1,0.7-0.1,0.9,0.1c0.2,0.2,0,0.5,0.3,0.7c0,0.9,0,2,0.2,3
					c0.1,0.5-0.1,0.6,0,1.1c0.1,0.6-0.1,1-0.2,1.6c-0.1,1.1,0,2.3,0,3.4c0,0.2-0.1,0.3-0.1,0.4c-0.1,0.5,0,0.6-0.1,1.1
					c0,0.3,0,0.4,0,0.7l-0.4,0.7c-0.1,0.3,0.1,0.5,0.2,0.7c0,0.2-0.1,0.4-0.1,0.5c-0.1,0.7-0.1,1.4,0,2.2c0.1,0.4,0,0.8,0.1,1.2
					c0.1,0.1,0.3,0.3,0.1,0.4c-0.3,0.2-0.3,0.2-0.4,0.5v0.5c0,0.2-0.2,0.2-0.1,0.4c0.1,0.1,0.3,0.2,0.3,0.3c0.1,0.2,0,0.4-0.1,0.6
					c-0.2,1.1,0,2.1,0,3.2c0,0.1-0.1,0.2-0.1,0.4c-0.1,0.7,0,1.4,0,2h-0.1l-0.1,0.2c-0.1,0.2-0.1,0.5,0,0.7c0.1,0.2,0.2,0.3,0.1,0.4
					c-0.1,0.3-0.2,1.1-0.1,1.4c0.2,0.4,0.3,0.4,0.6,0.7c0.1,0.5,0.1,0.9,0,1.4c0,0.3-0.1,0.6-0.1,0.9l0,0.1c0,0.4,0.2,0.8,0.1,1.3
					c0,0.2-0.2,0.3-0.3,0.4c-0.1,0.7,0,1.4,0,2.1c0,0.3,0.2,0.8-0.2,1c-0.2,0.2-0.6,0.1-0.9,0.3c-0.2,0.1-0.3,0.3-0.4,0.3
					c-0.6,0.1-1.1,0.2-1.7,0.1l-0.1-0.1c-0.3,0-0.6,0-0.8-0.1H89c-0.2-0.1-0.3-0.2-0.5-0.2c-1-0.1-1.9,0-2.8-0.4
					c-0.8-0.3-1.5-0.5-2.3-0.7c-0.2-0.1-0.4,0-0.5-0.1c-0.6-0.2-1-0.1-1.8-0.2c-0.2,0-0.3,0-0.5,0.2c-0.4,0.2-0.2,0.1-0.2,0.1
					c0.2-0.3-0.2,0.1-0.2,0.2c0.2-0.2-0.2,0-0.2,0.3c-0.1,0.4-0.2,0.3-0.1,0.7c0.1,0.6,0.3,1.2,0.3,1.9c0.2,0.1,0,0.3,0.2,0.5
					l0.2,0.2c0.2,0.1,0.3,0.3,0.4,0.5c0.1,0.1,0.1,0.6,0.4,0.8c0.3,0.2,0.5,0.3,0.8,0.5c0.1,0.1,0.3,0.2,0.4,0.2l0.1,0.1
					c0.2,0,0.5,0.1,0.7,0.4v0.1c0.2,0.1,0.4,0,0.5,0.1c0.2,0.1,0.3,0.2,0.3,0.5l0.1,0.1c0.4,0,0.8,0,1.1,0.2l0.2,0.1
					c0.4,0.1,0.8,0.4,1.2,0.5c0.2,0.1,0.4,0.3,0.5,0.5c0.1,0.1,0.3,0.1,0.4,0.1c0.2,0.1,0.4,0.2,0.6,0.3c0.2,0.2,0.6,0.1,0.8,0.3
					c0.1,0.1,0.2,0.3,0.3,0.3c0.3,0.2,0.6,0.1,0.9,0.3c0.1,0.1,0.2,0.3,0.2,0.3c0.2,0.1,0.5,0.1,0.7,0.2c0.2,0.1,0.3,0.3,0.3,0.6
					c0,0.1,0.3,0.2,0.4,0.3c0.2,0.1,0.4,0.2,0.5,0.4l0,0.2c0.1,0.2,0.3,0.3,0.4,0.5c0.2,0.2,0.2,0.4,0.4,0.6h0.1
					c0.2,0.2,0.3,0.4,0.5,0.6h0.2l0.1,0.1c0.2,0,0.4,0.1,0.4,0.3h-0.1l0,0.2c0.2,0.3,0.6,0.4,0.6,0.8c0.2,0,0.4,0,0.5,0.1
					c0.1,0.2-0.1,0.3,0,0.5c0.1,0.1,0.3,0.1,0.4,0.2c0.2,0.2,0.3,0.4,0.4,0.5c0.2,0.1,0.2,0.4,0.3,0.4c0.2,0.1,0.4,0.1,0.5,0.3
					c0.1,0.2,0,0.6,0.2,0.8c0.2,0.4,0.8,0.4,0.9,0.9c0.1,0.2,0.3,0.2,0.5,0.4l0.2,0c0.2,0.1,0.2,0.3,0.3,0.3
					c0.2,0.1,0.4,0.1,0.5,0.2l0.2,0.1c0.5,0,1,0,1.5,0l0.3-0.1c0.2-0.1,0.4,0,0.7-0.1c0.2-0.1,0.2-0.3,0.4-0.4
					c0.2-0.1,0.6,0,0.8-0.1l0.2-0.2c0-0.4,0.4-0.5,0.6-0.7l0.1-0.3c0.2-0.2,0.4-0.2,0.7-0.3c0-0.2,0.2-0.4,0.2-0.7l0.1-0.1
					c0.2-0.1,0.4-0.1,0.5-0.3c0.1-0.2,0-0.3,0-0.5l0.2-0.2c-0.1-0.5,0.3-1-0.1-1.4c0-0.4,0-1,0.1-1.5c0.1-0.2,0.2,0,0.2-0.2
					c-0.1-0.6,0.1-1.1,0.2-1.4c0.1-0.3-0.1-0.4-0.2-0.7c-0.1-0.1-0.2-0.2-0.2-0.4c0.1-1,0.1-2.4-0.3-2.7c-0.2-0.2-0.2-0.6-0.3-0.9
					H106c-0.1-0.8-0.2-1.6-0.3-2.4c-0.1-0.4-0.1-0.8-0.2-1.2c-0.1-0.2-0.2-0.4-0.2-0.5c-0.1-0.8-0.1-1.7-0.2-2.5
					c0-0.4,0.1-0.7,0-1.1c0-0.1-0.2-0.5-0.2-0.6c-0.1-0.3-0.2-0.6-0.1-0.9c0.1-0.5,0.1-0.3,0.1-0.8l-0.2-0.7c-0.1-0.2,0-0.3,0.1-0.5
					c0.1-0.6-0.1-0.9,0.1-1.5c0.1-0.4,0.3-1,0.2-1.5c0-0.2-0.2-0.4-0.2-0.6c0-0.2,0-0.3,0-0.5c-0.2-0.4-0.3-0.9-0.2-1.3
					c0.1-0.2,0-0.4,0-0.6c-0.1-0.5-0.1-0.9-0.1-1.4c-0.1-0.5-0.2-0.8-0.1-1.3c0.1-0.5,0-0.9-0.1-1.6c0-0.8,0-1.6,0.1-2.5
					c0.1-0.4-0.1-0.7-0.1-1c0-0.5,0.1-1,0.1-1.5l0.1-0.3c0.1-0.5-0.1-1,0.2-1.5c0-0.8-0.1-1.7,0-2.5c0.2-0.8,0-1.6,0.1-2.5l0.1-0.2
					c0.1-0.3-0.2-0.5-0.1-0.8c0.1-0.6-0.1-1.2,0-1.8l0.2-0.2c0.5-0.2,0.3-0.8,0.3-1.2c0-0.3-0.1-0.7,0.2-0.9c0-0.3,0-0.6,0-0.9
					c-0.1-0.3-0.1-0.6,0-1c0-0.2,0.2-0.3,0.2-0.4c0.1-0.6,0.1-1.1,0.2-1.7l0.2-0.3c0-0.1,0-0.3,0-0.4c0-0.2,0-0.4,0.1-0.5
					c0.2-0.2,0.2-0.5,0.4-0.7c0.1-0.1,0.3-0.1,0.5-0.1l0.2-0.2c0.4-0.1,0.7,0,1.1-0.1c0.2,0,0.2-0.3,0.3-0.3c0.3-0.1,0.7,0,1.1-0.1
					c0.3-0.1,0.5-0.4,0.9-0.3c0.2,0,0.4,0.1,0.7,0.2c0.1,0.1,0.3,0.1,0.4,0c0.1,0,0.2-0.1,0.4-0.1l0.2-0.2c0.5-0.1,1.1-0.1,1.6-0.1
					l0.3,0c0.2-0.1,0.4-0.1,0.5-0.2c0.2-0.1,0.4,0.1,0.6,0.1c0.3,0.1,0.6-0.1,0.9-0.2c0.3-0.1,0.6,0,0.9,0l0.2-0.1
					c0.7-0.1,1.4-0.1,2.1-0.1c0.8-0.5,1.7-0.2,2.5-0.4c0.1,0,0.2-0.1,0.4-0.1c0.2,0,0.4-0.3,0.7-0.3c0.3-0.1,0.5,0,0.8-0.1l0.2-0.1
					c0.2-0.1,0.3-0.1,0.5-0.1c0.1,0,0.2-0.2,0.4-0.2c0.1,0,0.2,0,0.3,0l0.2-0.1c0.3-0.3,0.8-0.1,1.2-0.3c0.2-0.1,0.4-0.4,0.6-0.6
					c0.4-0.3,0.8-0.3,1.2-0.6c0.4-0.2,0.7-0.7,1.1-0.8c0.4-0.2,0.6-0.6,1-0.8c0.2-0.1,0.4-0.3,0.7-0.5l0.2,0c0.4-0.2,0.6-0.6,1-0.8
					c0.1-0.1,0.1-0.3,0.2-0.5c0.5-0.6,1.1-1.2,1.7-2l0.2-0.2c0.3-0.6,0.6-0.7,0.9-1.3c0.1-0.2,0.6-0.7,0.7-0.8
					c0.4-0.8,0.6-1.3,1.1-2c0.1-0.2,0.3-0.5,0.4-0.7c0.5-1,1-1.9,1.4-2.9c0.1-0.2,0-0.4,0.1-0.6l0.2-0.2c0.1-0.3,0-0.5,0.1-0.7
					c0.1-0.3,0.4-0.4,0.5-0.6c0.1-0.2,0-0.4,0-0.6l0.1-0.2c0.3-0.3,0.3-0.7,0.5-1.1c0.1-0.2,0-0.4,0-0.6c0.1-0.3,0.3-0.5,0.3-0.8
					c0.1-0.4,0.2-0.8,0.3-1.2c0-0.1,0.2-0.3,0.3-0.4c0.1-0.4,0-0.8,0.1-1.1c0-0.2,0.1-0.3,0.2-0.5c0.1-0.1,0.2-0.1,0.2-0.2
					c0.1-0.2-0.1-0.6,0-0.7c0.1-0.2,0.1-0.4,0.2-0.6c0.1-0.8,0-1.5,0-2.3l0.2-0.2c0.2-0.6,0.1-1.2,0.1-1.8c0-0.2,0-0.3,0-0.4
					c-0.1-0.3-0.2-0.5-0.3-0.8c-0.1-0.5-0.1-1.5-0.2-1.5l-0.3-0.2c-0.1-0.1-0.1-0.3,0-0.5c0.1-0.3-0.1-0.7-0.1-1
					c0-0.1-0.2-0.2-0.3-0.3l0-0.2l-0.1-0.2c-0.1-0.3-0.1-0.5-0.1-0.7c-0.4-0.1-0.5-0.9-0.5-0.9c-0.2,0-0.3-0.4-0.4-0.5
					c-0.1-0.2,0-0.4-0.1-0.6c-0.1-0.2-0.3-0.5-0.4-0.7c-0.1-0.2-0.1-0.5-0.2-0.7c-0.2-0.3-0.3-0.7-0.6-1c-0.2-0.3-0.4-0.7-0.6-1
					c-0.1-0.2-0.3-0.2-0.4-0.4c-0.2-0.3-0.3-0.5-0.5-0.8c-0.3-0.4-0.4-0.7-0.7-1.1c-0.3-0.3-0.6-0.6-0.9-0.8c-0.4-0.2-0.6-0.6-1-0.8
					c-0.1-0.1-0.2-0.1-0.3-0.2l-0.1-0.1c-0.3-0.3-0.7-0.4-1.1-0.5l-0.2-0.2c-0.7-0.4-1.5-0.7-2.3-1c-0.2-0.1-0.4-0.3-0.6-0.3
					c-0.2-0.1-0.5-0.2-0.7-0.3c-0.3-0.2-0.7-0.2-1-0.4c-0.5-0.2-1-0.2-1.5-0.5c-0.1,0-0.3,0-0.5-0.1c-0.3-0.1-0.6-0.1-0.8-0.1
					c-0.4-0.1-0.8-0.1-1.2-0.2l-0.3,0c-0.2-0.1-0.5,0.1-0.8-0.1c-0.2-0.1-0.3-0.2-0.5-0.1c-0.2,0-0.5,0.1-0.7,0.1h-3.2l-0.2,0.1
					c-0.4,0.2-0.9,0.1-1.4,0.2c-0.6,0.1-1.2-0.1-1.8,0c-0.3,0-0.6,0.2-0.9,0.3c-0.4,0.1-0.7,0.2-1.1,0.2c-0.1,0-0.3,0.2-0.5,0.2
					c-0.6,0.1-1.1,0.1-1.7,0.2l-0.2,0.1c-0.4,0.1-0.7,0.1-1-0.2l0.1-0.3c0.1-0.2,0-0.4-0.1-0.6c-0.1-0.7,0-1.5,0-2.2
					c0-0.2,0-0.3,0-0.4c-0.1-0.3-0.3-0.5-0.5-0.8c-0.1-0.2,0-0.4-0.1-0.5c-0.2-0.2-0.5-0.2-0.7-0.5c-0.1-0.2-0.2-0.4-0.3-0.6
					c-0.1-0.1-0.4-0.3-0.3-0.4c0.3-0.2,0.8,0,1.1-0.3l0.3-0.1l0.2-0.2c0.2-0.1,0.3,0,0.5-0.1c0.1,0,0.1-0.2,0.2-0.2
					c0.4-0.1,0.9,0.2,1.1-0.1c0.1-0.1,0.2-0.2,0.4-0.2c0.1,0,0.2-0.2,0.3-0.2c0.1,0,0.2,0,0.4,0l0.1-0.1c0.3-0.2,0.6-0.4,0.9-0.5
					c0.2-0.1,0.5,0,0.7-0.1l0.2-0.3c0.2-0.2,0.5,0,0.7-0.1l0.2-0.2c0.2-0.1,0.3-0.2,0.5-0.2l0.2-0.2c0.2,0,0.4,0.1,0.6,0l0.2-0.3
					c0.1-0.1,0.3,0,0.5-0.1l0.2-0.1c0.1-0.1,0.1-0.3,0.2-0.3c0.3-0.2,0.8,0.1,1.1-0.1c0.2,0,0.3-0.1,0.4-0.2
					c0.2-0.1,0.3-0.3,0.5-0.4c0.3-0.2,0.7-0.2,1.1-0.3c0.1-0.1,0.2-0.2,0.4-0.1l0.3,0c0.1-0.2,0.2-0.3,0.5-0.4c0.2,0,0.5,0.1,0.7,0
					l0.2-0.2c0.3-0.2,0.7-0.1,1.1-0.3c0.2-0.1,0.4-0.3,0.6-0.4c0.2-0.1,0.4,0,0.6-0.1l0.2-0.2c0.2,0,0.6-0.1,0.6-0.2
					c0-0.1,0.1-0.2,0.1-0.3c0.2,0,0.3,0,0.5,0c0.1,0,0.2-0.2,0.3-0.2c0.2,0,0.3-0.2,0.4-0.2c0.2-0.1,0.5,0,0.7,0l0.1-0.1l0.1-0.2
					v-0.2l0.1-0.1c0.1-0.1,0.3-0.1,0.4-0.1c0.1,0,0-0.2,0.1-0.3l0.2-0.1c0.2,0,0.4,0.1,0.7,0l0.2-0.2l0.3-0.1
					c0.3-0.2,0.5-0.4,0.7-0.6c0.1-0.1,0.3,0,0.5-0.1l0.2-0.2c0.5,0,0.6-0.4,1-0.6c0.2-0.1,0.5,0,0.6-0.1c0.2-0.2,0.4-0.4,0.6-0.6
					h0.2c0.1-0.1,0.2-0.1,0.3-0.1c0.1-0.1,0.1-0.3,0.4-0.4c0.1,0,0.2-0.1,0.3-0.2c0.1-0.1,0.3,0,0.5-0.1c0.3-0.1,0.7-0.2,0.9-0.6
					c0.2-0.4,0.6-0.4,1-0.4l0.2-0.1v-0.3c0.1-0.3,0.6-0.2,0.9-0.3l0.1-0.1c0.2-0.1,0.4,0,0.5-0.1c0.3-0.2,0.6-0.3,0.8-0.4
					c0.2-0.1,0.5-0.2,0.7-0.3c0.3-0.1,0.6,0,0.9,0c0.3,0.1,0.7,0.1,1,0.1l0.2-0.1c0.2-0.1,0.2-0.2,0.4-0.4l0.3-0.1
					c0.1,0,0.2-0.1,0.3-0.2c0.2-0.2,0.4-0.5,0.5-0.8l0.2-0.1c0.2,0,0.3-0.1,0.4-0.2c0.2-0.3,0.5-0.5,0.8-0.7
					C145.5,26.4,145.7,26,145.4,25.9"/>
				<path class="st0" d="M176.8,105.8L176.8,105.8l-0.2,0.1v-0.1l-0.3,0l0,0.1c-0.2,0-0.3,0-0.4,0c0,0.2-0.2,0.3-0.4,0.3l-0.1-0.1
					c-0.3-0.1-0.5,0-0.8,0c0,0.2,0,0.4-0.2,0.4c-0.2,0-0.3-0.1-0.4-0.1l0,0.2h-0.1c-0.1,0.1-0.1,0.2-0.3,0.2c0,0.1,0,0.3,0,0.3h-0.2
					l0,0.1H173c0,0.2-0.2,0.1-0.3,0.1l0,0.1l-0.1,0c0,0.2,0,0.3-0.2,0.3v0.5l-0.2,0.1l0.1,0H172c-0.1,0.2-0.3,0.3-0.4,0.4
					c-0.2,0.2-0.1,0.5-0.2,0.7h-0.1c-0.1,0.2,0,0.3,0,0.5h-0.1l0,0.3h-0.3c0,0.2-0.1,0.3-0.3,0.3c-0.1,0.4,0,0.8,0,1.2h-0.1
					c0,0.1,0,0.3,0,0.4l-0.1,0.1c-0.1,0.1-0.1,0.3-0.2,0.4c-0.1,0.1,0.1,0.3,0.1,0.5c-0.1,0.4,0,0.8-0.1,1.2c0,0.3-0.1,0.7-0.2,1
					h-0.1c-0.1,0.1-0.1,0.3-0.1,0.4c-0.2,0.4-0.1,0.9-0.1,1.4l0.1,0.1c0,0.3,0.1,0.7,0,1h-0.2c0,0.4,0,0.8-0.1,1.2h-0.1v0.2l0.2,0.1
					c0.1,0.2,0,0.3-0.1,0.4c-0.1,0.1-0.1,0.4,0.2,0.4c0,0.5-0.2,1-0.1,1.5h0.2v0.3h-0.1c0,0.1-0.1,0.2-0.1,0.3l0,0.3
					c0,0.4,0,0.7,0,1.1c0.2,0,0.2,0.4,0.1,0.5c0.1,0,0.3,0,0.3,0c0.1,0.2,0.2,0.3,0.1,0.6c-0.1,0.2-0.3,0.4-0.3,0.7l0.2,0.1
					c0.1,0.4,0,0.7-0.1,1.1c0.1,0,0.2-0.1,0.3,0c0.1,0.2,0,0.3,0.1,0.5c0.2,0.4,0.1,0.8,0.3,1.2h0.2l0.2,0.1
					c0.1,0.2,0.1,0.5,0.1,0.7h-0.1v0.1c0.2,0.2,0.4,0.2,0.6,0.2l0.1,0.2l-0.2,0.1c-0.1,0,0,0.3,0,0.4c0.1,0.2,0.3,0.2,0.4,0.3
					c0.3,0.2,0.2,0.6,0.2,0.9c0.5-0.1,0.1,0.5,0.4,0.7c0.2,0.1,0.4-0.1,0.6,0.1v0.2c-0.1,0.1-0.3,0-0.2,0.1l0.2,0.3
					c0.1,0.2,0,0.4,0.1,0.5c0.1,0.1,0.2,0.3,0.3,0.4l0.2,0.1c0.2,0.1,0.2,0.3,0.4,0.4c0.2,0.1,0.4,0,0.6,0.1
					c0.1,0.1,0.2,0.1,0.3,0.2c0.1,0.2,0.1,0.5,0.4,0.6c0.1,0.1,0.2,0,0.4,0.1c0.2,0.1,0.3,0.5,0.5,0.7c0.1,0.1,0.3,0.1,0.5,0l0.3,0
					c0,0.1,0.1,0.2,0.2,0.2c0.3,0.1,0.7,0,1,0c0.1,0.2-0.1,0.1,0.2,0.2c-0.2,0,0.1,0-0.2,0c0.3,0.3,0.7,0.2,1.1,0.2
					c0.1,0.2,0.3,0.1,0.5,0.1c0.2,0,0.5,0.1,0.6,0c0.2-0.1,0.4-0.3,0.6-0.2c0.1,0.1,0.3,0.1,0.4,0.1c0.2,0.1,0.4,0.1,0.5-0.1
					c0.1-0.2,0.4-0.2,0.6-0.3l0.1-0.1c0.1-0.1,0.3,0,0.4,0c0.1,0,0.2-0.1,0.2-0.3c0.2,0,0.3,0,0.4-0.1l0.1-0.4
					c0.2-0.1,0.4,0,0.5-0.1c0.2-0.2,0.5-0.1,0.7-0.2v-0.2c0.2-0.1,0.2-0.3,0.3-0.4l0.1-0.1v-0.2l0.2-0.1v-0.1l0.1-0.1
					c0.2-0.1,0.1-0.3,0.1-0.5l0.1-0.2c0.2,0.1,0.3-0.1,0.4-0.2c0.2-0.2,0-0.5,0.2-0.8c0-0.1,0.3,0,0.4,0c0-0.3,0-0.7,0.4-0.7
					c0,0,0.1-0.2,0.1-0.3c0-0.1,0.1-0.3,0.2-0.4l0.2-0.1c0.3-0.3,0.1-0.9,0.1-1.3l-0.2-0.1c0-0.2-0.1-0.4,0.2-0.4
					c0.2-0.4,0-0.8,0.2-1.2l0.1-0.1c0.1-0.2,0-0.5,0-0.7l-0.2-0.1c0-0.2-0.2-0.4-0.1-0.6c0.1-0.2,0.2-0.4,0.3-0.6
					c0.1-0.3,0.3-0.7,0.2-1.1c-0.1-0.3-0.2-0.7-0.3-1.1c0.1,0,0.4,0,0.3-0.1c-0.1-0.1-0.1-0.2-0.2-0.2c-0.1-0.1-0.3-0.1-0.3-0.2
					v-0.3l0.2,0c0-0.3,0-0.6,0-0.9l-0.1-0.1c-0.1-0.2,0.1-0.4,0-0.6c-0.1-0.1-0.2-0.1-0.3-0.1c0.1-0.2,0-0.4,0.1-0.7
					c0-0.1,0.2-0.3,0.1-0.4c-0.1-0.2-0.2-0.3-0.3-0.5c-0.1-0.1,0-0.3-0.1-0.4l-0.2-0.2c0-0.2,0-0.4-0.1-0.6h-0.1
					c0-0.8,0.2-1.6,0.1-2.4h-0.1l-0.1-0.3l-0.3-0.2c-0.1-0.2,0.1-0.5-0.1-0.5c-0.2-0.1-0.2-0.2-0.2-0.4l0.1-0.1c0-0.2,0.1-0.3,0-0.4
					c-0.1-0.2-0.2-0.4-0.3-0.7l-0.1,0v-0.6l0-0.3c-0.2-0.1-0.3-0.2-0.4-0.3c0-0.2,0.1-0.3,0.1-0.4c-0.1-0.3-0.2-0.5-0.5-0.6
					l-0.2-0.3c0-0.1,0-0.2-0.1-0.4c-0.1-0.1-0.2-0.2-0.2-0.3L184,110c-0.1-0.2-0.2-0.2-0.3-0.3c-0.2-0.6-0.6-0.9-1-1.3l-0.1-0.1
					c-0.1-0.1-0.2-0.2-0.3-0.2c-0.1-0.1-0.2-0.2-0.3-0.3l-0.2,0c-0.2-0.1-0.3-0.3-0.5-0.3l-0.1-0.1c-0.2-0.1-0.4-0.1-0.6-0.2
					c-0.1-0.1-0.1-0.2-0.2-0.3c-0.2-0.2-0.4-0.2-0.6-0.3c-0.3-0.1-0.6,0-0.9-0.1l0-0.1c-0.2-0.1-0.4,0-0.6-0.1
					c-0.2-0.1-0.4,0-0.6-0.1l-0.1-0.1C177.4,105.8,177.1,105.9,176.8,105.8"/>
				<path class="st0" d="M207.3,76.5h-0.2c-0.1-0.1-0.2-0.3-0.3-0.5c-0.1-0.1-0.1-0.3-0.2-0.5l-0.1-0.1c0-0.2-0.1-0.5-0.3-0.6v-0.1
					l-0.1,0c0-0.2,0.1-0.4,0-0.5l-0.1-0.2c-0.1-0.5-0.1-1-0.2-1.6l-0.1-0.2c-0.1-0.6,0.1-1.2,0-1.8l-0.1-0.1c0-0.5-0.5-1.4,0-1.5
					c-0.3,0-0.2-0.4-0.3-0.5c-0.1-0.2-0.1-0.4,0-0.6l0.1-0.2c0.1-0.3-0.1-0.6,0-0.9c0.1-0.3,0.2-0.4,0.2-0.7l0.1-0.2
					c0.1-0.6,0.1-1.1,0.2-1.6c0-0.1,0-0.3,0.2-0.2c0-0.2,0-0.4,0.1-0.6c0.1-0.1,0-0.2,0.1-0.3c0.1-0.1,0-0.3,0.1-0.5
					c0.1-0.1,0-0.3,0.1-0.4l0.2,0c0.1-0.3-0.1-0.7,0.1-1c0.2-0.3,0.2-0.8,0.2-1.2l0.1,0l0.1-0.3l0.1,0c0-0.1,0.1-0.2,0.2-0.3
					c0.1-0.1,0-0.2,0.1-0.3l0.1-0.1c0-0.2-0.1-0.4,0-0.6c0.1-0.1,0.2-0.2,0.2-0.4h0.1v-0.1l0.1-0.1c0-0.2,0.1-0.5,0.2-0.6
					c0.1-0.2,0.1-0.4,0.4-0.6c0.1,0,0.1-0.3,0.2-0.4h0.2c0.2-0.3,0.3-0.7,0.7-0.7l0.2-0.3l0.4-0.1l0.1-0.2c0.2,0,0.5,0,0.5-0.3h0.1
					c0.1-0.2,0.1-0.3,0.2-0.4l0-0.2l0.2,0c0.1-0.1,0-0.2,0.1-0.4c0.1-0.1,0.3,0,0.4,0c0.1-0.1,0.2-0.2,0.2-0.3c0.2-0.1,0.4,0,0.5,0
					c0-0.2,0-0.5,0.1-0.6c0.1-0.1,0.4,0,0.6-0.1c0.2-0.1,0.4-0.1,0.7,0c0.2,0.1,0.3,0,0.5,0.1l0.1,0.1c0.2,0,0.5,0,0.6,0
					c0.1,0.1,0.2,0.2,0.3,0.2l0,0.1h0.1l0,0.3l0.2,0c0,0.3,0.3,0.5,0.5,0.7l0.1,0.3h0.1l0.1,0.1c0.1,0,0.3,0,0.3,0.1v0.2
					c0.2,0,0.2,0.1,0.3,0.2l0.3,0.1c0.1,0.2,0.1,0.3,0.2,0.4h0.2c0.1,0.2,0.1,0.3,0.1,0.4c0.1,0.1,0.1,0.2,0.2,0.2
					c0.2,0.3,0.1,0.7,0.2,1c0.2,0,0.7,0.5,0.4,0.5l0.1,0c0,0.1-0.1,0.2,0,0.3l0.1,0.1c0.1,0.2,0.1,0.4,0.2,0.6
					c0.1,0.2,0,0.5,0.1,0.8c0.1,0.3,0.1,0.6,0.1,0.9c0.3,0.1,0.2,0.5,0.3,0.7c0.1,0.1,0,0.3,0.1,0.4c0.1,0.1,0.1,0.3,0,0.4
					c-0.1,0.4,0.1,0.8,0,1.1c0.2,0.1,0.1,0.3,0.1,0.5c0,0.3,0,0.5-0.1,0.8l-0.1,0c0,0.2,0,0.3,0.2,0.3c0.1,0.5,0.1,1-0.1,1.5
					c0,0.1-0.1,0.2-0.1,0.3c0,0.4,0,0.9-0.1,1.3c0,0.2-0.1,0.4-0.2,0.6c0,0.3-0.1,0.7-0.2,1l-0.2,0.2c-0.1,0.4,0.1,0.8-0.1,1.2
					c-0.1,0.2,0,0.4-0.2,0.5c0,0.4,0,0.8-0.1,1.3l-0.2,0.1c-0.1,0.2-0.3,0.3-0.3,0.6c0,0.3,0.1,0.7,0,1v-0.1v0.1l-0.1,0.2
					c-0.1,0.2-0.2,0.4-0.2,0.5c-0.1,0.2-0.1,0.5-0.3,0.5c-0.3,0.1-0.2,0.6-0.4,0.7c-0.1,0.1-0.1,0.2-0.2,0.3h-0.1
					c0,0.2,0,0.4-0.1,0.4c-0.1,0.1-0.3,0-0.4,0.1c-0.1,0.1,0,0.3,0,0.5c-0.2,0.4-0.5,0.6-0.8,0.9l-0.1,0.2l-0.2,0
					c-0.2,0.2-0.5,0.3-0.6,0.6l-0.3,0c-0.3,0.1-0.5,0.3-0.8,0.4c-0.9,0.2-1.8,0.2-2.7,0.1l-0.1-0.1c-0.2-0.1-0.5,0-0.7-0.2v-0.1
					c-0.1-0.2-0.3-0.1-0.5-0.1c-0.1-0.1-0.3,0-0.4-0.1l-0.1-0.2c-0.1,0-0.3-0.1-0.3-0.2v-0.2c-0.1-0.1-0.1-0.2-0.2-0.1l0-0.3l-0.3,0
					l-0.1-0.1l-0.1-0.2c-0.2,0-0.3-0.2-0.4-0.3c-0.1-0.1-0.3-0.2-0.4-0.3c-0.1-0.1-0.2-0.2-0.3-0.3c-0.1-0.1-0.1-0.2-0.2-0.3"/>
				<path class="st0" d="M327,144.3v0.2c-0.1,0-0.2,0-0.2,0.1c-0.1,0.1,0,0.3-0.1,0.4l-0.2,0.1c-0.1,0.2,0,0.4-0.2,0.5
					c-0.3,0.1-0.3,0.4-0.3,0.7c-0.1,0.1-0.2,0.2-0.2,0.3c-0.1,0.1-0.3,0.2-0.4,0.4l-0.2,0.1c-0.2,0.1-0.4,0.2-0.6,0.4l-0.1,0.2
					c-0.1,0.3-0.4,0.4-0.7,0.6c-0.2,0.2-0.8-0.1-0.8,0.2l-0.1,0.1c-0.2,0.1-0.5-0.1-0.7,0.1h-0.1l0,0.1c-0.3,0-0.7,0-0.9,0.1
					c-0.4,0.2-1,0.2-1.4,0.5c-0.7,0-1.4,0-2.1,0.1l-0.2,0.1c-0.3,0.1-0.6,0.1-0.9,0.2c-0.3,0.1-0.7,0-1,0l-0.1,0.1
					c-0.5,0.2-1.1-0.1-1.5,0.3c-0.4,0.1-0.8,0.1-1.2,0.1c-0.7-0.1-1.5,0-2.3-0.1c-0.2,0-0.4,0.2-0.6,0.2c-1.3,0.1-2.6-0.1-3.9,0.1
					c-1.3,0.1-2.6,0-4,0.1c-0.1,0-0.2,0.1-0.3,0.1c-0.9,0.1-1.8-0.2-2.7-0.1c-0.1,0-0.2,0-0.3,0.1c-0.2,0-0.3-0.1-0.5-0.1
					c-1.5-0.1-2.9,0.2-4.3,0c-0.1,0-0.3-0.1-0.4-0.1c-0.2-0.1-0.4-0.1-0.6-0.2c-0.1,0-0.2,0-0.4,0c-0.2,0-0.3,0-0.5,0
					c-0.2,0.1-0.5,0.3-0.7,0.3c-0.3,0.1-0.6,0-1-0.1c-0.3-0.1-0.6-0.1-0.9-0.3c-0.5,0.1-1.1,0.2-1.6,0.2l-0.1-0.2l-0.3,0
					c-0.2-0.1-0.1-0.2-0.1-0.4c-0.3,0-0.5,0.2-0.7,0.5c-0.5,0-0.9,0.1-1.4,0h-0.1c-0.4-0.1-0.8-0.1-1.2,0c-0.4,0.1-0.8,0-1.1,0
					c-0.4,0-0.8,0.1-1.2,0c-0.2-0.1-0.4-0.1-0.7-0.2c-0.1-0.1-0.3-0.1-0.5-0.1c-0.5-0.1-1.1,0.1-1.6,0.1c-0.3,0-0.6-0.1-0.9-0.1
					c-0.6-0.1-1.2-0.1-1.8,0c-0.2,0-0.5,0-0.7,0.1c-0.2,0.1-0.5,0.1-0.8,0.1l-0.1-0.1c-0.7,0-1.4,0.2-2.1,0.1l-0.1-0.1
					c-0.2-0.1-0.5,0.2-0.7,0c-0.7,0-1.3,0-2,0l-0.1-0.1c-0.2,0-0.3,0-0.5,0c-0.5-0.2-1-0.2-1.5-0.2c-0.4,0-0.8,0.1-1.2,0l-0.1-0.1
					c-0.7-0.1-1.3,0.1-2,0l-0.2,0c-0.3-0.1-0.6,0.1-1,0.1c-0.7-0.1-1.3-0.3-1.9-0.4c-0.2,0-0.5,0-0.7,0c-0.2,0-0.2-0.2-0.4-0.3
					l-0.2,0c-0.4,0.2-0.9,0.3-1.3,0.2c-0.1,0-0.2-0.1-0.4-0.1c-0.8,0-1.6,0.1-2.4-0.1l-0.1,0.2c-0.1,0-0.3,0-0.4-0.1
					c-0.1-0.2-0.3-0.2-0.5-0.2v-0.1c-0.2,0-0.4,0-0.6,0l-0.2,0.1c-0.2,0.1-0.4,0.1-0.6,0.2c-0.2,0.1-0.4,0-0.6-0.1
					c-0.1-0.1-0.3-0.2-0.4-0.3c-0.2-0.1-0.5-0.2-0.7-0.1v0.1c-0.2,0-0.3,0.1-0.4,0c-0.1-0.1-0.2-0.2-0.3-0.2c-0.4-0.1-0.8,0-1.3,0.1
					c-0.1,0-0.3,0-0.4-0.1l0-0.1c-0.1-0.1-0.3,0-0.5-0.1c-0.2-0.1-0.5,0-0.8,0l-0.2,0.1c-0.4,0-0.7,0.2-1.1,0v-0.1
					c-0.4-0.1-0.7-0.1-1.1,0.1h0.1h-0.1c-0.1-0.1-0.2-0.3-0.3-0.4l-0.1,0c-0.2-0.3-0.6-0.1-0.9,0c-0.3,0.1-0.5-0.2-0.7-0.3l-0.1-0.2
					c-0.5-0.1-1.1,0-1.6-0.1l-0.1-0.1c-0.6-0.1-1.2-0.1-1.7-0.2l0-0.1c-0.4-0.1-0.9,0-1.3-0.2c-0.1-0.1-0.3,0-0.3,0.2h-0.2l-0.2-0.2
					c-0.2-0.1-0.5-0.1-0.7,0.1l0,0.1l-0.3,0h-0.3v-0.1c-0.1-0.1-0.3-0.2-0.4-0.3c-0.1-0.1-0.3,0-0.5,0.2h-0.1
					c-0.1-0.2-0.2-0.3-0.4-0.3c-0.2,0-0.3,0-0.4,0.1c-0.5,0.1-0.9-0.1-1.4-0.2c-0.2-0.1-0.5,0-0.7-0.1c-0.2-0.1-0.5,0-0.7-0.1
					l-0.1-0.2c-0.2,0-0.3,0-0.5,0c-0.2,0-0.4-0.2-0.7-0.2c-0.4,0-0.8,0.1-1.2,0c-0.3-0.1-0.7,0.1-1-0.1l-0.1-0.1
					c-0.4-0.2-0.8-0.1-1.1-0.1h-0.3v0.1c-0.1,0-0.3,0-0.4-0.1c-0.6-0.2-1.3-0.1-1.9-0.2l-0.1-0.1c-0.3-0.1-0.6,0-1-0.2
					c-0.1-0.1-0.3,0-0.5,0c-0.3,0.1-0.6-0.1-0.9,0c-0.1,0-0.3,0.1-0.4,0l-0.2,0c-0.3-0.1-0.5,0-0.8-0.1c-0.2-0.1-0.4-0.1-0.6-0.1
					l-0.1-0.1c-0.3-0.1-0.7,0-1-0.2c-0.1-0.1-0.3,0.1-0.3,0.2c-0.2,0-0.3-0.2-0.4-0.3c-0.1-0.2-0.3,0.1-0.3,0.3h-1.1
					c-0.1-0.2-0.4-0.1-0.6-0.1v-0.1c-0.3-0.1-0.7-0.1-1,0c-0.3,0-0.5-0.1-0.8,0c-0.2,0-0.3,0.2-0.5,0.1l-0.2-0.3
					c-0.1-0.1-0.2,0-0.4,0l-0.1,0.1c-0.3,0-0.5,0.1-0.8,0.1l-0.1,0.2c-0.2,0-0.4,0.1-0.6,0c-0.2-0.1-0.4-0.2-0.5-0.2
					c-0.5-0.1-1.1-0.1-1.6-0.2l-0.2-0.2l-0.2,0c-0.1-0.1-0.2-0.3-0.3-0.3c-0.1-0.1-0.3-0.1-0.4,0l-0.2,0.3h-0.1c0-0.1,0-0.3-0.2-0.3
					c-0.1-0.1-0.3,0.1-0.4-0.1l-0.1-0.1h-0.3l0,0.1c-0.3,0-0.6-0.1-1,0v-0.1c-0.3-0.1-0.7,0.2-1-0.1l0-0.2c-0.3,0-0.6,0.1-0.8,0.1
					c-0.1,0-0.1-0.3-0.3-0.4l-0.2-0.1l-0.1-0.2l-0.1-0.2c-0.2-0.2-0.6,0-0.6-0.3c-0.3,0-0.6,0-0.9,0l-0.1-0.2
					c-0.2-0.2-0.4-0.2-0.6-0.3l-0.2-0.2c-0.1-0.1-0.3,0-0.4-0.1c-0.1-0.2-0.1-0.4-0.3-0.5l-0.1-0.1c-0.1-0.1-0.1-0.3-0.1-0.4
					c-0.1-0.2-0.3-0.1-0.5-0.2l0-0.2c-0.1-0.2-0.2-0.3-0.3-0.5c-0.1-0.1-0.3-0.2-0.5-0.2c-0.2-0.2-0.2-0.4-0.2-0.6l-0.2-0.2l0-0.2
					c-0.2,0-0.3-0.1-0.5-0.2c-0.1,0-0.1-0.2-0.2-0.3l-0.2-0.2c-0.1-0.4-0.1-0.8-0.1-1.1c0-0.2,0-0.5,0-0.7l-0.1,0
					c0-0.6,0.1-1.2,0.1-1.9c-0.2-0.1-0.1-0.3-0.1-0.5l0.1-0.1c0.1-0.1,0.1-0.2,0.2-0.4c0.1-0.1,0.1-0.4,0-0.4
					c-0.2-0.1-0.2-0.4-0.1-0.5c0.1-0.1,0.1-0.2,0.2-0.2c0.1-0.1,0.1-0.3,0-0.4l-0.1-0.2l0.2-0.2l0-0.3c0.1-0.1,0-0.3,0.1-0.4
					c0.1-0.4,0-0.7,0-1.1l0.1-0.1c0.1-0.1,0-0.2-0.2-0.2c0.1-0.3,0-0.5,0.1-0.8l0.1-0.1v-0.2l0.2-0.1c0.1-0.2,0.1-0.4,0-0.6
					l-0.1-0.1c0-0.2-0.1-0.3,0-0.5l0.2-0.1c0-0.3,0.1-0.4,0.1-0.7l-0.1-0.1c0-0.2,0-0.5,0.1-0.6c0.1-0.2,0.2-0.3,0.2-0.5l-0.2,0
					l0.1-0.2c0.2-0.5-0.4-1.5,0.1-1.7c0.2-0.1,0.1-0.3,0.1-0.4l-0.1,0c0-0.1,0-0.2,0-0.3h0.1c0-0.1,0-0.3,0-0.5l-0.1,0v-0.6l-0.1,0
					v-0.2c0.1-0.1,0.2-0.2,0.2-0.3c0.1-0.2,0-0.4,0.1-0.6c0.1-0.2,0.2-0.3,0.2-0.5c0.1-0.5,0.1-0.9,0.1-1.4l0.1-0.2v-0.1l0.1-0.1
					c0-0.2-0.1-0.3,0-0.4l0.2-0.3c0.1-0.3,0-0.6,0.1-0.9l0.1,0c0-0.2-0.1-0.4,0-0.6c0.1-0.1,0-0.3,0.1-0.5c0.1-0.1,0.1-0.3,0.2-0.4
					h0.1c0.1-0.3,0-0.6,0.3-0.8c0.2-0.6,0-1.2,0.2-1.8c0.1-0.3,0-0.7,0.1-1l0-0.2c0-0.2,0.1-0.4,0.2-0.6c0.1-0.1,0-0.3,0.1-0.4
					c0.1-0.1,0.2-0.2,0.1-0.3l-0.1,0c-0.1-0.4,0-0.7,0.1-1c0.1-0.1,0.1-0.3,0.2-0.4c0.1-0.2,0.1-0.4,0.1-0.6c0-0.6,0.1-1.1,0-1.7
					l0.2-0.1c0.1-0.4,0-0.8,0.1-1.2l0.1-0.2c0.1-0.2,0-0.4,0.1-0.5c0.1-0.3,0.1-0.5,0.3-0.7l0.2-0.2c0.1-0.1,0.1-0.2,0.1-0.4
					l0.2-0.1l0.1-0.2h0.1c0-0.1,0-0.3,0-0.3c0.2-0.1,0.1-0.3,0.3-0.4h0.1c0.1-0.1,0-0.3,0.2-0.2c0-0.2,0.1-0.4,0.1-0.6l0.1,0
					c0-0.1,0-0.2,0.1-0.2l0.1-0.3c0.1-0.1,0.2-0.1,0.3-0.2l0.1-0.3l0.2-0.2l0.1-0.1l0-0.2l0.2-0.1l0-0.3c0.1,0,0.2,0,0.4,0l0.1-0.1
					l0.1-0.2l0.2-0.1l0-0.1l0.2-0.2c0.1-0.1,0.3,0,0.3-0.2c0.2,0,0.3,0,0.4,0V96l0.3,0.1l0.1-0.1c0.6,0,1.2,0,1.8,0
					c0.4,0,0.7,0.1,1,0.2c0.1,0,0.3,0.2,0.3,0.3c0,0.2,0.2,0.1,0.3,0.1c0.1,0.1,0.3,0.1,0.4,0.1c0.2,0.1,0.4,0.3,0.4,0.5
					c0.1,0,0.3,0,0.3,0l0.2,0.1c0.1,0.1,0.2,0.2,0.4,0.3c0.1,0.1,0.2,0.3,0.2,0.5c0.2,0,0.4,0,0.4,0.1c0.1,0.2,0.3,0.4,0.3,0.5
					c0,0.2,0.1,0.4,0.3,0.4c0.1,0,0.1,0.1,0.1,0.3l0.1,0.1c0.1,0.2,0.2,0.2,0.2,0.3c0,0.2,0.1,0.3,0.2,0.4l0,0.3
					c0.1,0.1,0.2,0.3,0.3,0.5c0.1,0.1,0,0.4,0,0.6v-0.1c0.2,0.4,0.1,0.9,0.2,1.3c0.1,0.1,0.2,0.2,0.2,0.4l0.1,0.1l-0.1-0.1l0.1,0.1
					c0,0.7,0,1.4,0.1,2.1c0,0.3,0,0.6,0,0.8l0,0.2c0,1.1-0.1,2.2-0.1,3.4c0,0.3,0,0.7-0.1,1c-0.1,0.2,0,0.5-0.1,0.7
					c-0.1,0.3,0,0.5-0.1,0.8c-0.1,0.4-0.1,0.8-0.2,1.1l-0.1,0.1c0,0.1,0,0.3,0,0.4l-0.1,0.2c-0.1,0.2-0.1,0.3-0.2,0.5
					c-0.1,0.3-0.1,0.7-0.2,1.1l-0.1,0.1c0.1,0.3-0.1,0.5-0.1,0.8h-0.1l-0.1,0.2l0,0.1c-0.1,0.2,0,0.5-0.1,0.6
					c-0.1,0.3,0,0.7-0.4,0.9c0,0.3-0.1,0.7-0.2,1l-0.1,0.1c0,0.2,0.1,0.4,0,0.5c-0.1,0.2,0,0.5-0.1,0.6c-0.2,0.2-0.3,0.5-0.3,0.7
					l-0.1,0.1c-0.1,0.2,0,0.3-0.1,0.5c-0.1,0.1-0.1,0.3-0.2,0.4l-0.1,0.1c0,0.2,0,0.3-0.1,0.5h-0.1c-0.1,0.2,0,0.4-0.1,0.6l-0.1,0.1
					c0,0.1,0,0.3-0.1,0.3l-0.2,0.2c-0.1,0.2-0.2,0.4-0.2,0.6c0,0.2,0,0.4-0.1,0.6l-0.1,0.1c0,0.3,0,0.5-0.1,0.8
					c0,0.1-0.1,0.2-0.1,0.4l-0.2,0.2c-0.2,0.3,0,0.9-0.4,0.9c0,0.2,0,0.4-0.1,0.5c-0.1,0.2-0.5,0.1-0.4,0.4l0.1-0.1
					c0,0.2,0.2,0.2,0.4,0.3l0.1,0.2c0.3,0,0.5,0,0.8,0l0.2,0.2l0.1,0.2v0.2c0.3,0.2,0.7,0.3,1.1,0.4l0.1,0.1
					c0.2,0.1,0.5,0.1,0.8,0.1c0.3-0.1,0.5-0.1,0.8,0c0.1,0,0.2,0.2,0.3,0.2c0.2,0.1,0.7-0.1,0.7,0.2c0.3,0.1,0.7,0,1,0.1l0.1,0.2
					c0.2,0.1,0.4,0,0.6,0c0.1,0,0.1,0.1,0.1,0.2c0.1,0,0.3-0.1,0.3-0.3c0.1-0.1,0.2,0,0.3,0.1c0.1,0.1,0.3,0,0.5,0.1
					c0.2,0.1,0.3,0.1,0.5,0.2v0.1c0.3,0,0.7-0.1,1,0l0,0.1c0.2,0.1,0.4,0.1,0.5,0c0.1-0.1,0.2-0.1,0.4-0.1c0.1,0.1,0.1,0.2,0.3,0.2
					c0.2,0.1,0.4,0.1,0.6,0c0.3-0.2,0.5,0,0.7,0c0.1,0.3,0.5,0.3,0.7,0.5l0.2,0.2c0.3,0.1,0.7,0,1,0.1l0,0.1
					c0.5,0.1,0.9-0.1,1.3,0.1l0.1,0.1c0.2,0,0.4,0.1,0.6-0.1c0.1-0.1,0.2-0.1,0.4,0v0c0.4,0.1,0.8-0.1,1.2,0l0.1,0.2v0.1
					c0.4,0.2,0.9,0.2,1.4,0.2c0.2,0,0.5-0.1,0.7,0c0.1,0.1,0.2,0.1,0.4,0.1l0.1,0.1c0.5,0,1,0,1.4,0c0.2,0,0.2,0.2,0.2,0.3h0.2
					c0.1-0.1,0.2-0.2,0.4-0.2l0.1,0.2c0.4,0.1,0.8,0.2,1.3,0.1l0.2,0.1v0.1c0.2,0.2,0.4,0,0.6,0.1c0.2,0.1,0.4,0.1,0.6,0l0-0.1h0.3
					c0.1,0.2,0.3,0.1,0.5,0.2l0,0.1c0.2,0,0.5-0.1,0.7,0l0.1,0.2c0.3,0.1,0.6,0,0.9,0.1c0.2,0,0.4,0.1,0.5,0c0.3-0.1,0.6-0.1,0.9,0
					l0.1,0.1c0.2,0,0.3,0,0.5,0l0.1,0.1c0.1,0,0.3,0,0.5,0c0.2,0.1,0.3,0.1,0.5,0.1c0.3,0.1,0.6,0,0.9,0l0.2,0.1c0.5,0,1,0,1.5,0.1
					c0.4,0.1,0.8,0.1,1.3,0.1l0.1,0.1c0.3,0.1,0.5,0,0.7,0l0-0.1c0.1,0,0.3,0.1,0.5,0.2c0.2,0.2,0.5,0.1,0.7,0.2l0.1,0.3l0.5,0.1
					l0-0.2c0.7-0.1,1.3,0,2,0.1l0.3,0.2c0.2,0.1,0.4,0,0.6,0l0.1,0.1c0.2,0.1,0.4,0.2,0.5,0.2c0.9,0.3,1.9,0.2,2.8,0.4
					c0.5,0.1,1,0,1.5,0.1c0.6,0.1,1.1,0.2,1.7,0c0.4-0.1,0.9-0.1,1.3,0c0.2,0,0.3,0.1,0.5,0.1c1.1,0.2,2.2,0.1,3.2,0.2
					c0.1,0.2,0.3,0.1,0.5,0.1h1.1l0.1-0.1c0.2,0,0.3,0,0.5,0c0.3-0.1,0.7,0,1,0.2c0.2,0.2,0.6,0,0.8,0.1l0.2,0.1
					c0.3,0.1,0.5,0.1,0.7,0.2c0.4,0.1,0.7,0,1.1-0.1c0.6-0.2,1.3-0.2,2-0.1l0.2,0.1l0.1,0.2c0.1,0,0.3,0,0.4,0
					c0.9,0.3,1.9,0,2.8,0.2c0.5-0.1,0.9-0.1,1.4,0c0.2,0,0.4,0,0.5,0.1c0.4,0.1,0.8,0,1.2,0.1c0.3,0.1,0.7,0.3,0.9,0l0.1,0
					c0.6-0.1,1.3,0,1.9,0.1c0.3,0,0.7,0,1,0.1l0.3,0.2c0.1,0,0.3,0.1,0.3-0.1c0.5-0.1,1-0.2,1.5,0c0.2,0.1,0.4,0.1,0.7,0.1
					c0.9,0.2,1.7,0,2.5,0.2l0.1,0.1c0.9,0,1.7,0,2.6-0.1c1.1-0.1,2.1,0,3.1,0l0.2,0l0.1,0.1c0.2,0.1,0.4,0,0.6,0.2
					c0.1,0.1,0.3-0.1,0.4-0.1c0.6-0.2,1.3,0.2,2,0c0.4-0.1,0.9,0,1.4-0.1l0.1-0.1c1,0,1.9-0.1,2.8,0c0.1,0,0.2,0,0.3,0.1
					c0.6,0.1,1.2-0.1,1.8-0.2l0.1-0.1c0.4,0,0.8,0,1-0.2l0.1,0c0.2-0.2,0.4-0.4,0.7-0.4h0.1c0.4,0,0.9,0,1.3-0.2l0.2-0.1
					c0.4-0.1,0.9,0,1.3-0.2c0.2-0.1,0.5-0.1,0.8-0.2c0.3-0.1,0.6,0,0.9,0c0.5-0.1,1,0,1.4-0.2l0.1-0.1c0.3-0.1,0.5,0,0.8-0.1
					l0.1-0.1c0.3,0,0.7,0.1,0.9-0.2l0.1-0.1c0.6-0.1,1.1-0.2,1.6-0.3l0.1-0.2c0.2,0,0.3,0,0.5,0l0.1-0.1l0.3,0
					c0.2-0.2,0.5-0.3,0.7-0.3l0.1-0.1c0.4,0,0.7-0.1,0.9-0.2c0.2-0.1,0.4,0,0.5-0.1c0.3-0.2,0.6-0.3,0.8-0.3
					c0.1-0.1,0.4-0.1,0.4-0.2c0.1-0.1,0.2-0.1,0.3-0.2v-0.1c0.1,0,0.2,0,0.3,0h0.1h0.5l0.1-0.2c0.2-0.1,0.4,0,0.6-0.2
					c0.1-0.1,0.3,0,0.4-0.1l0.1-0.1c0.1-0.1,0.3,0,0.5-0.1c0.2-0.1,0.4-0.2,0.6-0.3c0.1-0.1,0.4,0,0.6,0c-0.1-0.2,0.2-0.1,0.3-0.2
					l0-0.1c0.2,0,0.4,0,0.5-0.1l0.2-0.2h0.2l0.1-0.1h0.1c0.2-0.1,0.3-0.3,0.5-0.4c0.2-0.1,0.4-0.1,0.6-0.2l0.1-0.2
					c0.2,0,0.2-0.1,0.3-0.2c0.2-0.1,0.4,0.1,0.6-0.1l0.1-0.2h0.3l0.2-0.2c0.1-0.1,0.2,0,0.3,0c0.1-0.1,0.2-0.1,0.3-0.2h0.1l0.1-0.1
					h0.3l0.2,0.2c0.2,0.2,0.5,0.2,0.6,0.4l0.2,0.3l0.2,0.1c0.1,0.3,0.1,0.6,0.1,0.9l0.2,0c0,0.2,0,0.5,0,0.8c0,0.1-0.2,0.1-0.2,0.1
					c-0.1,0.2-0.1,0.5,0,0.7l0.2,0.2c0,0.1,0.1,0.2,0.1,0.3c0,0.5,0,0.9-0.1,1.5l-0.1,0.1c-0.1,0.1,0,0.3,0,0.4
					c-0.1,0.1-0.2,0.2-0.2,0.4c0,0.3,0,0.7-0.1,0.9l-0.2,0c-0.2,0.1,0,0.4-0.1,0.5c-0.1,0.1-0.1,0.2-0.1,0.3h-0.1v0.2l0,0.2
					c-0.3,0.3-0.3,0.7-0.4,1.1l-0.1,0.1c-0.1,0.6-0.1,1.2-0.2,1.8c0,0.2,0,0.3,0.1,0.5c0.1,0.1,0.1,0.4,0,0.5
					C327.1,144,327,144.1,327,144.3"/>
				<path class="st0" d="M293.2,43c-0.1,0.5,0.1,1.2-0.1,1.7c-0.1,0.2-0.1,0.5-0.2,0.8c-0.2,0.3-0.1,0.8-0.2,1.1
					c-0.1,0.3,0,0.7-0.2,1c-0.1,0.1-0.1,0.2-0.1,0.4h-0.1c0,0.6-0.1,1.2-0.2,1.8l-0.1,0c0,0.3-0.1,0.7-0.1,1l-0.1,0.2
					c-0.2,0.2-0.1,0.5-0.2,0.7h-0.1c0,0.2,0,0.4-0.1,0.5l0,0.3l-0.1,0.1c0,0.3,0.1,0.5-0.1,0.7c-0.1,0.1,0,0.2-0.2,0.2
					c0,0.2,0,0.3-0.1,0.4c-0.1,0.2-0.1,0.3-0.2,0.5c0,0.1,0,0.2,0,0.3l-0.1,0.1h-0.1l-0.1,0.2c0,0.1-0.1,0.2-0.1,0.3
					c-0.1,0.3-0.2,0.6-0.3,0.8c-0.1,0.1-0.2,0.3-0.2,0.4c0,0.2-0.1,0.2-0.2,0.3v0.1l-0.2,0.2c-0.1,0.1-0.2,0.3-0.3,0.5l-0.2,0.3H289
					c-0.1,0.2-0.2,0.4-0.3,0.5c-0.1,0.2-0.3,0.3-0.4,0.5c-0.1,0.1-0.2,0.2-0.2,0.3c-0.2,0.2-0.3,0.4-0.5,0.6l-0.2,0.2l0,0.1
					c-0.3,0.2-0.4,0.4-0.6,0.6h-0.1c-0.1,0.1-0.1,0.3-0.2,0.4l-0.2,0.1c0,0.1-0.2,0.3-0.3,0.3c-0.2,0-0.2,0.2-0.2,0.3l-0.2,0.1
					c-0.3,0.2-0.4,0.6-0.8,0.8l-0.1,0.1c-0.1,0.1-0.2,0.3-0.4,0.4l-0.2,0.2l-0.2,0.3V64h-0.1c-0.1,0.2,0,0.3-0.2,0.4l-0.2,0.1
					c-0.1,0.3-0.3,0.3-0.5,0.3l-0.2,0.3c-0.1,0.1-0.3,0.2-0.4,0.3c-0.2,0.2-0.5,0.3-0.7,0.5c-0.2,0.2-0.4,0.3-0.6,0.5
					c-0.1,0.1-0.2,0.2-0.3,0.3c-0.2,0.1-0.4,0.2-0.5,0.4l-0.3,0.1c0,0.1-0.1,0.2-0.1,0.3l-0.2,0.1c0,0.2-0.2,0.2-0.3,0.3l-0.2,0.1
					c-0.2,0-0.3,0-0.5,0.1c-0.1,0-0.2,0.1-0.3,0.2c-0.3,0.2-0.7,0.4-1.1,0.5c-0.1,0.1-0.3,0-0.4,0.1c-0.1,0.1-0.2,0.2-0.4,0.3
					c-0.1,0.1-0.3,0.1-0.4,0c-0.1-0.1,0-0.3,0.1-0.4c0.1-0.2,0-0.5,0.1-0.7l0.1-0.1c0.1-0.2,0-0.4,0.2-0.5c0-0.3,0-0.6,0-0.9
					c0-0.1-0.2-0.1-0.2-0.1l0-0.2h0.1c0-0.2,0-0.4,0-0.6l-0.1-0.2c-0.1-0.3-0.4-0.5-0.4-0.8v-0.1l-0.2-0.2c-0.1-0.2-0.2-0.3-0.3-0.5
					c-0.1-0.1-0.2-0.2-0.3-0.3l-0.3-0.1c-0.1-0.1-0.1-0.2-0.1-0.4l-0.3-0.2l0-0.1c-0.1,0-0.2-0.1-0.3-0.2l-0.2,0v-0.1
					c-0.2-0.1-0.5,0-0.7-0.3l-0.3,0l-0.2-0.2c-0.4-0.2-0.8,0.1-1.2-0.1l-0.3-0.1c-0.4-0.2-0.8,0-1.2-0.2c-0.3-0.1-0.5-0.1-0.8,0
					l-0.3,0.2c-0.5,0.1-0.9,0.2-1.4,0.3c-0.1,0-0.2,0.2-0.3,0.3c-0.1,0.1-0.3,0.1-0.5,0.1v0.2c-0.1,0-0.2,0-0.3,0
					c0.1,0.2-0.1,0.2-0.3,0.2c-0.4,0.1-0.7,0.1-1.1,0l0-0.2c-0.1,0-0.3,0-0.4,0c-0.1,0.1-0.3,0-0.3,0.1c-0.1,0.1,0,0.3-0.1,0.4
					c0,0.1-0.1,0.1-0.3,0.1c-0.2,0.1-0.6-0.1-0.8,0l-0.1,0.1h-0.3v0.1l-0.2,0.1c-0.3,0.2-0.7,0.1-1.1,0.1l-0.1,0.1
					c-0.3,0.1-0.5,0.1-0.8,0.1l-0.1-0.1h-0.3l-0.2,0.1c-0.1,0.1-0.2,0-0.4,0l0-0.1h-0.3l-0.1,0.1c-0.2,0.2-0.6,0.1-0.8,0.2
					c-0.2,0.1-0.5,0.1-0.7,0v-0.1c0.1-0.2,0.3-0.4,0.2-0.6c-0.1-0.1-0.1-0.2,0-0.4l0.2-0.1c0.2-0.1,0.1-0.4,0.1-0.6h-0.1l0.1-0.3
					c0.1-0.1,0.1-0.4,0.1-0.6l-0.2-0.1c0-0.2,0-0.3,0.1-0.4h0.2l0.1-0.3c0.1-0.3,0.1-0.6,0.2-0.8l0.2-0.2c0.1-0.2,0.2-0.4,0.2-0.6
					l0.1-0.1c0-0.2,0-0.3,0-0.5h0.2c0-0.2,0-0.4,0.1-0.6c0.1-0.1,0.2-0.4,0.3-0.4h0.1c0-0.3,0.3-0.1,0.4-0.2c0.1-0.1,0-0.3,0.2-0.5
					c0-0.1,0.1-0.1,0.1-0.3l0.1,0l0.1-0.3c0.3-0.1,0.5,0.1,0.8-0.1l0.2,0l0.1,0.1c0.1-0.1,0.1-0.2,0.1-0.3h0.2
					c0.1-0.2,0.3-0.3,0.3-0.5c0.1-0.1,0.2-0.1,0.4-0.1l0.1-0.1h0.1l0.1-0.1c0.3,0,0.6,0,0.8-0.1l0.2-0.2c0.2-0.1,0.6,0,0.8-0.1
					c0.1-0.1,0.1-0.3,0.1-0.3c0.3-0.1,0.7,0,1-0.2l0.3-0.1c0.2-0.2,0.4-0.4,0.6-0.5c0.2-0.1,0.4-0.1,0.6-0.2l0.1-0.2
					c0.1,0,0.3,0,0.4,0l0.1-0.1c0-0.2,0.2-0.2,0.2-0.3l0.1,0l0.1-0.2l0.3-0.1l0.1-0.2c0.1,0,0.2,0,0.2-0.2h0.1l0-0.2
					c0.1,0,0.2,0,0.3,0c0.1-0.1,0.1-0.2,0.2-0.3l0.3,0c0.2-0.1,0-0.3,0.1-0.5c0-0.3,0.1-0.6,0.2-0.9l0.1-0.1
					c0.1-0.2,0.2-0.3,0.2-0.4c0.1-0.1,0-0.3,0-0.4c-0.1-0.2-0.1-0.4-0.3-0.4l0-0.1l0.2-0.2v-0.2l0.2-0.2c0.1-0.2,0.1-0.4,0.1-0.6
					c0.1-0.2,0.1-0.4,0-0.6l-0.1-0.1c-0.2-0.2,0.1-0.5-0.1-0.6l-0.2-0.1c-0.2-0.3-0.2-0.7-0.4-1h-0.2c-0.1-0.2,0-0.4-0.1-0.5l-0.3,0
					c-0.2-0.2,0-0.5-0.3-0.7c-0.1,0-0.1-0.2-0.2-0.3h-0.3c0-0.2,0-0.4-0.1-0.5c-0.2-0.2-0.5,0-0.7-0.1c-0.2-0.1-0.2-0.5-0.4-0.6
					c-0.1-0.1-0.4,0-0.5-0.1c-0.1-0.2-0.2-0.4-0.3-0.4c-0.3-0.1-0.6,0.1-0.9,0c-0.1-0.1-0.2-0.2-0.2-0.3c-0.1-0.1-0.3-0.2-0.4-0.3
					l-0.1-0.2c-0.3,0-0.5,0-0.7,0l0,0.1c-1.1-0.1-2.1,0-3.1-0.2v-0.3l0.2,0c0.1-0.1,0.1-0.3,0.2-0.4c0.1-0.1,0-0.2-0.1-0.3l0.1-0.2
					c0-0.2-0.1-0.4,0-0.6l0.2-0.1c0.1-0.3,0-0.7,0-1.1c0-0.2,0-0.4,0-0.6l0.1-0.1c0-0.2,0.1-0.3,0.2-0.4l0.1-0.2h0.1
					c0-0.2-0.1-0.3-0.1-0.4c0-0.3,0.2-0.4,0.3-0.6v-0.2l0.2-0.2c0.2-0.2,0.1-0.6,0.4-0.8c0-0.3,0.1-0.7,0.1-1l0.1-0.1
					c0.6,0,0.3-0.7,0.4-1.1c0.1-0.2,0.2-0.3,0.3-0.4l0.1-0.1v-0.3c0.1-0.2,0.2-0.4,0.4-0.6c0.1-0.1,0.2-0.3,0.2-0.4
					c0-0.1,0-0.3,0.1-0.4l0.2-0.3l0-0.2c0-0.1,0.2-0.1,0.3-0.2l0.1-0.2l0.3-0.2l0.2-0.2c0.1-0.3,0.1-0.5,0.1-0.7l0.1-0.2
					c0.3-0.2,0.7-0.2,0.8-0.5h0.2l0.1-0.2c0-0.2,0.1-0.2,0.2-0.2c0.3-0.1,0.6-0.1,1-0.2c0.1,0,0.2-0.1,0.3-0.2
					c0.1-0.1,0.3,0,0.4-0.1c0.2-0.1,0.4,0,0.7-0.2c0.2-0.1,0.5,0,0.7,0v-0.1l0.2,0c0.1,0,0.2,0,0.4,0c0.1,0,0.2-0.2,0.3-0.1l0-0.1
					l0.2-0.1c1.2-0.1,2.4,0,3.6,0c1.5,0.1,3-0.1,4.5,0.1c0.1,0.2,0.4,0.2,0.6,0.2c0.4,0.1,0.7,0.1,1.1,0.2c0.3,0.1,0.5,0.2,0.8,0.2
					c0.1,0.1,0.4,0,0.5,0.1c0.3,0.2,0.5,0.3,0.7,0.4l0.2,0.1l0.1,0.2c0.1,0.1,0.4,0,0.4,0.1V28c0.1,0.1,0.2,0.1,0.3,0.2h0.1l0.1,0.1
					h0.1l0.1,0.1c0.1,0,0.3,0,0.4,0.1c0.1,0.1,0.3,0,0.4,0.1c0.2,0.2,0.6,0.2,0.7,0.4c0.1,0.2,0.3,0.1,0.5,0.2l0.2,0.2h0.1
					c0.1,0.1,0.2,0.1,0.3,0.1c0.1,0,0.3,0.1,0.4,0.3c0,0.1,0.2,0.1,0.3,0.1l0,0.1l0.2,0.2l0.3,0l0.2,0.2l0.2,0.1v0.2
					c0.2,0,0.3,0,0.3,0.2h0.1c0.1,0.2,0.2,0.1,0.3,0.2c0.1,0.1-0.1,0.2,0,0.3l0.2,0.2c0.3,0.2,0.5,0.4,0.6,0.7l0.2,0.4l0.2,0.1
					c0.1,0.1,0.1,0.2,0.3,0.3c0.1,0.1,0,0.3,0.2,0.3h0.1l0.1,0.2c0.1,0.1,0.3,0.2,0.5,0.4c0.2,0.2,0.1,0.4,0.3,0.7
					c0.1,0.1,0.1,0.3,0.1,0.4l0.1,0.1l0.1,0.2v0.2c0.1,0.2,0.1,0.3,0.2,0.5l0.1,0.2c0.1,0.2,0,0.4,0.1,0.6c0,0.2,0.1,0.4,0.1,0.6
					h0.1c0.1,0.3,0,0.6,0.1,0.8c0,0.1,0.1,0.2,0.1,0.3c0.1,0.2,0,0.4,0,0.7c0.1,0.3,0.1,0.6,0.2,0.9c0.1,0.3,0,0.7,0,1
					C293.2,41.7,293.3,42.4,293.2,43 M270.6,71.9c-0.1,0.2-0.4,0.1-0.7,0.1c-0.4,0-0.8,0.2-1.1,0c-0.1-0.1,0.1-0.3,0.2-0.3
					c0.3-0.1,0.7-0.1,1-0.1l0-0.1h0l0-0.1l0,0.1C270.4,71.5,270.8,71.6,270.6,71.9 M256.8,92.9c0.1-0.2,0.3-0.2,0.5-0.2l0.1-0.1
					c0.2,0,0.4,0,0.6,0l-0.1-0.1c0.2,0,0.3,0,0.5,0l0.2,0.1l0.1-0.3c0.1,0,0.2,0,0.4,0c0.1-0.1,0.1-0.2,0.1-0.3c0.2,0,0.5,0,0.5,0.3
					l0.1,0l0-0.1c0.2,0,0.3,0,0.5,0l0.2-0.1h0.2l0.1,0.1c0.2,0,0.4,0.1,0.5,0c0.1-0.2,0.4-0.1,0.6-0.2l0.1-0.1c0.3,0,0.7-0.1,1-0.1
					l0.1-0.2c0.2-0.1,0.5-0.1,0.6,0c0.1,0.2-0.2,0.3-0.4,0.5l-0.1,0.2l-0.2,0.1c-0.1,0-0.2,0.2-0.2,0.3c0,0.1-0.2,0.1-0.3,0.1
					l-0.1,0.1c-0.3,0.1-0.4,0.4-0.7,0.6c-0.2,0.1-0.3,0.2-0.4,0.3l-0.2,0c-0.3,0.2-0.6,0.4-1,0.7c-0.1,0.1-0.1,0.2-0.2,0.3
					c-0.1,0.1-0.3,0.2-0.3,0.3l-0.2,0.1c-0.2,0.1-0.3,0.3-0.4,0.5l-0.2,0l-0.1,0.3l-0.2,0.2l-0.2,0.2c-0.1,0-0.2,0.1-0.3,0.1
					c0,0.1-0.1,0.2-0.1,0.4l-0.1,0.1l-0.2,0.3c-0.3,0.1-0.5,0.2-0.7,0.4l-0.1,0.2c-0.3,0.1-0.6,0.3-0.9,0.4c-0.1,0.1-0.4,0.1-0.6,0
					c-0.2-0.1-0.1-0.4-0.1-0.7c0.4-0.3,0.3-0.8,0.4-1.3c0-0.1,0.1-0.3,0.1-0.4c0.1-0.2,0.1-0.4,0.1-0.6l0.1-0.1
					c0.1-0.3-0.1-0.7,0.1-1C256.1,93.4,256.5,93.2,256.8,92.9 M248.7,114.8c-0.1,0.3,0,0.5-0.1,0.8c-0.3,0.5-0.1,1.1-0.4,1.6
					c-0.7,0-1.4,0-2.2-0.1c-0.3-0.1-0.7-0.1-1-0.3c-0.2-0.1-0.6,0-0.8-0.2c-0.3-0.2-0.5-0.5-0.7-0.6c-0.1,0-0.3,0-0.4,0v-0.1l-0.2,0
					c-0.1-0.1-0.2-0.3-0.3-0.3c-0.1,0-0.3,0-0.3,0c-0.1-0.2-0.1-0.6,0.2-0.7c0.2-0.1,0.4,0,0.6-0.1c0.2-0.2,0.3-0.5,0.6-0.6
					c0.2-0.1,0.5-0.1,0.7-0.3c0.2-0.2,0.7-0.2,0.9-0.5l0.2-0.2l0.3,0l0.2-0.2c0.1-0.1,0.3,0,0.4,0l0-0.2h-0.2v-0.2
					c0.2-0.1,0.4,0.1,0.6,0c0.2-0.1,0.4-0.2,0.6-0.2h0.1l0.1,0.2c0.2,0.2,0.6,0,0.8,0.1c0.5,0.4,0.2,1.1,0.4,1.7
					C248.9,114.4,248.8,114.6,248.7,114.8 M298.4,40.6c-0.1-0.5,0-0.9-0.1-1.4c0-0.1-0.2-0.1-0.1-0.3c0.1-0.5-0.1-1.1-0.1-1.6
					c0-0.6,0-1.2-0.2-1.9l-0.1-0.2c0-0.3,0.1-0.7-0.2-1l-0.1-0.3c-0.1-0.2,0-0.4-0.1-0.5c-0.1-0.2-0.2-0.2-0.3-0.4l0-0.3
					c-0.1-0.2-0.3-0.2-0.4-0.4c-0.1-0.2-0.1-0.3-0.2-0.4c-0.1-0.1-0.2-0.2-0.3-0.4c-0.2-0.4-0.3-0.9-0.7-1.2l0-0.2
					c0.1-0.1,0-0.2,0-0.3l-0.3-0.2c-0.1-0.3-0.3-0.4-0.4-0.6l-0.2,0c-0.2-0.2-0.2-0.5-0.5-0.6l-0.2-0.2c-0.2-0.1-0.3-0.2-0.4-0.4
					l-0.2-0.2l-0.2-0.2l-0.3-0.1l-0.1-0.2h-0.3c-0.2-0.1-0.2-0.2-0.4-0.2v-0.2l-0.3,0l-0.2-0.2c-0.1-0.1-0.1-0.3-0.2-0.3
					c-0.1-0.1-0.4-0.1-0.6-0.3c-0.1-0.1-0.3-0.1-0.5-0.2c-0.2-0.1-0.3-0.1-0.5-0.2l-0.1-0.2l-0.2,0c-0.2-0.1-0.4-0.3-0.6-0.4
					c-0.2-0.1-0.4-0.1-0.7-0.2c-0.2,0-0.4-0.2-0.6-0.3h-0.1l-0.1-0.1c-0.2-0.1-0.4,0-0.6-0.2h-0.1c-0.1-0.2-0.3-0.2-0.4-0.3
					c-0.4-0.1-0.8-0.2-1.1-0.4c-0.1,0-0.2-0.2-0.3-0.3l-0.2,0c-0.2,0-0.4-0.1-0.6-0.2c-0.2-0.1-0.5-0.2-0.7-0.2
					c-0.3-0.1-0.6-0.3-1-0.4c-0.2-0.1-0.4-0.1-0.6-0.2c-0.4-0.1-0.9-0.2-1.3-0.2l-0.1-0.1c-0.2-0.1-0.3,0-0.5,0l0-0.1
					c-0.2-0.1-0.3-0.1-0.5-0.2c-0.2-0.1-0.6,0-0.8-0.1c-0.3,0-0.5-0.1-0.8-0.2c-0.9-0.1-1.7-0.1-2.5-0.2c-0.2,0-0.4,0-0.6,0
					c-0.5,0-1-0.1-1.5,0c-0.8,0.1-1.6,0-2.5,0c-0.8-0.1-1.6,0-2.4,0c-0.2,0-0.4,0-0.4,0c-0.1-0.3-0.1-0.7,0-1.1l0.1-0.2
					c0-0.2,0-0.3,0.1-0.5l0.2-0.2c0.1-0.1-0.1-0.2-0.1-0.3v-0.3h-0.1h0.1c0.1-0.2,0.2-0.5,0.2-0.7c0.1-0.5,0-1.1,0.2-1.6l0.1-0.2
					c0.1-0.2,0.1-0.4,0-0.6l0.1-0.2c0.1-0.3,0-0.5,0.1-0.7l0.1-0.1c0-0.2,0.1-0.5,0.1-0.7l-0.1-0.1c0-0.3,0-0.6,0.1-0.9
					c0.1-0.2,0-0.5,0.1-0.7c0.1-0.2,0-0.5,0-0.7V9.7c0-0.2,0-0.4,0.1-0.6c0.1-0.3,0.1-0.6,0-0.9l-0.1-0.2c0.1-0.3,0.1-0.7-0.1-1V6.9
					L269,6.7l0,0.1c-0.1-0.2-0.1-0.5-0.4-0.5c-0.1-0.2,0-0.5-0.1-0.7V5.4c-0.3-0.4-0.2-0.8-0.2-1.2c0-0.3-0.1-0.5-0.1-0.7l-0.1-0.1
					C268,3.2,268,3,267.9,2.9l0-0.2l-0.2,0l-0.1-0.2l-0.1-0.2c-0.1-0.4-0.3-0.7-0.6-0.9c-0.1-0.1-0.3-0.1-0.5-0.2
					c-0.1-0.1,0-0.2-0.1-0.4c-0.1-0.2-0.2-0.2-0.4-0.3l-0.3-0.1c-0.1-0.1-0.1-0.2-0.2-0.2c-0.2,0-0.4-0.2-0.6-0.2h-0.3l-0.1,0.2
					c-0.2,0.2-0.4,0-0.6,0.1c0,0.2-0.2,0.2-0.4,0.2l0,0.2c-0.1,0.1-0.3,0.1-0.3,0.2h-0.2c0,0.1,0,0.2-0.1,0.2v0.2h-0.2
					c-0.1,0.1,0,0.2,0,0.3c-0.1,0.1-0.2,0.1-0.2,0.2c-0.1,0.1-0.2,0.3-0.2,0.5c0.3,0,0.2,0.3,0.1,0.4l-0.2,0l0,0.2
					c-0.2,0.1-0.2,0.3-0.4,0.4h-0.1c0,0.2,0.1,0.4-0.1,0.5l-0.2,0.1c-0.1,0.2-0.1,0.5-0.2,0.7c0,0.2,0,0.3,0,0.5
					c0,0-0.2,0.1-0.2,0.2c-0.3,0-0.2,0.3-0.2,0.5h0.1c-0.1,0.3-0.1,0.5-0.1,0.7c0,0.1-0.1,0.2-0.2,0.2c0,0.2,0,0.3,0,0.5l-0.1,0.1
					c0,0.2,0,0.3-0.1,0.5l-0.1,0.1v0.2c-0.1,0.1-0.3,0.1-0.3,0.2c-0.1,0.2-0.1,0.5-0.1,0.7c-0.4,0.2-0.4,0.6-0.4,0.9h-0.1l0-0.1
					h-0.1l0,0.2c0,0.1-0.1,0.5-0.2,0.7h-0.2c-0.2,0.2,0,0.5-0.1,0.7c-0.1,0.1-0.2,0.2-0.3,0.4c-0.1,0.1-0.1,0.4-0.1,0.6l-0.1,0.1
					l0,0.2l-0.2,0.1c-0.1,0.4,0.1,0.8-0.1,1.2l-0.1,0v0.2l-0.2,0.1c0.2,0,0.1,0.2,0.2,0.3l0.1,0c0,0.1,0.1,0.3,0,0.3l-0.1,0.2
					c-0.1,0.3-0.2,0.6-0.2,0.9c0,0.1-0.2,0.2-0.2,0.3l-0.2,0.2l0.1,0.1c0,0.2,0.1,0.3,0,0.4c-0.1,0.2,0,0.4-0.1,0.5
					c-0.2,0.2-0.1,0.6-0.2,0.8v0.2c-0.1,0.1-0.3,0-0.3,0.1c-0.1,0.2,0,0.4,0,0.6c-0.3-0.1-0.2,0.2-0.3,0.5l-0.1,0.2l-0.1,0.1
					c0,0.3-0.2,0.5-0.2,0.8l-0.2,0.1c-0.1,0.2,0,0.4-0.1,0.6c-0.1,0.1-0.4,0-0.4,0.1c-0.1,0.2,0,0.5-0.1,0.7c-0.2,0.3-0.6,0.5-1,0.7
					l-0.2,0c-0.2-0.1-0.4,0-0.6,0.1l0,0.1h-0.2c-0.1,0.1-0.2,0.2-0.3,0.2l-0.1,0.1c-0.1,0.1-0.3-0.1-0.3,0l-0.2,0.2l-0.3,0v-0.1
					c-0.2,0.1-0.3,0.2-0.5,0.3l-0.2,0.2c-0.1,0-0.3,0-0.5,0c-0.3,0.1-0.7-0.1-0.9,0.2c-0.3,0.3-0.8,0.2-1.1,0.3
					c-0.2,0.1-0.4,0.1-0.6,0.2l-0.1,0.1l-0.3,0v0.1c-0.2,0.1-0.3,0.2-0.6,0.2l-0.1,0.1c-0.1,0-0.2,0-0.3,0l-0.1,0.2l-0.2,0.1
					c-0.1,0-0.2,0-0.3,0c-0.2,0.1-0.4,0.1-0.5,0.2l-0.2,0.2c-0.4,0-0.8,0.1-1.2,0.3h-0.2c-0.1,0.1-0.1,0.2-0.3,0.2l-0.1,0.1
					c-0.1,0-0.3,0-0.5,0l0,0.1h-0.1c-0.2,0.2-0.4,0.2-0.7,0.2c-0.2,0-0.3-0.1-0.5,0c-0.2,0.1-0.6-0.2-0.6,0.2
					c-0.3,0.1-0.6-0.1-0.7,0.1c-0.2,0.2-0.6,0-0.7,0.1c-0.1,0.1-0.2,0.2-0.3,0.2l-0.1,0.1c-0.5,0.1-1,0-1.5,0.1
					c-0.1-0.2-0.3-0.1-0.5-0.1v0.2c-0.1,0.1-0.2,0.2-0.3,0.2l0-0.2l-0.3,0c0,0.2-0.3,0.3-0.5,0.3c-0.3,0-0.5,0.1-0.8,0.1
					c0,0.1-0.2,0.1-0.2,0.2c0,0.1-0.3,0-0.5,0.1c-0.1,0.1-0.4,0-0.6,0.1l-0.1,0.3c-0.1,0-0.2-0.1-0.3,0l-0.1,0.1h-0.2l-0.2,0.2
					c-0.2,0.1-0.4,0-0.6,0.1l-0.2,0.2c-0.2,0-0.2,0.1-0.3,0.2c-0.3,0.1-0.7,0-1,0.1l-0.1,0.2c-0.2,0-0.4-0.1-0.5,0
					c-0.1,0.2-0.4,0.2-0.4,0.1c-0.2-0.2-0.4-0.1-0.6-0.1v0.1l0.1,0l-0.1,0.2c-0.1,0.1-0.3,0-0.4,0.1c-0.1,0.1-0.2,0.3-0.3,0.3
					c-0.1,0.1-0.3,0-0.4,0h-0.7l-0.1,0.1l-0.2,0.1c-0.3,0.1-0.4,0.4-0.7,0.5l-0.1,0.1c-0.3,0.2-0.7,0-1.1,0.1c0,0.2,0,0.4-0.2,0.5
					c-0.2,0.1-0.3,0.2-0.5,0.4h-0.2c-0.2,0-0.3,0.2-0.4,0.3l-0.3,0.1l-0.3,0.3c-0.1,0.1,0.1,0.4-0.1,0.5l-0.1,0.1l-0.2,0.3
					c-0.2,0.2-0.4,0.4-0.5,0.8l-0.1,0.1l0,0.3c-0.2,0.3-0.2,0.7-0.4,1l-0.1,0.1c-0.1,0.3-0.2,0.7-0.1,1c0.2,0.1,0.2,0.4,0.1,0.6
					l0,0.3l0.2,0c0.2,0.2,0.1,0.6,0.1,0.9c0.2,0,0.5,0,0.5,0.3c0.2,0,0.2,0.2,0.3,0.3c0.1,0.1,0.3,0.1,0.3,0.2c0.1,0.3,0,0.7,0.2,1
					h0.1l0.1,0.2c0.1,0,0.3,0,0.4,0c0.1,0.1,0,0.3,0.1,0.4c0.1,0.2,0.3,0.2,0.5,0.3c0.2,0.1,0.5,0.1,0.7,0.3l0.2,0.1l0.2,0.1
					c0.2,0.1,0.4,0.1,0.6,0.2c0.1,0.1,0.2,0.2,0.4,0.2c0.2,0.1,0.3,0.2,0.5,0.1l0,0.1c0.2,0,0.3,0,0.4,0.1l0,0.1
					c0.3,0.1,0.6,0,0.9,0.1c0.2,0.1,0.3,0.1,0.4,0.1h0.3l0.2,0.3l0.3,0.1c0.1-0.1,0.2-0.2,0.3-0.1l0.2,0.2c0.2,0.1,0.4,0.1,0.5-0.2
					c0.3,0.1,0.7-0.1,1-0.1c0.1,0.3,0.6,0.2,0.9,0.2c0.1-0.3,0.5-0.2,0.8-0.2l0.1,0.1c0.4,0,0.8,0.1,1.2,0.1
					c-0.1-0.2,0.1-0.4,0.3-0.4c0.5-0.1,0.9-0.1,1.4-0.2c0.1,0,0.3,0,0.4-0.1l0.1-0.3c0.2-0.1,0.5-0.3,0.7-0.1c0.1,0,0.4,0,0.4,0.1
					c0.1,0.2,0.2,0.5,0.5,0.3l0-0.1c0.2,0,0.3-0.1,0.4-0.2c0.1-0.2,0.3-0.1,0.5-0.2l0.3,0l0.1,0.2l0.2,0l0-0.2
					c0.1-0.1,0.2-0.2,0.3-0.2c0.2-0.2,0.4-0.4,0.4-0.7c0.2,0,0.5,0.1,0.8-0.1l0.1-0.2l0.3,0l0.1-0.3c0.2-0.1,0.3-0.1,0.5-0.1
					c0.4,0,0.2-0.7,0.1-1.1c0.3,0,0.7-0.1,1,0l0.3,0c0.1-0.1-0.1-0.3-0.1-0.4l0.3-0.1v-0.1c0.2-0.1,0.5,0,0.7-0.1
					c0.1,0,0-0.2,0.1-0.2c0.2,0,0.4,0,0.5-0.1l0.1-0.2l0.3,0c0.3-0.4,0.7-0.8,1.2-1l0.2-0.1c0-0.1,0.1-0.3,0.1-0.3
					c0.1-0.1,0.3,0,0.4-0.1c0.2-0.1,0.3-0.3,0.5-0.4l0.3-0.1c0.1-0.1,0-0.3,0.1-0.3c0.1-0.1,0.3,0,0.4-0.1l0.1-0.3
					c0.1-0.1,0.3-0.1,0.4-0.2l0.1-0.1c0.1-0.1,0.2-0.1,0.4-0.1h0.2l0.1-0.1l0.2-0.2c0.2-0.1,0.4-0.1,0.5-0.2l0.1-0.1
					c0.2-0.1,0.5-0.1,0.7-0.3h0.2l0-0.1l0.3,0l0.1,0.2c0.1,0.6,0.1,1.2,0.2,1.8c0.2,0,0.2,0.4,0.1,0.6c-0.1,0.1,0,0.4-0.1,0.6
					c0,0.1-0.1,0.2-0.1,0.2c-0.1,0.2-0.1,0.4,0,0.5c0.1,0.1,0.1,0.5-0.1,0.6l-0.2,0.3c-0.1,0.2,0.1,0.6-0.1,0.8l-0.1,0
					c0,0.4,0.1,0.7-0.1,1.1c-0.1,0.2,0.1,0.6-0.2,0.6c-0.1,0.2,0,0.4-0.1,0.6c-0.1,0.1,0.1,0.4-0.1,0.3c0,0.2,0,0.4,0,0.6
					c-0.1,0.1-0.2,0.2-0.2,0.3c-0.1,0.1,0,0.2,0,0.4l-0.1,0.1c-0.2,0-0.4,0-0.5,0.1l-0.1,0.3c-0.3,0-0.3,0.3-0.4,0.5h-0.2
					c-0.1,0.2-0.3,0.2-0.5,0.2l0,0.1l-0.3,0.1v0.2c-0.2,0.1-0.3,0-0.5,0.1c-0.1,0.1-0.3,0.2-0.3,0.1c-0.1-0.1-0.1-0.3-0.3-0.2
					l-0.1,0.1c-0.2,0-0.5,0-0.5,0.3c-0.2,0-0.5,0-0.6,0.2h-0.2c-0.1,0-0.2,0.3-0.3,0.2c-0.1-0.1-0.3-0.2-0.3-0.1
					c-0.1,0.1-0.2,0.2-0.2,0.3l-0.2,0.2c-0.3,0.2-0.7,0.1-1,0.3c-0.1,0.1-0.3,0.3-0.4,0.3c-0.4,0.2-0.8,0-1.2,0.1l-0.2,0.1
					c0,0-0.2,0-0.4,0c-0.2,0.1-0.4,0.2-0.5,0.4l-0.1,0.2c-0.2,0.1-0.3,0.2-0.5,0.2c-0.3,0.1-0.7-0.1-1.1,0.1c-0.1,0-0.1,0.2-0.1,0.3
					c-0.3,0-0.7,0-1.1,0.1v0.1l-0.2,0c-0.3,0-0.4,0.5-0.7,0.5c-0.2,0.1-0.5,0-0.7,0.1l-0.2,0.2c-0.2,0-0.3,0.1-0.5,0.1
					c0,0,0,0.2-0.1,0.2h-0.6l-0.1,0.1c0,0.1,0,0.3,0,0.3c-0.1,0.1-0.2,0-0.3,0l-0.1,0.1h-0.6c0,0.2-0.1,0.5-0.2,0.5
					c-0.1,0-0.2-0.2-0.3-0.1l0,0.1h-0.2l0,0.1l-0.2,0l-0.2,0.1c-0.1,0-0.2,0-0.3,0c-0.1,0.1-0.1,0.3-0.2,0.3c-0.1,0-0.3,0-0.4,0
					c-0.1,0.1-0.1,0.2-0.1,0.3l-0.1,0.1c-0.4,0-0.7,0.2-1,0.4c-0.3,0.2-0.1,0.6-0.2,0.9l0,0.3l-0.1,0.1v0.5l-0.1,0
					c0,0.3-0.1,0.5,0,0.7c0.1,0.2,0.1,0.4,0.1,0.5h-0.1l0,0.1c-0.3,0-0.1,0.5-0.2,0.8h0.1l0.2,0.2c0.1,0.1,0.1,0.3,0.2,0.3
					c0.2,0.1,0.3,0.4,0.4,0.6c0.1,0.1,0.2,0.3,0.3,0.3l0.2,0.2l0,0.3l0.2,0.1l0.1,0.3c0.2,0.1,0.3,0.1,0.5,0.2
					c0.1,0,0.1,0.3,0.2,0.3c0.1,0.1,0.3,0.1,0.4,0.1l0.1,0.2c0.1,0.1,0.3,0,0.4,0.1l0,0.2l0.3,0.1l0.1,0.2c0.2,0,0.4,0,0.6,0
					c0.4,0.1,0.8,0.1,1.2,0.3v0.1l0.2,0.2l0.1,0.2l0.1,0.1l0.3,0l0.2,0.1c0.2,0.1,0.4,0,0.6,0.1c0.1,0.1,0.2,0.1,0.3,0.1l0-0.1
					c0.3,0,0.6-0.1,0.8,0.1l0.2,0c0.2,0.2,0.5,0.3,0.7,0.2c0.1,0,0.2-0.1,0.3-0.1l0.1,0.1c0.2,0.1,0.4,0.1,0.6,0
					c0.2-0.1,0.4,0.1,0.6,0.1l0.2,0.3c0.2,0.1,0.4,0.1,0.6,0l0.2-0.1v0.1c0.1,0,0.2,0,0.3-0.1c0.2-0.1,0.4,0,0.6,0l0,0.1
					c0.1,0.1,0.3,0,0.5,0.1c0.1,0,0.2,0.2,0.4,0.1l0,0.1c0.2,0,0.3-0.1,0.4-0.1c0.1-0.1,0.3-0.1,0.4,0c0.2,0.1,0.3,0.1,0.5,0
					l0.2-0.3c0.2-0.1,0.5,0,0.7,0c0.1,0,0.2,0.1,0.3,0v0c0.4-0.1,0.7,0,1.1-0.2c0.1,0,0.1-0.3,0.2-0.3l0.2,0c0,0.2-0.1,0.5,0.2,0.7
					c0.2,0.1,0.2,0.3,0.3,0.5c0,0.4,0.1,0.9,0,1.3l-0.2,0.2l-0.1,0l-0.1,0c-0.2,0.3,0,0.7-0.1,1c-0.1,0.3-0.1,0.7-0.2,1.1l-0.2,0.2
					l-0.1,0.2c-0.2,0.1-0.2,0.2-0.3,0.3c-0.1,0.1,0,0.3-0.1,0.4c-0.2,0.2-0.5,0-0.7,0.1l-0.1,0.1c-0.2,0-0.4,0.1-0.5,0.2h-0.2
					l-0.1,0.1l-0.2,0c-0.3,0.2-0.5,0.3-0.9,0.3l-0.2,0.2c-0.2,0.1-0.5,0-0.7,0l-0.1,0.1c-0.3,0.1-0.6,0.1-0.9,0.2l-0.1,0.1
					c-0.1,0.1-0.3,0-0.4,0.1c-0.1,0.1-0.3,0.1-0.4,0.1c-0.4,0.1-0.8,0.1-1.2,0.2l-0.2,0.2c-0.4,0-0.7,0.2-1,0.3
					c-0.1,0.1-0.3,0-0.5,0l-0.2,0.2c-0.1,0.2-0.3,0-0.5,0.1c-0.1,0.1-0.3,0.1-0.3,0.2l-0.1,0.2c-0.4,0-0.7,0-1,0.2
					c-0.2,0.1-0.2,0.3-0.3,0.4h-0.2c-0.2-0.2-0.4-0.3-0.6-0.1c-0.2,0.2-0.5,0.3-0.7,0.5c-0.1,0.1-0.3,0-0.3,0.1
					c-0.1,0.1-0.2,0.2-0.4,0.2c0.1,0.2-0.1,0.3-0.2,0.3c-0.2,0.1-0.4,0.1-0.6,0.2h-0.2c-0.1,0.1-0.1,0.3-0.2,0.3
					c-0.1,0.1-0.3,0.1-0.4,0.2l-0.2,0.3l-0.2,0c-0.2,0.2-0.1,0.5-0.2,0.7c-0.1,0.3-0.1,0.6,0,0.9c0.1,0,0.2,0.1,0.2,0.2
					c0.1,0.1,0,0.4,0.1,0.5c0,0.1,0.1,0.2,0.1,0.3c0.1,0.2,0.2,0.3,0.3,0.5l0.2,0.1l0.1,0.2l0.2,0.1c0.1,0.2,0.2,0.4,0.3,0.5
					c0.1,0.1,0.1,0.3,0.3,0.3c0.2,0.1,0.3,0,0.4,0.1c0.2,0.2,0.4,0.2,0.6,0.3l0,0.2h0.1c0.1,0.1,0.1,0.3,0.1,0.5h0.2l0.3-0.1
					c0,0.1,0,0.3,0,0.3c0.2,0.1,0.5-0.2,0.7-0.1l0,0.1v0.1l0.2,0.2l0.2,0.1c0.3,0,0.7,0.1,1,0.2c0.4,0.1,0.9,0.1,1.3,0.2
					c0,0.2,0.2,0.2,0.3,0.3c0.1,0.1,0.1-0.1,0.2-0.1c0.6-0.1,1.1,0.1,1.6,0.1c0.2,0,0.4,0.1,0.7,0.1l0.2,0.1l0.3,0.1
					c0.3,0.2,0.6,0,0.9,0l0.2-0.1l0.2,0.2c0.4,0,0.8-0.1,1.1,0c0.2,0.1,0.5,0.1,0.7,0c0.2-0.1,0.4-0.1,0.6-0.1
					c0.2,0.1,0.3,0,0.4,0.1c0.2,0.2,0,0.6,0.2,1v0.3c-0.1,0.3,0,0.7,0,1.1l-0.1,0.1l0.1,0.2c0,0.6-0.1,1.2-0.1,1.9
					c0,0.2-0.1,0.5-0.2,0.7c-0.1,0.2-0.1,0.3-0.2,0.5c-0.1,0.1,0,0.2-0.1,0.3h-0.1l-0.1,0.2l-0.3,0.1c-0.1,0.1-0.2,0.2-0.3,0.2
					c-0.4,0.1-0.8,0.2-1.3,0.2v0.1c-0.3,0.2-0.6,0.3-0.9,0.2l-0.1-0.1l-0.1,0l-0.1,0.1c-0.1,0.1-0.3,0.1-0.4,0.1
					c-0.2,0.1-0.1,0.3-0.3,0.3c-0.6,0.1-1.1,0-1.7,0.2c-0.3,0.1-0.6,0.2-0.8,0.2l-0.1,0.1c-0.2,0-0.3,0.1-0.5,0.2
					c-0.2,0.1-0.6,0-0.8,0.1v0.1c-0.3,0.1-0.6,0-0.7,0.3c-0.6,0-1.1,0.1-1.7,0.1l-0.1,0.1c0-0.3-0.6,0-0.9,0l-0.1,0
					c-0.2,0-0.3-0.1-0.4,0c-0.3,0.2-0.5,0.1-0.8,0.2c-0.1,0.1-0.3,0-0.4,0l-0.1,0c0,0.2-0.2,0.3-0.4,0.3c-0.3,0.1-0.6,0-0.9,0.2
					l-0.1,0.3h-0.3c-0.2,0-0.4,0-0.5,0.1l-0.3,0.2l0,0.1v0.1c-0.2,0.1-0.3,0.1-0.4,0.2v0.1l-0.1,0c0,0.2-0.2,0.2-0.3,0.2l0,0.1v0.2
					c-0.2,0.1-0.4,0.1-0.5,0.3c-0.1,0.2-0.2,0.4-0.2,0.7c0,0.2-0.3,0.1-0.2,0.3l-0.2,0.1c-0.2,0-0.1,0.4-0.3,0.6l-0.2,0
					c0,0.1-0.1,0.2-0.1,0.4c0,0.2-0.1,0.4-0.2,0.6c-0.1,0.2,0,0.4-0.1,0.6c-0.1,0.1-0.2,0.2-0.3,0.3v0.1l-0.2,0.3
					c-0.2,0.3-0.1,0.6,0,0.9l0.2,0.3c0.2,0.1,0.1,0.4,0.2,0.5l0.2,0.1c0.1,0.1,0.2,0.1,0.3,0.1l0.1,0.3l0.2,0.2l0.3,0.1
					c0.1,0.1,0,0.2,0.1,0.3l0.3,0.1c0.1,0.1,0.1,0.3,0.1,0.4l0.2,0.1c0.2-0.1,0.4,0.2,0.7,0.2c0.3,0,0.5,0.1,0.7,0.2
					c0.1,0.1,0.3,0.2,0.5,0.2c0.3,0.1,0.6,0,0.9-0.2c0.2,0,0.3-0.2,0.6-0.2l0.1-0.1c0.1,0,0.2,0,0.4-0.1l0.2-0.2
					c0.1-0.1,0.3,0,0.4-0.1l0.2-0.1l0.1-0.3c0.2-0.1,0.4,0,0.5-0.1v-0.1l0-0.3c0.2-0.1,0.4,0,0.6-0.1c0.2-0.1,0.4-0.2,0.6-0.3
					c0.2-0.2,0.5-0.1,0.8-0.2l0.2-0.1c0.2-0.1,0.5,0,0.6-0.2l0.2-0.2c0.2,0,0.5,0.1,0.8,0.1c0.1,0,0.3,0,0.4,0L240,96l0-0.2
					c0.1-0.1,0.1,0.1,0.2,0.2c0.2,0.2,0.5,0.1,0.8,0.1l0.2-0.1v-0.1h0.2c0,0.2,0.2,0.2,0.3,0.2c0.5,0.1,1,0.1,1.4,0l0.1-0.1
					c0.3-0.1,0.6-0.1,0.8-0.1c0.1,0,0.2-0.2,0.3-0.1c0.4,0.1,0.7-0.1,1.1-0.2l0.2-0.1c0.4,0,0.9-0.2,1.3,0l0.1,0.2l0.1,0.3
					c0.1,0.2,0,0.6,0.1,0.9l0,0.2c0,0.5,0,1,0,1.6c0.1,0.6,0,1.1,0,1.7c-0.1,0.5,0.1,1-0.1,1.5l-0.2,0.1c-0.1,0.1-0.1,0.2-0.2,0.3
					c-0.1,0.1,0,0.5,0,0.7l-0.1,0.2l-0.2,0.1c0,0.1-0.1,0.3-0.2,0.3h-0.3c-0.1,0.1-0.1,0.3-0.2,0.3c-0.2,0.1-0.5,0-0.7,0.1
					c-0.1,0.1-0.1,0.3-0.2,0.3c-0.2,0.1-0.4,0.1-0.6,0.1c-0.1,0-0.1,0.1-0.3,0.2c-0.2,0.1-0.1,0.2-0.3,0.3v0.1l-0.1,0.1
					c0,0.1-0.1,0.2-0.2,0.2c-0.2,0.1-0.4,0-0.5,0.1c-0.3,0.2-0.5,0.5-0.8,0.8l-0.2,0.1c0,0.2-0.2,0.2-0.3,0.2l0,0.1
					c-0.1,0.1-0.2,0.1-0.2,0.2c-0.3-0.1-0.5,0.1-0.8,0.2l-0.1,0.1c-0.2,0.1-0.3,0.3-0.6,0.3l-0.2,0.2c-0.1,0.1-0.3,0.1-0.4,0.3h-0.2
					c-0.1,0.1-0.2,0.2-0.3,0.2c-0.4,0.1-0.7,0.2-1.1,0.3c-0.3,0.1-0.7-0.1-1,0.1c-0.3,0.2-0.6,0-0.9,0.2l-0.1,0.1l-0.3,0.2l-0.3,0.1
					h-0.2c-0.2,0-0.4-0.1-0.6,0c-0.1,0.2-0.2,0.3-0.4,0.4c-0.2,0.1-0.4-0.1-0.6,0.1l-0.2,0.2c-0.1,0.1-0.3,0.1-0.4,0.1
					c-0.2,0.1-0.2,0.3-0.3,0.4c-0.1,0.2-0.3,0.3-0.5,0.4c-0.1,0.1-0.2,0.3-0.3,0.5l0,0.2l-0.3,0.1c-0.1,0.1-0.1,0.2-0.1,0.4
					c0,0.1-0.1,0.2-0.1,0.4l-0.1,0.1c0,0.2,0,0.3-0.1,0.4c-0.1,0.1,0,0.3-0.1,0.4l-0.1,0.2c-0.1,0.1,0,0.3-0.1,0.4h-0.1v0.1
					l-0.2,0.1l-0.1,0.2c-0.2,0.4-0.1,0.8-0.1,1.1l0.1,0c0,0.2,0.1,0.3,0,0.4c-0.2,0.2-0.1,0.4-0.1,0.6l0.1,0c0,0.3,0.1,0.6,0,0.8
					l-0.1,0.1c-0.1,0.4-0.1,0.8-0.1,1.2c-0.3,0.2-0.3,0.5-0.4,0.8l-0.1,0.1c0,0.2-0.1,0.3-0.1,0.4c0,0.5-0.1,1,0,1.5l0.2,0.1
					c0,0.2,0.1,0.3,0.2,0.4l0,0.2c-0.1,0.2,0.1,0.3,0.4,0.4l0.1,0.2h0.1l0.1,0.2c0.1,0.2-0.1,0.5,0,0.8l0.2,0l0.1,0.3l0.2,0.1
					c0.1,0.2,0,0.6,0.1,0.8c0.1,0.1,0.2,0,0.3,0c0.2,0,0.2,0.2,0.3,0.3c0.1,0.1,0.3,0.1,0.4,0.2c0.1,0.1,0,0.3,0.1,0.4l0.3,0
					c0.1,0.1,0.1,0.2,0.2,0.2l0.2,0.1l0,0.1l0.3,0.1l0.2,0.1c0.1,0.1,0.1,0.3,0.1,0.4c0.3,0,0.6,0,0.7,0.1c0.3,0.2,0.5,0.4,0.8,0.6
					c0.2,0.1,0.6,0,0.8,0.1c0.3,0.1,0.6,0.1,0.9,0.1c0.7,0,1.3,0,2-0.2c0.3-0.1,0.7-0.1,1-0.2l0.2-0.1c0.3,0,0.5,0,0.8,0
					c0.2-0.1,0.3,0,0.5-0.1v-0.1c0.2-0.1,0.5-0.1,0.8-0.1c0.7,0,1.3,0,2,0c0.1,0,0.3,0,0.4,0c0.2,0,0.3,0,0.5,0
					c0.4,0.1,0.8-0.1,1.3,0l0.2,0.1c0.4,0.1,0.9,0,1.3,0.1c0.2,0.2,0.6,0.3,0.9,0.2c0.9-0.3,0.9,0.3,1.8,0.3l0.4,0.2
					c0.1,0,0.5,0.8,0.4,0.7c0.6,1,1,1.6,1,1.6c0,0.1,0.8,0.9,0.9,1l0.2,0.2c0.1,0.2,0.1-0.2,0.3,0l0,0.1l0.3,0.5
					c0,0.2,0.3,0.5,0.3,0.5l0.4,0.3l-0.1,0.2l0.6,0.6c0.3-0.1,0.7,0.3,0.9,0.2c0.1-0.1,0.3,0,0.4,0l0.6-0.1c0.2-0.1,0.7-0.5,0.8-0.7
					l0.4-0.4l0.5-0.8c0.1-0.1,0.2-0.3,0.3-0.3c0.1-0.1,0.1-0.3,0.2-0.5l0.1-0.4c0.1-0.1,0-0.4,0-0.5c0.1-0.4,0-0.7,0-0.8
					c0.2-0.5-0.3-0.5-0.1-0.6c0.1,0-0.2-0.8-0.1-0.8c0.6-0.1,1.6-0.1,2.2-0.3c0.5-0.1,1-0.1,1.5,0c0.3,0,0.5,0,0.8-0.1
					c0.3-0.1,0.6,0.1,0.9,0c0.2-0.1,0.4-0.1,0.5-0.1c0.1,0.1,0.3,0.1,0.5,0c0.2-0.1,0.3-0.3,0.7-0.3c0.4,0.1,0.8,0.1,1.2,0
					c0.1,0,0.2,0,0.3,0l0.1-0.2c0.2-0.1,0.2-0.1,0.4-0.2c0.1,0,0.3,0.1,0.4,0l0.1-0.2c0.2,0,0.4,0,0.6,0.1l0.2,0.1
					c0.2,0,0.5,0.1,0.6,0c0.1-0.1,0.1-0.2,0.2-0.2c0.4-0.1,0.8,0.1,1.1-0.2c0.1-0.1,0-0.3,0-0.4l0.1-0.1l0.3-0.1
					c0.3-0.2,0.6-0.3,0.8-0.6c0.2-0.3,0.5-0.2,0.8-0.3l0.3-0.1c0.2,0.2,0.4,0.4,0.7,0.3v-0.2c0.1-0.1,0.2-0.2,0.4-0.2v0.1l0.3,0
					c-0.1-0.2,0.1-0.4,0.3-0.5l0-0.1c0.3-0.1,0.6,0.1,0.8-0.1c0.2-0.2,0.4-0.3,0.8-0.4l0.1-0.1c0-0.1,0.1-0.2,0.1-0.3
					c0.1-0.2,0.3-0.1,0.4-0.2c0.2-0.2,0.4-0.4,0.8-0.5l0.1-0.1l0.2-0.1c0.1,0,0.2,0,0.4,0c0.2,0,0.5,0.1,0.7,0.1
					c0.1,0,0.2-0.1,0.2-0.3c0.3,0.1,0.6-0.2,0.6-0.6c0.3,0,0.2-0.3,0.3-0.5c0.1-0.1,0.2-0.2,0.2-0.1l0.1,0.3l0.1,0.2
					c0.2,0,0.3,0.1,0.5,0c0.3-0.1,0.3-0.5,0.3-0.8l0.1-0.2v-0.1c0.1-0.1,0.2-0.2,0.3-0.2c0.1,0,0-0.2,0.1-0.3c0.2-0.1,0.5,0,0.7-0.1
					c0.1,0,0.3-0.1,0.4-0.2c0.2-0.3,0-0.6,0.2-0.8c0.1-0.2,0.2-0.4,0.3-0.5l0.1,0c0.3-0.1,0.2-0.5,0.3-0.7c0-0.1,0.1-0.2,0.3-0.1
					c0.2,0.1,0.4,0.2,0.3,0.3c-0.2,0.3-0.4,0.7-0.3,0.9c0,0.1,0.2,0.1,0.4,0c0.1-0.1,0.2-0.2,0.3-0.2c0.3-0.1,0.5-0.2,0.7-0.3
					c0.2-0.1,0.3-0.3,0.3-0.5l0.2-0.1l0,0.1h0.1l0.1-0.2h0.3l0.1-0.3c0.1-0.2,0.1-0.4,0.2-0.6c0.4,0.1,0.9-0.1,0.9-0.7l0.1-0.1
					c0.4,0.1,0.4-0.3,0.6-0.6l0.1-0.2c0.1-0.1,0.1-0.3,0-0.4c-0.1-0.1-0.2-0.2-0.3-0.3c-0.2-0.1-0.5,0-0.7-0.1c-0.2-0.1,0-0.4,0-0.7
					c0-0.2-0.1-0.4,0-0.5c0.1-0.2,0.1-0.3,0.1-0.5h-0.2c-0.1-0.2,0-0.6,0-0.9c0-0.1,0-0.3,0-0.4c-0.1,0-0.3,0-0.3-0.1
					c0-0.2-0.1-0.3-0.3-0.4l0-0.2c0-0.1-0.2-0.3-0.2-0.5l-0.2-0.2l-0.1-0.3c-0.1-0.2-0.2-0.3-0.3-0.4l-0.2-0.1c-0.1-0.5,0-1-0.1-1.5
					c0-0.2-0.1-0.3-0.2-0.4c-0.1-0.2-0.1-0.5-0.2-0.7c-0.1-0.2-0.3-0.3-0.5-0.4c0.1,0.1,0.1,0.3-0.1,0.5c-0.1,0.1-0.2,0.2-0.3,0.4
					c-0.1,0.2,0,0.5-0.1,0.6c-0.2,0.2-0.3,0.4-0.5,0.6l-0.2,0.1c-0.1,0.2-0.1,0.3-0.2,0.5c-0.1,0.2,0,0.5,0,0.7l-0.1,0.2
					c-0.1,0.3-0.2,0.6-0.4,0.8l-0.3,0.1c-0.3,0.2-0.4,0.6-0.7,0.9c-0.2,0.2-0.2,0.5-0.4,0.7l-0.2,0.1c-0.2,0.1-0.3,0.3-0.5,0.4
					c-0.3,0.1-0.4,0.4-0.7,0.5h-0.1c-0.2,0.2-0.4,0.3-0.5,0.4c-0.5,0.2-0.9,0.5-1.3,0.6c-0.2,0.1-0.4,0.2-0.6,0.3
					c-0.3,0.1-0.5,0.3-0.7,0.3c-0.3,0.2-0.7,0.3-0.9,0.6c-0.1,0.1-0.3,0.1-0.5,0.2l-0.3,0.2c-0.1,0.2-0.4,0.2-0.6,0.2l-0.1,0.2
					c-0.1,0.2-0.3,0.1-0.4,0.2l-0.3,0c-0.3,0.1-0.7,0.3-1.1,0.5c-0.1,0.1-0.4,0-0.5,0.1l-0.2,0.1h-0.3l0,0.1c-0.1,0-0.2,0-0.4,0.1
					c-0.1,0-0.1,0.1-0.2,0.2c-0.1,0.2-0.3,0.1-0.4,0.1l-0.1,0.1h-0.2c-0.2,0.1-0.3,0.2-0.5,0.2c-0.2,0-0.3,0.1-0.5,0.1
					c-0.2,0.1-0.4,0-0.6,0c0,0.1-0.1,0.1-0.2,0.1c-0.2,0.1-0.5,0-0.8,0.1c-0.2,0.1-0.5,0-0.7,0.1l-0.1,0.1h-0.2l-0.2,0.1
					c-0.2,0.1-0.4,0-0.6,0.1c-0.2,0.1-0.4,0.1-0.6,0.1c-0.7,0.1-1.5,0-2.2,0l-0.1,0c-0.5,0-0.9,0.1-1.4,0c-0.8-0.1-1.6,0.1-2.3,0
					l-0.2-0.2c-0.1-0.1-0.3,0-0.4-0.1l-0.2-0.1c-0.4-0.1-0.9-0.1-1.3-0.2c-0.3-0.1-0.7,0-0.8-0.2c-0.2-0.3,0.1-0.4-0.2-0.7l-0.1-0.4
					c0-0.1,0-0.3,0-0.4c-0.1-0.2-0.1-0.2-0.1-0.4l-0.2-0.5c-0.1-0.9-0.1,0-0.1-1c0-0.9-0.1-0.5-0.1-0.7c0-0.3,0.1,0.1,0-0.2v-0.3
					c0-0.2-0.1,0-0.1-0.3c0,0,0-0.2,0-0.4c0-0.1-0.1-0.4-0.1-0.5c0-0.1-0.1-0.7-0.1-0.9c-0.1-0.6,0-0.3-0.1-1.1c0,0-0.1-0.2-0.1-0.8
					c0,0.1-0.1-1.4-0.2-1.2c0-0.2-0.1-0.5-0.1-0.6l-0.1-0.3c0-0.1,0-0.3,0-0.3c0-0.1,0.1-0.3,0.2-0.4l0.7-0.4c0.1-0.2,0.2,0,0.3-0.2
					c0.1-0.1,0.3-0.2,0.4-0.3c0.1-0.1,0-0.3,0.1-0.4l0.2,0l0.1-0.2c0.2-0.1,0.4-0.1,0.6-0.3c0-0.1,0.2-0.1,0.3-0.2
					c0.1-0.1,0.4,0,0.6-0.1l0.1-0.3c0.2-0.1,0.4,0,0.6-0.1c0.1,0,0-0.2,0.1-0.4c0-0.1,0.2-0.1,0.3-0.1l0.1-0.2
					c0.1-0.1,0.3-0.1,0.4-0.1l0.1,0v-0.2c0.2-0.1,0.5-0.1,0.7-0.3c0.1-0.1,0.3-0.1,0.3-0.3c0.1,0,0.3-0.1,0.4-0.2
					c0.2-0.1,0.5-0.2,0.7-0.5l0.2,0c0.1-0.1,0.2-0.1,0.4-0.3c0.1-0.1,0.2-0.2,0.2-0.2c0.2-0.1,0.5-0.1,0.5-0.4l0.2,0
					c0.1-0.2,0.1-0.3,0.3-0.3c0.2,0,0.4-0.2,0.4-0.3c0.1-0.3,0.3-0.5,0.5-0.7l0.2,0l0.3-0.2c0.1-0.1,0.2-0.2,0.3-0.4
					c0.1-0.1,0.3-0.1,0.4-0.2v-0.3c0.2,0,0.3-0.1,0.4-0.1c0.1,0,0.1-0.3,0.1-0.3c0.3,0,0.4-0.3,0.5-0.4c0.1-0.1,0.2-0.3,0.3-0.4
					c0.1-0.1,0.3-0.1,0.4-0.2l-0.1-0.2c-0.1-0.2,0-0.3,0.2-0.3v-0.2l0.1-0.1c0.3,0,0.4-0.3,0.6-0.5l0.1,0l0-0.1h0
					c0-0.1,0.1-0.2,0.2-0.3v-0.1l0.1,0v-0.2h0.1v-0.1l0.2-0.1c0.1,0,0.1-0.2,0.3-0.3c0.1-0.1,0.3-0.1,0.4-0.2l0.1-0.2
					c0-0.1,0.2-0.3,0.3-0.4l0.2,0l0.2-0.2v-0.2c0.1-0.1,0.2-0.2,0.2-0.3l0.3,0l0-0.3l0.1,0l0.2,0l0.2-0.3c0.1-0.2,0.1-0.4,0.2-0.6
					h0.2c0.2-0.2,0.4-0.5,0.6-0.7c0.1-0.2,0.1-0.5,0.3-0.6l0.1-0.2l0-0.3l0.2-0.3c0-0.2,0.2-0.5,0.2-0.7c0-0.4,0-0.7,0.3-1
					c0.2-0.2,0.2-0.4,0.2-0.6c0.1-0.3,0-0.7-0.1-1c-0.1-0.3,0-0.6-0.1-0.9v-0.2c-0.1-0.1,0-0.2-0.1-0.3l-0.1-0.1l0-0.2
					c-0.1-0.1-0.4-0.2-0.3-0.4l-0.2-0.1l0-0.1c-0.2-0.2-0.4-0.3-0.6-0.4l-0.1,0c-0.1-0.1-0.2-0.2-0.2-0.2c-0.1-0.1-0.2-0.3-0.4-0.3
					H273c0.1-0.3-0.1-0.3-0.3-0.4l0-0.1h-0.2l-0.1-0.3h-0.2c-0.4-0.2-0.7-0.2-1.1-0.2c-0.1-0.3-0.4-0.1-0.6-0.1
					c-0.4-0.1-0.7,0.1-1,0l0-0.1c-0.2,0-0.4,0-0.6-0.1c-0.2-0.1-0.5,0-0.7,0h-0.6l0,0.1c-0.8,0.2-1.6,0-2.4,0.1l-0.3,0.1
					c-0.3,0.1-0.6,0.1-1,0.2c-0.3,0.1-0.6,0.1-0.9,0.2c-0.2,0-0.3,0.1-0.5,0.1c-0.1,0-0.3,0.1-0.4,0.1c-0.9,0.2-1.8,0.3-2.6,0.6
					c-0.2,0.1-0.4,0-0.6,0.1c-0.3,0.2-0.7,0.1-1,0.2c-0.1,0-0.2,0.1-0.3,0.2h-0.3l-0.3,0.1c0-0.2,0-0.3,0-0.5l-0.1,0
					c0-0.1,0-0.2-0.1-0.3c-0.1-0.1,0-0.3-0.1-0.5c-0.3-0.3-0.1-0.9,0.2-1.2v-0.2l0.1-0.1c0.1-0.3,0.2-0.7,0.1-1l0.1-0.2
					c0-0.5,0-0.9,0-1.4c0-0.1,0.2-0.1,0.3-0.3l0-0.1c0-0.2,0-0.3,0-0.5l0.2,0c0.1-0.2,0.2-0.3,0.4-0.5c0.1-0.1,0.3,0,0.4-0.1l0-0.1
					c0,0,0.2-0.4,0.3-0.5l0.2,0c0.1-0.2,0.3-0.3,0.5-0.3l0.1-0.1c0.2-0.1,0.5,0.1,0.7-0.1v-0.1l0.2-0.2h0.2l0.2-0.2l0.3-0.1
					c0.1-0.1,0.3-0.3,0.5-0.4c0.2-0.1,0.3,0,0.5,0l0-0.1c0-0.3,0.5-0.3,0.5-0.6c0.1,0,0.3,0,0.3,0l0-0.3h0.1c0.2,0,0.5,0.1,0.7,0
					c0.3-0.2,0.6-0.1,0.9-0.2l0.1-0.2c0.2-0.1,0.3-0.2,0.5-0.3c0.1,0,0.3,0,0.4,0c0.1,0,0.1-0.2,0.2-0.2c0.1,0,0.2,0,0.3-0.1
					c0.2-0.2,0.4-0.2,0.5-0.5l0.1,0l0.3,0c0.1-0.1,0.2-0.3,0.4-0.3l0.1-0.1l0.2-0.1c0.1-0.1,0.1-0.3,0.3-0.3c0.1,0,0.3,0.1,0.4,0
					l0.1-0.2c0.2-0.1,0.2,0,0.3,0.2c0.7,0.2,1.4-0.1,2,0.2c0.1,0,0.3,0,0.4,0.1l0.1,0.1c0.2,0,0.2,0.2,0.4,0.2
					c0.1,0,0.4,0.1,0.5,0.2l0.2,0.1l0.1,0.1l0.2,0.1l0,0.1c0.1,0.1,0.2,0.1,0.3,0.1c0.4,0.1,0.9,0.1,1.3,0.1c0.5,0.1,0.9,0,1.4,0.1
					c0.5,0.2,1.1-0.1,1.7,0c0.3,0,0.6,0.1,0.8,0c0.2-0.1,0.3-0.2,0.5-0.4c0.1-0.1,0.3-0.1,0.4-0.1l0.1-0.2c0.2-0.1,0.4-0.1,0.6-0.1
					c0.1-0.1,0.3-0.2,0.4-0.2c0.1,0,0.2-0.1,0.3-0.1l0.3-0.2l0.3-0.2c0.2,0,0.3,0,0.4-0.1c0.4-0.3,0.7-0.6,1.2-0.7
					c0.1,0,0.2-0.2,0.4-0.2c0.1-0.1,0.3-0.2,0.4-0.3c0.1-0.1,0.3-0.1,0.5-0.2c0.1-0.1,0.2-0.3,0.4-0.3c0.2-0.1,0.3-0.2,0.5-0.3
					c0.1,0,0.2-0.1,0.3-0.2c0.3-0.2,0.4-0.5,0.7-0.7c0.2-0.1,0.2-0.3,0.4-0.4c0.2-0.1,0.2-0.2,0.4-0.3l0.1-0.2
					c0.1-0.1,0.2-0.2,0.4-0.3l0.1,0c0-0.3,0.3-0.4,0.5-0.6l0.1-0.2l0,0l0,0c0.2-0.1,0.3-0.2,0.3-0.4l0.2-0.1l0.2-0.3
					c0.3-0.1,0.4-0.4,0.6-0.5c0.1,0,0.2-0.3,0.2-0.5c0-0.1,0.1-0.1,0.2-0.2h0.1c0.2-0.2,0.3-0.3,0.4-0.5c0.2-0.1,0.4-0.3,0.6-0.4
					l0.3-0.3c0.2-0.2,0.3-0.3,0.5-0.4c0.2-0.1,0.3-0.2,0.4-0.4c0.1-0.1,0.3-0.1,0.4-0.2c0.1-0.1,0.1-0.2,0.2-0.3l0.2-0.2
					c0.1-0.1,0-0.2,0-0.4c0.1-0.1,0.1-0.2,0.2-0.3c0.2-0.1,0.3-0.3,0.4-0.4c0.1,0,0.2-0.1,0.2-0.3l0.1-0.2c0-0.2,0.1-0.5,0.2-0.6
					c0.1-0.1,0-0.3,0.1-0.4c0.1-0.1,0.2-0.4,0.4-0.4c0.2-0.1,0.1-0.3,0.3-0.4c0-0.1,0-0.1,0-0.3c0.1,0,0.1-0.1,0.2-0.2
					c0.1-0.1,0.1-0.3,0.2-0.4c0.3-0.3,0.3-0.6,0.4-1c0.1-0.1,0.1-0.3,0.2-0.5l0.1,0c0.1-0.3,0.1-0.7,0.2-1l0.2-0.2
					c0-0.2,0-0.3,0-0.5h0.1c0.1,0,0-0.4,0.1-0.6l0.2-0.1c0.1-0.4,0.1-0.9,0.3-1.3c0.1-0.2,0.1-0.4,0.1-0.6l-0.1,0v-0.1
					c0-0.2,0.1-0.3,0.1-0.4c0.2-0.5,0.1-1,0.2-1.5c0.2-0.5,0-1,0.1-1.5c0-0.1,0.1-0.3,0.1-0.4c0.1-0.4,0-0.6,0-1l0.1-0.1
					c0-0.3,0-0.6,0.1-0.9l0.1-0.3c0.1-0.3,0.1-0.6,0.2-0.8c0.1-0.3,0.1-0.6,0.2-0.8c0.1-0.3,0-0.7,0-1
					C298.3,42.5,298.5,41.5,298.4,40.6"/>
			</g>
		</g>
	</g>
</g>
</svg>
