<svg xmlns="http://www.w3.org/2000/svg" width="29.005" height="27.75" viewBox="0 0 29.005 27.75">
  <path id="line" d="M24.691,3.435A16.153,16.153,0,0,0,14.5,0,16.153,16.153,0,0,0,4.313,3.435,10.912,10.912,0,0,0,0,11.93a10.838,10.838,0,0,0,3.884,8.13,15.675,15.675,0,0,0,8.528,3.675V26.9a.85.85,0,0,0,.85.85c1.47,0,5.449-1.8,8.808-4.392a21.578,21.578,0,0,0,4.779-4.935A11.567,11.567,0,0,0,29,11.93,10.912,10.912,0,0,0,24.691,3.435ZM9.322,15.512H6.437a.689.689,0,0,1-.774-.628V8.968c0-.37.34-.619.847-.619s.846.249.846.619v5H9.322c.359,0,.61.318.61.774S9.675,15.512,9.322,15.512Zm2.722-.628c0,.364-.356.628-.846.628s-.846-.258-.846-.628V8.968c0-.37.34-.619.846-.619s.846.249.846.619Zm5.79,0c0,.364-.356.628-.847.628a.958.958,0,0,1-.906-.505L14.6,12.242v2.642c0,.364-.356.628-.846.628s-.847-.258-.847-.628V8.977c0-.376.34-.628.847-.628.548,0,.8.171,1.108.764l1.276,2.466V8.968c0-.37.34-.619.846-.619s.847.249.847.619Zm3.687-3.677a.669.669,0,0,1,.628.728.661.661,0,0,1-.628.71H20.393v1.32h2.321c.364,0,.628.329.628.783a.683.683,0,0,1-.628.765h-3.24a.688.688,0,0,1-.774-.628V8.977a.688.688,0,0,1,.774-.628h3.24a.683.683,0,0,1,.628.765c0,.454-.264.783-.628.783H20.393v1.311Zm0,0" fill="#4e69ba"/>
</svg>
