<svg xmlns="http://www.w3.org/2000/svg" xmlns:xlink="http://www.w3.org/1999/xlink" width="1366" height="769" viewBox="0 0 1366 769">
  <defs>
    <clipPath id="clip-path">
      <path id="Path_135" data-name="Path 135" d="M0-250.786H129.431V-380.217H0Z" transform="translate(0 380.217)" fill="none"/>
    </clipPath>
    <clipPath id="clip-op-bg">
      <rect width="1366" height="769"/>
    </clipPath>
  </defs>
  <g id="op-bg" clip-path="url(#clip-op-bg)">
    <rect width="1366" height="769" fill="#fdb7b4"/>
    <g id="Group_846" data-name="Group 846" transform="translate(-58.885 319.784)">
      <g id="Group_252" data-name="Group 252" clip-path="url(#clip-path)">
        <g id="Group_249" data-name="Group 249" transform="translate(38.502 0)">
          <path id="Path_132" data-name="Path 132" d="M-50.79,0A26.216,26.216,0,0,0-69.325,7.678,26.214,26.214,0,0,0-77,26.214V38.5h38.772A13.656,13.656,0,0,1-24.576,52.158V90.929h12.288A26.212,26.212,0,0,0,6.248,83.251a26.213,26.213,0,0,0,7.678-18.536A26.213,26.213,0,0,0,6.248,46.18,26.214,26.214,0,0,0-12.288,38.5H-22.68a1.9,1.9,0,0,1-1.9-1.9V26.213A26.216,26.216,0,0,0-32.254,7.678,26.218,26.218,0,0,0-50.79,0" transform="translate(77.003)" fill="#ff4d53"/>
        </g>
        <g id="Group_250" data-name="Group 250" transform="translate(0 38.502)">
          <path id="Path_133" data-name="Path 133" d="M-74.6-75.124V-113.9H-86.889a26.211,26.211,0,0,0-18.535,7.678A26.212,26.212,0,0,0-113.1-87.682a26.211,26.211,0,0,0,7.678,18.536,26.21,26.21,0,0,0,18.535,7.678H-76.5a1.9,1.9,0,0,1,1.9,1.9V-49.18a26.212,26.212,0,0,0,7.678,18.536,26.211,26.211,0,0,0,18.535,7.678,26.212,26.212,0,0,0,18.536-7.678,26.217,26.217,0,0,0,7.678-18.537V-61.469H-60.945A13.655,13.655,0,0,1-74.6-75.124" transform="translate(113.103 113.896)" fill="#4bcaca"/>
        </g>
        <g id="Group_251" data-name="Group 251" transform="translate(38.502 38.502)">
          <path id="Path_134" data-name="Path 134" d="M-75.125,0H-113.9V38.772a13.655,13.655,0,0,0,13.655,13.655H-61.47V13.656A13.656,13.656,0,0,0-75.125,0" transform="translate(113.897)" fill="#a73e41"/>
        </g>
      </g>
    </g>
    <g id="Group_848" data-name="Group 848" transform="translate(284.7 319.784)">
      <g id="Group_252-2" data-name="Group 252" clip-path="url(#clip-path)">
        <g id="Group_249-2" data-name="Group 249" transform="translate(38.502 0)">
          <path id="Path_132-2" data-name="Path 132" d="M-50.79,0A26.216,26.216,0,0,0-69.325,7.678,26.214,26.214,0,0,0-77,26.214V38.5h38.772A13.656,13.656,0,0,1-24.576,52.158V90.929h12.288A26.212,26.212,0,0,0,6.248,83.251a26.213,26.213,0,0,0,7.678-18.536A26.213,26.213,0,0,0,6.248,46.18,26.214,26.214,0,0,0-12.288,38.5H-22.68a1.9,1.9,0,0,1-1.9-1.9V26.213A26.216,26.216,0,0,0-32.254,7.678,26.218,26.218,0,0,0-50.79,0" transform="translate(77.003)" fill="#ff4d53"/>
        </g>
        <g id="Group_250-2" data-name="Group 250" transform="translate(0 38.502)">
          <path id="Path_133-2" data-name="Path 133" d="M-74.6-75.124V-113.9H-86.889a26.211,26.211,0,0,0-18.535,7.678A26.212,26.212,0,0,0-113.1-87.682a26.211,26.211,0,0,0,7.678,18.536,26.21,26.21,0,0,0,18.535,7.678H-76.5a1.9,1.9,0,0,1,1.9,1.9V-49.18a26.212,26.212,0,0,0,7.678,18.536,26.211,26.211,0,0,0,18.535,7.678,26.212,26.212,0,0,0,18.536-7.678,26.217,26.217,0,0,0,7.678-18.537V-61.469H-60.945A13.655,13.655,0,0,1-74.6-75.124" transform="translate(113.103 113.896)" fill="#4bcaca"/>
        </g>
        <g id="Group_251-2" data-name="Group 251" transform="translate(38.502 38.502)">
          <path id="Path_134-2" data-name="Path 134" d="M-75.125,0H-113.9V38.772a13.655,13.655,0,0,0,13.655,13.655H-61.47V13.656A13.656,13.656,0,0,0-75.125,0" transform="translate(113.897)" fill="#a73e41"/>
        </g>
      </g>
    </g>
    <g id="Group_852" data-name="Group 852" transform="translate(953.869 319.784)">
      <g id="Group_252-3" data-name="Group 252" clip-path="url(#clip-path)">
        <g id="Group_249-3" data-name="Group 249" transform="translate(38.502 0)">
          <path id="Path_132-3" data-name="Path 132" d="M-50.79,0A26.216,26.216,0,0,0-69.325,7.678,26.214,26.214,0,0,0-77,26.214V38.5h38.772A13.656,13.656,0,0,1-24.576,52.158V90.929h12.288A26.212,26.212,0,0,0,6.248,83.251a26.213,26.213,0,0,0,7.678-18.536A26.213,26.213,0,0,0,6.248,46.18,26.214,26.214,0,0,0-12.288,38.5H-22.68a1.9,1.9,0,0,1-1.9-1.9V26.213A26.216,26.216,0,0,0-32.254,7.678,26.218,26.218,0,0,0-50.79,0" transform="translate(77.003)" fill="#ff4d53"/>
        </g>
        <g id="Group_250-3" data-name="Group 250" transform="translate(0 38.502)">
          <path id="Path_133-3" data-name="Path 133" d="M-74.6-75.124V-113.9H-86.889a26.211,26.211,0,0,0-18.535,7.678A26.212,26.212,0,0,0-113.1-87.682a26.211,26.211,0,0,0,7.678,18.536,26.21,26.21,0,0,0,18.535,7.678H-76.5a1.9,1.9,0,0,1,1.9,1.9V-49.18a26.212,26.212,0,0,0,7.678,18.536,26.211,26.211,0,0,0,18.535,7.678,26.212,26.212,0,0,0,18.536-7.678,26.217,26.217,0,0,0,7.678-18.537V-61.469H-60.945A13.655,13.655,0,0,1-74.6-75.124" transform="translate(113.103 113.896)" fill="#4bcaca"/>
        </g>
        <g id="Group_251-3" data-name="Group 251" transform="translate(38.502 38.502)">
          <path id="Path_134-3" data-name="Path 134" d="M-75.125,0H-113.9V38.772a13.655,13.655,0,0,0,13.655,13.655H-61.47V13.656A13.656,13.656,0,0,0-75.125,0" transform="translate(113.897)" fill="#a73e41"/>
        </g>
      </g>
    </g>
    <g id="Group_853" data-name="Group 853" transform="translate(1125.661 319.784)">
      <g id="Group_252-4" data-name="Group 252" clip-path="url(#clip-path)">
        <g id="Group_249-4" data-name="Group 249" transform="translate(38.502 0)">
          <path id="Path_132-4" data-name="Path 132" d="M-50.79,0A26.216,26.216,0,0,0-69.325,7.678,26.214,26.214,0,0,0-77,26.214V38.5h38.772A13.656,13.656,0,0,1-24.576,52.158V90.929h12.288A26.212,26.212,0,0,0,6.248,83.251a26.213,26.213,0,0,0,7.678-18.536A26.213,26.213,0,0,0,6.248,46.18,26.214,26.214,0,0,0-12.288,38.5H-22.68a1.9,1.9,0,0,1-1.9-1.9V26.213A26.216,26.216,0,0,0-32.254,7.678,26.218,26.218,0,0,0-50.79,0" transform="translate(77.003)" fill="#ff4d53"/>
        </g>
        <g id="Group_250-4" data-name="Group 250" transform="translate(0 38.502)">
          <path id="Path_133-4" data-name="Path 133" d="M-74.6-75.124V-113.9H-86.889a26.211,26.211,0,0,0-18.535,7.678A26.212,26.212,0,0,0-113.1-87.682a26.211,26.211,0,0,0,7.678,18.536,26.21,26.21,0,0,0,18.535,7.678H-76.5a1.9,1.9,0,0,1,1.9,1.9V-49.18a26.212,26.212,0,0,0,7.678,18.536,26.211,26.211,0,0,0,18.535,7.678,26.212,26.212,0,0,0,18.536-7.678,26.217,26.217,0,0,0,7.678-18.537V-61.469H-60.945A13.655,13.655,0,0,1-74.6-75.124" transform="translate(113.103 113.896)" fill="#4bcaca"/>
        </g>
        <g id="Group_251-4" data-name="Group 251" transform="translate(38.502 38.502)">
          <path id="Path_134-4" data-name="Path 134" d="M-75.125,0H-113.9V38.772a13.655,13.655,0,0,0,13.655,13.655H-61.47V13.656A13.656,13.656,0,0,0-75.125,0" transform="translate(113.897)" fill="#a73e41"/>
        </g>
      </g>
    </g>
    <g id="Group_854" data-name="Group 854" transform="translate(1297.454 319.784)">
      <g id="Group_252-5" data-name="Group 252" clip-path="url(#clip-path)">
        <g id="Group_249-5" data-name="Group 249" transform="translate(38.502 0)">
          <path id="Path_132-5" data-name="Path 132" d="M-50.79,0A26.216,26.216,0,0,0-69.325,7.678,26.214,26.214,0,0,0-77,26.214V38.5h38.772A13.656,13.656,0,0,1-24.576,52.158V90.929h12.288A26.212,26.212,0,0,0,6.248,83.251a26.213,26.213,0,0,0,7.678-18.536A26.213,26.213,0,0,0,6.248,46.18,26.214,26.214,0,0,0-12.288,38.5H-22.68a1.9,1.9,0,0,1-1.9-1.9V26.213A26.216,26.216,0,0,0-32.254,7.678,26.218,26.218,0,0,0-50.79,0" transform="translate(77.003)" fill="#ff4d53"/>
        </g>
        <g id="Group_250-5" data-name="Group 250" transform="translate(0 38.502)">
          <path id="Path_133-5" data-name="Path 133" d="M-74.6-75.124V-113.9H-86.889a26.211,26.211,0,0,0-18.535,7.678A26.212,26.212,0,0,0-113.1-87.682a26.211,26.211,0,0,0,7.678,18.536,26.21,26.21,0,0,0,18.535,7.678H-76.5a1.9,1.9,0,0,1,1.9,1.9V-49.18a26.212,26.212,0,0,0,7.678,18.536,26.211,26.211,0,0,0,18.535,7.678,26.212,26.212,0,0,0,18.536-7.678,26.217,26.217,0,0,0,7.678-18.537V-61.469H-60.945A13.655,13.655,0,0,1-74.6-75.124" transform="translate(113.103 113.896)" fill="#4bcaca"/>
        </g>
        <g id="Group_251-5" data-name="Group 251" transform="translate(38.502 38.502)">
          <path id="Path_134-5" data-name="Path 134" d="M-75.125,0H-113.9V38.772a13.655,13.655,0,0,0,13.655,13.655H-61.47V13.656A13.656,13.656,0,0,0-75.125,0" transform="translate(113.897)" fill="#a73e41"/>
        </g>
      </g>
    </g>
    <g id="Group_847" data-name="Group 847" transform="translate(112.908 319.784)">
      <g id="Group_252-6" data-name="Group 252" clip-path="url(#clip-path)">
        <g id="Group_249-6" data-name="Group 249" transform="translate(38.502 0)">
          <path id="Path_132-6" data-name="Path 132" d="M-50.79,0A26.216,26.216,0,0,0-69.325,7.678,26.214,26.214,0,0,0-77,26.214V38.5h38.772A13.656,13.656,0,0,1-24.576,52.158V90.929h12.288A26.212,26.212,0,0,0,6.248,83.251a26.213,26.213,0,0,0,7.678-18.536A26.213,26.213,0,0,0,6.248,46.18,26.214,26.214,0,0,0-12.288,38.5H-22.68a1.9,1.9,0,0,1-1.9-1.9V26.213A26.216,26.216,0,0,0-32.254,7.678,26.218,26.218,0,0,0-50.79,0" transform="translate(77.003)" fill="#ff4d53"/>
        </g>
        <g id="Group_250-6" data-name="Group 250" transform="translate(0 38.502)">
          <path id="Path_133-6" data-name="Path 133" d="M-74.6-75.124V-113.9H-86.889a26.211,26.211,0,0,0-18.535,7.678A26.212,26.212,0,0,0-113.1-87.682a26.211,26.211,0,0,0,7.678,18.536,26.21,26.21,0,0,0,18.535,7.678H-76.5a1.9,1.9,0,0,1,1.9,1.9V-49.18a26.212,26.212,0,0,0,7.678,18.536,26.211,26.211,0,0,0,18.535,7.678,26.212,26.212,0,0,0,18.536-7.678,26.217,26.217,0,0,0,7.678-18.537V-61.469H-60.945A13.655,13.655,0,0,1-74.6-75.124" transform="translate(113.103 113.896)" fill="#4bcaca"/>
        </g>
        <g id="Group_251-6" data-name="Group 251" transform="translate(38.502 38.502)">
          <path id="Path_134-6" data-name="Path 134" d="M-75.125,0H-113.9V38.772a13.655,13.655,0,0,0,13.655,13.655H-61.47V13.656A13.656,13.656,0,0,0-75.125,0" transform="translate(113.897)" fill="#a73e41"/>
        </g>
      </g>
    </g>
  </g>
</svg>
